SplineFontDB: 3.2
FontName: FiraSans-LightItalic
FullName: Fira Sans Light Italic
FamilyName: Fira Sans Light
Weight: Light
Copyright: Digitized data copyright 2012-2016, The Mozilla Foundation and Telefonica S.A.
Version: 4.203
ItalicAngle: -8
UnderlinePosition: -100
UnderlineWidth: 50
Ascent: 800
Descent: 200
InvalidEm: 0
sfntRevision: 0x000433f7
LayerCount: 2
Layer: 0 1 "Back" 1
Layer: 1 1 "Fore" 0
XUID: [1021 349 544043585 5901230]
StyleMap: 0x0001
FSType: 0
OS2Version: 4
OS2_WeightWidthSlopeOnly: 0
OS2_UseTypoMetrics: 1
CreationTime: 1476948552
ModificationTime: 1480667555
PfmFamily: 17
TTFWeight: 300
TTFWidth: 5
LineGap: 0
VLineGap: 0
Panose: 2 11 4 3 5 0 0 2 0 4
OS2TypoAscent: 935
OS2TypoAOffset: 0
OS2TypoDescent: -265
OS2TypoDOffset: 0
OS2TypoLinegap: 0
OS2WinAscent: 935
OS2WinAOffset: 0
OS2WinDescent: 265
OS2WinDOffset: 0
HheadAscent: 935
HheadAOffset: 0
HheadDescent: -265
HheadDOffset: 0
OS2SubXSize: 650
OS2SubYSize: 600
OS2SubXOff: -11
OS2SubYOff: 75
OS2SupXSize: 650
OS2SupYSize: 600
OS2SupXOff: 49
OS2SupYOff: 350
OS2StrikeYSize: 50
OS2StrikeYPos: 313
OS2CapHeight: 685
OS2XHeight: 523
OS2Vendor: 'CTDB'
OS2CodePages: 2000019f.00000000
OS2UnicodeRanges: 600002ff.00000001.00000000.00000000
Lookup: 1 0 0 "'aalt' Access All Alternates lookup 0" { "'aalt' Access All Alternates lookup 0 subtable"  } ['aalt' ('DFLT' <'dflt' > 'cyrl' <'dflt' > 'grek' <'dflt' > 'latn' <'AFK ' 'CAT ' 'EWE ' 'MOL ' 'PLK ' 'ROM ' 'TRK ' 'dflt' > ) ]
Lookup: 3 0 0 "'aalt' Access All Alternates lookup 1" { "'aalt' Access All Alternates lookup 1 subtable"  } ['aalt' ('DFLT' <'dflt' > 'cyrl' <'dflt' > 'grek' <'dflt' > 'latn' <'AFK ' 'CAT ' 'EWE ' 'MOL ' 'PLK ' 'ROM ' 'TRK ' 'dflt' > ) ]
Lookup: 1 0 0 "'locl' Localized Forms in Latin lookup 2" { "'locl' Localized Forms in Latin lookup 2 subtable"  } ['locl' ('latn' <'TAT ' > ) ]
Lookup: 1 0 0 "'locl' Localized Forms in Latin lookup 3" { "'locl' Localized Forms in Latin lookup 3 subtable"  } ['locl' ('latn' <'TRK ' > ) ]

StartChar: .notdef
Encoding: 65536 -1 0
Width: 663
GlyphClass: 1
Flags: W
LayerCount: 2
Fore
SplineSet
652 1050 m 1,0,-1
 454 -350 l 1,1,-1
 36 -350 l 1,2,-1
 234 1050 l 1,3,-1
 652 1050 l 1,0,-1
590 998 m 1,4,-1
 281 998 l 1,5,-1
 98 -298 l 1,6,-1
 407 -298 l 1,7,-1
 590 998 l 1,4,-1
421.5 425.5 m 128,-1,9
 445 400 445 400 445 359 c 0,10,11
 445 351 445 351 443 333 c 0,12,13
 436 281 436 281 410.5 253 c 128,-1,14
 385 225 385 225 334 218 c 1,15,-1
 326 171 l 2,16,17
 325 161 325 161 317 155 c 128,-1,18
 309 149 309 149 301 149 c 0,19,20
 290 149 290 149 283 156.5 c 128,-1,21
 276 164 276 164 277 175 c 2,22,-1
 287 257 l 1,23,24
 340 260 340 260 362.5 278 c 128,-1,25
 385 296 385 296 391 337 c 0,26,27
 392 344 392 344 392 357 c 0,28,29
 392 379 392 379 381 391 c 128,-1,30
 370 403 370 403 342 403 c 0,31,32
 325 403 325 403 313 400.5 c 128,-1,33
 301 398 301 398 288 391 c 1,34,-1
 275 389 l 2,35,36
 263 389 263 389 256.5 396.5 c 128,-1,37
 250 404 250 404 252 415 c 0,38,39
 254 433 254 433 283.5 442 c 128,-1,40
 313 451 313 451 346 451 c 0,41,8
 398 451 398 451 421.5 425.5 c 128,-1,9
316 109 m 128,-1,43
 325 98 325 98 323 82 c 0,44,45
 322 67 322 67 311.5 57.5 c 128,-1,46
 301 48 301 48 287 48 c 0,47,48
 272 48 272 48 263.5 57.5 c 128,-1,49
 255 67 255 67 255 82 c 0,50,51
 255 99 255 99 265 109.5 c 128,-1,52
 275 120 275 120 291 120 c 256,53,42
 307 120 307 120 316 109 c 128,-1,43
EndSplineSet
EndChar

StartChar: A
Encoding: 65 65 3
Width: 562
GlyphClass: 2
Flags: W
AnchorPoint: "Anchor-18" 0 0 basechar 0
AnchorPoint: "Anchor-17" 0 0 basechar 0
AnchorPoint: "Anchor-16" 341 685 basechar 0
AnchorPoint: "Anchor-15" 500 0 basechar 0
AnchorPoint: "Anchor-14" 244 0 basechar 0
LayerCount: 2
Fore
SplineSet
447 0 m 1,0,-1
 414 187 l 1,1,-1
 127 187 l 1,2,-1
 41 0 l 1,3,-1
 -21 0 l 1,4,-1
 303 685 l 1,5,-1
 378 685 l 1,6,-1
 509 0 l 1,7,-1
 447 0 l 1,0,-1
151 238 m 1,8,-1
 405 238 l 1,9,-1
 334 635 l 1,10,-1
 151 238 l 1,8,-1
EndSplineSet
Substitution2: "Single Substitution lookup 44 subtable" ordfeminine
Substitution2: "'c2sc' Capitals to Small Capitals lookup 27 subtable" a.sc
AlternateSubs2: "'aalt' Access All Alternates lookup 1 subtable" ordfeminine a.sc
Position2: "'cpsp' Capital Spacing lookup 0 subtable" dx=5 dy=0 dh=10 dv=0
EndChar

StartChar: uni1EAE
Encoding: 7854 7854 6
Width: 562
GlyphClass: 2
Flags: W
AnchorPoint: "Anchor-18" 0 0 basechar 0
AnchorPoint: "Anchor-17" 0 0 basechar 0
AnchorPoint: "Anchor-16" 365 849 basechar 0
AnchorPoint: "Anchor-15" 500 0 basechar 0
AnchorPoint: "Anchor-14" 0 0 basechar 0
LayerCount: 2
Fore
SplineSet
490 969 m 1,0,-1
 355 850 l 1,1,-1
 330 875 l 1,2,-1
 455 1007 l 1,3,-1
 490 969 l 1,0,-1
267.5 767.5 m 128,-1,5
 235 797 235 797 234 841 c 1,6,-1
 273 847 l 1,7,8
 279 818 279 818 299 802 c 128,-1,9
 319 786 319 786 353 786 c 0,10,11
 388 786 388 786 414 803.5 c 128,-1,12
 440 821 440 821 454 849 c 1,13,-1
 493 837 l 1,14,15
 481 794 481 794 441.5 766 c 128,-1,16
 402 738 402 738 352 738 c 0,17,4
 300 738 300 738 267.5 767.5 c 128,-1,5
447 0 m 1,18,-1
 414 187 l 1,19,-1
 127 187 l 1,20,-1
 41 0 l 1,21,-1
 -21 0 l 1,22,-1
 303 685 l 1,23,-1
 378 685 l 1,24,-1
 509 0 l 1,25,-1
 447 0 l 1,18,-1
151 238 m 1,26,-1
 405 238 l 1,27,-1
 334 635 l 1,28,-1
 151 238 l 1,26,-1
EndSplineSet
Substitution2: "'c2sc' Capitals to Small Capitals lookup 27 subtable" uni1EAF.sc
Substitution2: "'aalt' Access All Alternates lookup 0 subtable" uni1EAF.sc
Position2: "'cpsp' Capital Spacing lookup 0 subtable" dx=5 dy=0 dh=10 dv=0
EndChar

StartChar: uni1EB0
Encoding: 7856 7856 8
Width: 562
GlyphClass: 2
Flags: W
AnchorPoint: "Anchor-18" 0 0 basechar 0
AnchorPoint: "Anchor-17" 0 0 basechar 0
AnchorPoint: "Anchor-16" 363 849 basechar 0
AnchorPoint: "Anchor-15" 500 0 basechar 0
AnchorPoint: "Anchor-14" 0 0 basechar 0
LayerCount: 2
Fore
SplineSet
385 872 m 1,0,-1
 358 850 l 1,1,-1
 254 971 l 1,2,-1
 295 1006 l 1,3,-1
 385 872 l 1,0,-1
265.5 767.5 m 128,-1,5
 233 797 233 797 232 841 c 1,6,-1
 271 847 l 1,7,8
 277 818 277 818 297 802 c 128,-1,9
 317 786 317 786 351 786 c 0,10,11
 386 786 386 786 412 803.5 c 128,-1,12
 438 821 438 821 452 849 c 1,13,-1
 491 837 l 1,14,15
 479 794 479 794 439.5 766 c 128,-1,16
 400 738 400 738 350 738 c 0,17,4
 298 738 298 738 265.5 767.5 c 128,-1,5
447 0 m 1,18,-1
 414 187 l 1,19,-1
 127 187 l 1,20,-1
 41 0 l 1,21,-1
 -21 0 l 1,22,-1
 303 685 l 1,23,-1
 378 685 l 1,24,-1
 509 0 l 1,25,-1
 447 0 l 1,18,-1
151 238 m 1,26,-1
 405 238 l 1,27,-1
 334 635 l 1,28,-1
 151 238 l 1,26,-1
EndSplineSet
Substitution2: "'c2sc' Capitals to Small Capitals lookup 27 subtable" uni1EB1.sc
Substitution2: "'aalt' Access All Alternates lookup 0 subtable" uni1EB1.sc
Position2: "'cpsp' Capital Spacing lookup 0 subtable" dx=5 dy=0 dh=10 dv=0
EndChar

StartChar: uni1EB4
Encoding: 7860 7860 10
Width: 562
GlyphClass: 2
Flags: W
AnchorPoint: "Anchor-18" 0 0 basechar 0
AnchorPoint: "Anchor-17" 0 0 basechar 0
AnchorPoint: "Anchor-16" 374 974 basechar 0
AnchorPoint: "Anchor-15" 500 0 basechar 0
AnchorPoint: "Anchor-14" 0 0 basechar 0
LayerCount: 2
Fore
SplineSet
284 917.5 m 128,-1,1
 271 908 271 908 252 885 c 1,2,-1
 219 907 l 1,3,4
 264 973 264 973 316 973 c 0,5,6
 334 973 334 973 347.5 966.5 c 128,-1,7
 361 960 361 960 380 948 c 0,8,9
 398 937 398 937 407 932.5 c 128,-1,10
 416 928 416 928 427 928 c 0,11,12
 443 928 443 928 457.5 938.5 c 128,-1,13
 472 949 472 949 489 972 c 1,14,-1
 525 951 l 1,15,16
 481 881 481 881 428 881 c 0,17,18
 408 881 408 881 393.5 887.5 c 128,-1,19
 379 894 379 894 360 907 c 0,20,21
 347 917 347 917 336.5 922 c 128,-1,22
 326 927 326 927 315 927 c 0,23,0
 297 927 297 927 284 917.5 c 128,-1,1
415 803.5 m 128,-1,25
 441 821 441 821 455 849 c 1,26,-1
 494 837 l 1,27,28
 482 794 482 794 442.5 766 c 128,-1,29
 403 738 403 738 353 738 c 0,30,31
 301 738 301 738 268.5 767.5 c 128,-1,32
 236 797 236 797 235 841 c 1,33,-1
 274 847 l 1,34,35
 280 818 280 818 300 802 c 128,-1,36
 320 786 320 786 354 786 c 0,37,24
 389 786 389 786 415 803.5 c 128,-1,25
303 685 m 1,38,-1
 378 685 l 1,39,-1
 509 0 l 1,40,-1
 447 0 l 1,41,-1
 414 187 l 1,42,-1
 127 187 l 1,43,-1
 41 0 l 1,44,-1
 -21 0 l 1,45,-1
 303 685 l 1,38,-1
151 238 m 1,46,-1
 405 238 l 1,47,-1
 334 635 l 1,48,-1
 151 238 l 1,46,-1
EndSplineSet
Substitution2: "'c2sc' Capitals to Small Capitals lookup 27 subtable" uni1EB5.sc
Substitution2: "'aalt' Access All Alternates lookup 0 subtable" uni1EB5.sc
Position2: "'cpsp' Capital Spacing lookup 0 subtable" dx=5 dy=0 dh=10 dv=0
EndChar

StartChar: uni1EA4
Encoding: 7844 7844 13
Width: 562
GlyphClass: 2
Flags: W
AnchorPoint: "Anchor-18" 0 0 basechar 0
AnchorPoint: "Anchor-17" 441 721 basechar 0
AnchorPoint: "Anchor-16" 363 859 basechar 0
AnchorPoint: "Anchor-15" 500 0 basechar 0
AnchorPoint: "Anchor-14" 0 0 basechar 0
LayerCount: 2
Fore
SplineSet
597 952 m 1,0,-1
 462 833 l 1,1,-1
 437 858 l 1,2,-1
 562 990 l 1,3,-1
 597 952 l 1,0,-1
358 807 m 1,4,-1
 226 727 l 1,5,-1
 202 758 l 1,6,-1
 344 859 l 1,7,-1
 381 859 l 1,8,-1
 495 757 l 1,9,-1
 468 727 l 1,10,-1
 358 807 l 1,4,-1
303 685 m 1,11,-1
 378 685 l 1,12,-1
 509 0 l 1,13,-1
 447 0 l 1,14,-1
 414 187 l 1,15,-1
 127 187 l 1,16,-1
 41 0 l 1,17,-1
 -21 0 l 1,18,-1
 303 685 l 1,11,-1
151 238 m 1,19,-1
 405 238 l 1,20,-1
 334 635 l 1,21,-1
 151 238 l 1,19,-1
EndSplineSet
Substitution2: "'c2sc' Capitals to Small Capitals lookup 27 subtable" uni1EA5.sc
Substitution2: "'aalt' Access All Alternates lookup 0 subtable" uni1EA5.sc
Position2: "'cpsp' Capital Spacing lookup 0 subtable" dx=5 dy=0 dh=10 dv=0
EndChar

StartChar: uni1EA6
Encoding: 7846 7846 15
Width: 562
GlyphClass: 2
Flags: W
AnchorPoint: "Anchor-18" 0 0 basechar 0
AnchorPoint: "Anchor-17" 438 721 basechar 0
AnchorPoint: "Anchor-16" 360 859 basechar 0
AnchorPoint: "Anchor-15" 500 0 basechar 0
AnchorPoint: "Anchor-14" 0 0 basechar 0
LayerCount: 2
Fore
SplineSet
274 855 m 1,0,-1
 247 833 l 1,1,-1
 143 954 l 1,2,-1
 184 989 l 1,3,-1
 274 855 l 1,0,-1
223 727 m 1,4,-1
 199 758 l 1,5,-1
 341 859 l 1,6,-1
 378 859 l 1,7,-1
 492 757 l 1,8,-1
 465 727 l 1,9,-1
 355 807 l 1,10,-1
 223 727 l 1,4,-1
447 0 m 1,11,-1
 414 187 l 1,12,-1
 127 187 l 1,13,-1
 41 0 l 1,14,-1
 -21 0 l 1,15,-1
 303 685 l 1,16,-1
 378 685 l 1,17,-1
 509 0 l 1,18,-1
 447 0 l 1,11,-1
151 238 m 1,19,-1
 405 238 l 1,20,-1
 334 635 l 1,21,-1
 151 238 l 1,19,-1
EndSplineSet
Substitution2: "'c2sc' Capitals to Small Capitals lookup 27 subtable" uni1EA7.sc
Substitution2: "'aalt' Access All Alternates lookup 0 subtable" uni1EA7.sc
Position2: "'cpsp' Capital Spacing lookup 0 subtable" dx=5 dy=0 dh=10 dv=0
EndChar

StartChar: uni1EAA
Encoding: 7850 7850 17
Width: 562
GlyphClass: 2
Flags: W
AnchorPoint: "Anchor-18" 0 0 basechar 0
AnchorPoint: "Anchor-17" 438 721 basechar 0
AnchorPoint: "Anchor-16" 374 984 basechar 0
AnchorPoint: "Anchor-15" 500 0 basechar 0
AnchorPoint: "Anchor-14" 0 0 basechar 0
LayerCount: 2
Fore
SplineSet
284 927.5 m 128,-1,1
 271 918 271 918 252 895 c 1,2,-1
 219 917 l 1,3,4
 264 983 264 983 316 983 c 0,5,6
 334 983 334 983 347.5 976.5 c 128,-1,7
 361 970 361 970 380 958 c 0,8,9
 398 947 398 947 407 942.5 c 128,-1,10
 416 938 416 938 427 938 c 0,11,12
 443 938 443 938 457.5 948.5 c 128,-1,13
 472 959 472 959 489 982 c 1,14,-1
 525 961 l 1,15,16
 481 891 481 891 428 891 c 0,17,18
 408 891 408 891 393.5 897.5 c 128,-1,19
 379 904 379 904 360 917 c 0,20,21
 347 927 347 927 336.5 932 c 128,-1,22
 326 937 326 937 315 937 c 0,23,0
 297 937 297 937 284 927.5 c 128,-1,1
355 807 m 1,24,-1
 223 727 l 1,25,-1
 199 758 l 1,26,-1
 341 859 l 1,27,-1
 378 859 l 1,28,-1
 492 757 l 1,29,-1
 465 727 l 1,30,-1
 355 807 l 1,24,-1
303 685 m 1,31,-1
 378 685 l 1,32,-1
 509 0 l 1,33,-1
 447 0 l 1,34,-1
 414 187 l 1,35,-1
 127 187 l 1,36,-1
 41 0 l 1,37,-1
 -21 0 l 1,38,-1
 303 685 l 1,31,-1
151 238 m 1,39,-1
 405 238 l 1,40,-1
 334 635 l 1,41,-1
 151 238 l 1,39,-1
EndSplineSet
Substitution2: "'c2sc' Capitals to Small Capitals lookup 27 subtable" uni1EAB.sc
Substitution2: "'aalt' Access All Alternates lookup 0 subtable" uni1EAB.sc
Position2: "'cpsp' Capital Spacing lookup 0 subtable" dx=5 dy=0 dh=10 dv=0
EndChar

StartChar: uni2C6D
Encoding: 11373 11373 27
Width: 669
GlyphClass: 2
Flags: W
AnchorPoint: "Anchor-18" 0 0 basechar 0
AnchorPoint: "Anchor-17" 0 0 basechar 0
AnchorPoint: "Anchor-16" 396 685 basechar 0
AnchorPoint: "Anchor-15" 0 0 basechar 0
AnchorPoint: "Anchor-14" 300 0 basechar 0
LayerCount: 2
Fore
SplineSet
532 81 m 0,1,2
 532 62 532 62 539.5 50 c 128,-1,3
 547 38 547 38 565 31 c 1,4,-1
 549 -11 l 1,5,6
 472 4 472 4 476 80 c 1,7,8
 399 -11 399 -11 290 -11 c 0,9,10
 191 -11 191 -11 131 59 c 128,-1,11
 71 129 71 129 70 259 c 0,12,13
 70 368 70 368 110 469 c 128,-1,14
 150 570 150 570 222.5 633 c 128,-1,15
 295 696 295 696 387 696 c 0,16,17
 486 696 486 696 546 613 c 1,18,-1
 562 685 l 1,19,-1
 615 685 l 1,20,-1
 535 114 l 2,21,0
 532 95 532 95 532 81 c 0,1,2
396 65 m 128,-1,23
 440 89 440 89 479 141 c 1,24,-1
 537 557 l 1,25,26
 507 602 507 602 471.5 623.5 c 128,-1,27
 436 645 436 645 387 645 c 0,28,29
 309 645 309 645 251.5 588.5 c 128,-1,30
 194 532 194 532 163.5 442.5 c 128,-1,31
 133 353 133 353 133 259 c 0,32,33
 133 149 133 149 177.5 95 c 128,-1,34
 222 41 222 41 297 41 c 0,35,22
 352 41 352 41 396 65 c 128,-1,23
EndSplineSet
Substitution2: "'c2sc' Capitals to Small Capitals lookup 27 subtable" uni2C6D.sc
Substitution2: "'aalt' Access All Alternates lookup 0 subtable" uni2C6D.sc
Position2: "'cpsp' Capital Spacing lookup 0 subtable" dx=5 dy=0 dh=10 dv=0
EndChar

StartChar: Aogonek
Encoding: 260 260 29
Width: 562
GlyphClass: 2
Flags: W
AnchorPoint: "Anchor-18" 0 0 basechar 0
AnchorPoint: "Anchor-17" 0 0 basechar 0
AnchorPoint: "Anchor-16" 341 685 basechar 0
AnchorPoint: "Anchor-15" 500 0 basechar 0
AnchorPoint: "Anchor-14" 244 0 basechar 0
LayerCount: 2
Fore
SplineSet
383 -61 m 128,-1,1
 351 -90 351 -90 351 -124 c 0,2,3
 351 -169 351 -169 406 -169 c 0,4,5
 433 -169 433 -169 465 -162 c 1,6,-1
 455 -211 l 1,7,8
 425 -217 425 -217 398 -217 c 0,9,10
 349 -217 349 -217 323 -194.5 c 128,-1,11
 297 -172 297 -172 297 -136 c 0,12,13
 297 -88 297 -88 331 -52 c 128,-1,14
 365 -16 365 -16 445 14 c 1,15,-1
 414 187 l 1,16,-1
 127 187 l 1,17,-1
 41 0 l 1,18,-1
 -21 0 l 1,19,-1
 303 685 l 1,20,-1
 378 685 l 1,21,-1
 509 0 l 1,22,-1
 491 0 l 1,23,0
 415 -32 415 -32 383 -61 c 128,-1,1
151 238 m 1,24,-1
 405 238 l 1,25,-1
 334 635 l 1,26,-1
 151 238 l 1,24,-1
EndSplineSet
Substitution2: "'c2sc' Capitals to Small Capitals lookup 27 subtable" aogonek.sc
Substitution2: "'aalt' Access All Alternates lookup 0 subtable" aogonek.sc
Position2: "'cpsp' Capital Spacing lookup 0 subtable" dx=5 dy=0 dh=10 dv=0
EndChar

StartChar: uni023A
Encoding: 570 570 32
Width: 562
GlyphClass: 2
Flags: W
AnchorPoint: "Anchor-18" 0 0 basechar 0
AnchorPoint: "Anchor-17" 0 0 basechar 0
AnchorPoint: "Anchor-16" 341 685 basechar 0
AnchorPoint: "Anchor-15" 0 0 basechar 0
AnchorPoint: "Anchor-14" 244 0 basechar 0
LayerCount: 2
Fore
SplineSet
449 0 m 1,0,-1
 415 187 l 1,1,-1
 257 187 l 1,2,-1
 153 -70 l 1,3,-1
 120 -62 l 1,4,-1
 221 187 l 1,5,-1
 126 187 l 1,6,-1
 39 0 l 1,7,-1
 -21 0 l 1,8,-1
 303 685 l 1,9,-1
 378 685 l 1,10,-1
 392 611 l 1,11,-1
 446 745 l 1,12,-1
 479 736 l 1,13,-1
 404 550 l 1,14,-1
 509 0 l 1,15,-1
 449 0 l 1,0,-1
149 237 m 1,16,-1
 241 237 l 1,17,-1
 355 520 l 1,18,-1
 334 637 l 1,19,-1
 149 237 l 1,16,-1
277 237 m 1,20,-1
 406 237 l 1,21,-1
 366 458 l 1,22,-1
 277 237 l 1,20,-1
EndSplineSet
Substitution2: "'c2sc' Capitals to Small Capitals lookup 27 subtable" uni2C65.sc
Substitution2: "'aalt' Access All Alternates lookup 0 subtable" uni2C65.sc
Position2: "'cpsp' Capital Spacing lookup 0 subtable" dx=5 dy=0 dh=10 dv=0
EndChar

StartChar: AE
Encoding: 198 198 34
Width: 780
GlyphClass: 2
Flags: W
AnchorPoint: "Anchor-18" 0 0 basechar 0
AnchorPoint: "Anchor-17" 0 0 basechar 0
AnchorPoint: "Anchor-16" 514 685 basechar 0
AnchorPoint: "Anchor-15" 0 0 basechar 0
AnchorPoint: "Anchor-14" 353 0 basechar 0
LayerCount: 2
Fore
SplineSet
732 635 m 1,0,-1
 409 635 l 1,1,-1
 439 379 l 1,2,-1
 696 379 l 1,3,-1
 689 329 l 1,4,-1
 445 329 l 1,5,-1
 477 51 l 1,6,-1
 705 51 l 1,7,-1
 697 0 l 1,8,-1
 425 0 l 1,9,-1
 405 184 l 1,10,-1
 121 184 l 1,11,-1
 26 0 l 1,12,-1
 -38 0 l 1,13,-1
 325 685 l 1,14,-1
 747 685 l 1,15,-1
 732 635 l 1,0,-1
147 234 m 1,16,-1
 400 234 l 1,17,-1
 356 637 l 1,18,-1
 147 234 l 1,16,-1
EndSplineSet
Substitution2: "'c2sc' Capitals to Small Capitals lookup 27 subtable" ae.sc
Substitution2: "'aalt' Access All Alternates lookup 0 subtable" ae.sc
Position2: "'cpsp' Capital Spacing lookup 0 subtable" dx=5 dy=0 dh=10 dv=0
EndChar

StartChar: B
Encoding: 66 66 37
Width: 595
GlyphClass: 2
Flags: W
AnchorPoint: "Anchor-18" 0 0 basechar 0
AnchorPoint: "Anchor-17" 0 0 basechar 0
AnchorPoint: "Anchor-16" 338 685 basechar 0
AnchorPoint: "Anchor-15" 0 0 basechar 0
AnchorPoint: "Anchor-14" 272 0 basechar 0
LayerCount: 2
Fore
SplineSet
495.5 319.5 m 128,-1,1
 534 285 534 285 534 218 c 0,2,3
 534 125 534 125 470 62.5 c 128,-1,4
 406 0 406 0 261 0 c 2,5,-1
 73 0 l 1,6,-1
 170 685 l 1,7,-1
 340 685 l 2,8,9
 436 685 436 685 491.5 647 c 128,-1,10
 547 609 547 609 547 534 c 0,11,12
 547 465 547 465 505 419.5 c 128,-1,13
 463 374 463 374 394 362 c 1,14,0
 457 354 457 354 495.5 319.5 c 128,-1,1
223 635 m 1,15,-1
 188 385 l 1,16,-1
 319 385 l 2,17,18
 397 385 397 385 441.5 425.5 c 128,-1,19
 486 466 486 466 486 533 c 0,20,21
 486 635 486 635 342 635 c 2,22,-1
 223 635 l 1,15,-1
425 98.5 m 128,-1,24
 472 146 472 146 472 219 c 0,25,26
 472 279 472 279 432 307.5 c 128,-1,27
 392 336 392 336 324 336 c 2,28,-1
 181 336 l 1,29,-1
 141 51 l 1,30,-1
 265 51 l 2,31,23
 378 51 378 51 425 98.5 c 128,-1,24
EndSplineSet
Substitution2: "'c2sc' Capitals to Small Capitals lookup 27 subtable" b.sc
Substitution2: "'aalt' Access All Alternates lookup 0 subtable" b.sc
Position2: "'cpsp' Capital Spacing lookup 0 subtable" dx=5 dy=0 dh=10 dv=0
EndChar

StartChar: uniA7B4
Encoding: 42932 42932 40
Width: 595
GlyphClass: 2
Flags: W
AnchorPoint: "Anchor-18" 0 0 basechar 0
AnchorPoint: "Anchor-17" 0 0 basechar 0
AnchorPoint: "Anchor-16" 357 685 basechar 0
AnchorPoint: "Anchor-15" 0 0 basechar 0
AnchorPoint: "Anchor-14" 0 0 basechar 0
LayerCount: 2
Fore
SplineSet
497 322 m 128,-1,1
 535 289 535 289 535 223 c 0,2,3
 535 155 535 155 503 104.5 c 128,-1,4
 471 54 471 54 413.5 27 c 128,-1,5
 356 0 356 0 282 0 c 0,6,7
 205 0 205 0 137 27 c 1,8,-1
 106 -197 l 1,9,-1
 46 -197 l 1,10,-1
 170 685 l 1,11,-1
 340 685 l 2,12,13
 436 685 436 685 491.5 646.5 c 128,-1,14
 547 608 547 608 547 532 c 0,15,16
 547 463 547 463 506 419 c 128,-1,17
 465 375 465 375 399 362 c 1,18,0
 459 355 459 355 497 322 c 128,-1,1
421 97.5 m 128,-1,20
 473 144 473 144 473 223 c 0,21,22
 473 281 473 281 433 308.5 c 128,-1,23
 393 336 393 336 326 336 c 2,24,-1
 256 336 l 1,25,-1
 270 385 l 1,26,-1
 323 385 l 2,27,28
 398 385 398 385 442 423.5 c 128,-1,29
 486 462 486 462 486 531 c 0,30,31
 486 635 486 635 342 635 c 2,32,-1
 223 635 l 1,33,-1
 144 72 l 1,34,35
 210 51 210 51 282 51 c 0,36,19
 369 51 369 51 421 97.5 c 128,-1,20
EndSplineSet
Substitution2: "'c2sc' Capitals to Small Capitals lookup 27 subtable" uniA7B4.sc
Substitution2: "'aalt' Access All Alternates lookup 0 subtable" uniA7B4.sc
Position2: "'cpsp' Capital Spacing lookup 0 subtable" dx=5 dy=0 dh=10 dv=0
EndChar

StartChar: uni0181
Encoding: 385 385 41
Width: 655
GlyphClass: 2
Flags: W
AnchorPoint: "Anchor-18" 0 0 basechar 0
AnchorPoint: "Anchor-17" 0 0 basechar 0
AnchorPoint: "Anchor-16" 398 685 basechar 0
AnchorPoint: "Anchor-15" 0 0 basechar 0
AnchorPoint: "Anchor-14" 332 0 basechar 0
LayerCount: 2
Fore
SplineSet
555.5 319.5 m 128,-1,1
 594 285 594 285 594 218 c 0,2,3
 594 125 594 125 530 62.5 c 128,-1,4
 466 0 466 0 321 0 c 2,5,-1
 133 0 l 1,6,-1
 223 636 l 1,7,-1
 197 636 l 2,8,9
 155 636 155 636 135 614 c 128,-1,10
 115 592 115 592 115 554 c 0,11,12
 115 532 115 532 127 498 c 1,13,-1
 81 477 l 1,14,15
 70 498 70 498 64 516.5 c 128,-1,16
 58 535 58 535 58 558 c 0,17,18
 58 615 58 615 96.5 650 c 128,-1,19
 135 685 135 685 204 685 c 2,20,-1
 400 685 l 2,21,22
 496 685 496 685 551.5 647 c 128,-1,23
 607 609 607 609 607 534 c 0,24,25
 607 465 607 465 565 419.5 c 128,-1,26
 523 374 523 374 454 362 c 1,27,0
 517 354 517 354 555.5 319.5 c 128,-1,1
283 635 m 1,28,-1
 248 385 l 1,29,-1
 379 385 l 2,30,31
 457 385 457 385 501.5 425.5 c 128,-1,32
 546 466 546 466 546 533 c 0,33,34
 546 635 546 635 402 635 c 2,35,-1
 283 635 l 1,28,-1
485 98.5 m 128,-1,37
 532 146 532 146 532 219 c 0,38,39
 532 279 532 279 492 307.5 c 128,-1,40
 452 336 452 336 384 336 c 2,41,-1
 241 336 l 1,42,-1
 201 51 l 1,43,-1
 325 51 l 2,44,36
 438 51 438 51 485 98.5 c 128,-1,37
EndSplineSet
Substitution2: "'ss02' Style Set 2 lookup 35 subtable" uni0181.ss02
Substitution2: "'c2sc' Capitals to Small Capitals lookup 27 subtable" uni0253.sc
AlternateSubs2: "'aalt' Access All Alternates lookup 1 subtable" uni0253.sc uni0181.ss02
Position2: "'cpsp' Capital Spacing lookup 0 subtable" dx=5 dy=0 dh=10 dv=0
EndChar

StartChar: uni0243
Encoding: 579 579 42
Width: 603
GlyphClass: 2
Flags: W
AnchorPoint: "Anchor-18" 0 0 basechar 0
AnchorPoint: "Anchor-17" 0 0 basechar 0
AnchorPoint: "Anchor-16" 346 685 basechar 0
AnchorPoint: "Anchor-15" 0 0 basechar 0
AnchorPoint: "Anchor-14" 280 0 basechar 0
LayerCount: 2
Fore
SplineSet
503.5 319.5 m 128,-1,1
 542 285 542 285 542 218 c 0,2,3
 542 125 542 125 478 62.5 c 128,-1,4
 414 0 414 0 269 0 c 2,5,-1
 81 0 l 1,6,-1
 106 174 l 1,7,-1
 17 174 l 1,8,-1
 24 222 l 1,9,-1
 112 222 l 1,10,-1
 178 685 l 1,11,-1
 348 685 l 2,12,13
 444 685 444 685 499.5 647 c 128,-1,14
 555 609 555 609 555 534 c 0,15,16
 555 465 555 465 513 419.5 c 128,-1,17
 471 374 471 374 402 362 c 1,18,0
 465 354 465 354 503.5 319.5 c 128,-1,1
231 635 m 1,19,-1
 196 385 l 1,20,-1
 327 385 l 2,21,22
 405 385 405 385 449.5 425.5 c 128,-1,23
 494 466 494 466 494 533 c 0,24,25
 494 635 494 635 350 635 c 2,26,-1
 231 635 l 1,19,-1
433 98.5 m 128,-1,28
 480 146 480 146 480 219 c 0,29,30
 480 279 480 279 440 307.5 c 128,-1,31
 400 336 400 336 332 336 c 2,32,-1
 189 336 l 1,33,-1
 173 222 l 1,34,-1
 349 222 l 1,35,-1
 342 174 l 1,36,-1
 166 174 l 1,37,-1
 149 51 l 1,38,-1
 273 51 l 2,39,27
 386 51 386 51 433 98.5 c 128,-1,28
EndSplineSet
Substitution2: "'c2sc' Capitals to Small Capitals lookup 27 subtable" uni0180.sc
Substitution2: "'aalt' Access All Alternates lookup 0 subtable" uni0180.sc
Position2: "'cpsp' Capital Spacing lookup 0 subtable" dx=5 dy=0 dh=10 dv=0
EndChar

StartChar: C
Encoding: 67 67 44
Width: 547
GlyphClass: 2
Flags: W
AnchorPoint: "Anchor-18" 0 0 basechar 0
AnchorPoint: "Anchor-17" 0 0 basechar 0
AnchorPoint: "Anchor-16" 402 685 basechar 0
AnchorPoint: "Anchor-15" 0 0 basechar 0
AnchorPoint: "Anchor-14" 305 0 basechar 0
LayerCount: 2
Fore
SplineSet
494 680 m 128,-1,1
 534 664 534 664 569 632 c 1,2,-1
 534 596 l 1,3,4
 502 622 502 622 471.5 633.5 c 128,-1,5
 441 645 441 645 401 645 c 0,6,7
 308 645 308 645 248 585.5 c 128,-1,8
 188 526 188 526 160.5 437.5 c 128,-1,9
 133 349 133 349 133 260 c 0,10,11
 133 152 133 152 181 97 c 128,-1,12
 229 42 229 42 309 42 c 0,13,14
 358 42 358 42 394 56.5 c 128,-1,15
 430 71 430 71 469 100 c 1,16,-1
 498 58 l 1,17,18
 411 -11 411 -11 305 -11 c 256,19,20
 199 -11 199 -11 135 60.5 c 128,-1,21
 71 132 71 132 71 263 c 0,22,23
 71 363 71 363 105.5 463 c 128,-1,24
 140 563 140 563 214 629.5 c 128,-1,25
 288 696 288 696 399 696 c 0,26,0
 454 696 454 696 494 680 c 128,-1,1
EndSplineSet
Substitution2: "'c2sc' Capitals to Small Capitals lookup 27 subtable" c.sc
Substitution2: "'aalt' Access All Alternates lookup 0 subtable" c.sc
Position2: "'cpsp' Capital Spacing lookup 0 subtable" dx=5 dy=0 dh=10 dv=0
EndChar

StartChar: Ccedilla
Encoding: 199 199 47
Width: 547
GlyphClass: 2
Flags: W
AnchorPoint: "Anchor-18" 0 0 basechar 0
AnchorPoint: "Anchor-17" 0 0 basechar 0
AnchorPoint: "Anchor-16" 402 685 basechar 0
AnchorPoint: "Anchor-15" 0 0 basechar 0
AnchorPoint: "Anchor-14" 301 -227 basechar 0
LayerCount: 2
Fore
SplineSet
248 585.5 m 128,-1,1
 188 526 188 526 160.5 437.5 c 128,-1,2
 133 349 133 349 133 260 c 0,3,4
 133 152 133 152 181 97 c 128,-1,5
 229 42 229 42 309 42 c 0,6,7
 358 42 358 42 394 56.5 c 128,-1,8
 430 71 430 71 469 100 c 1,9,-1
 498 58 l 1,10,11
 416 -6 416 -6 322 -11 c 1,12,-1
 313 -64 l 1,13,14
 355 -68 355 -68 375.5 -86.5 c 128,-1,15
 396 -105 396 -105 396 -137 c 0,16,17
 396 -177 396 -177 364.5 -202 c 128,-1,18
 333 -227 333 -227 283 -227 c 0,19,20
 234 -227 234 -227 203 -205 c 1,21,-1
 224 -170 l 1,22,23
 252 -185 252 -185 283 -185 c 0,24,25
 310 -185 310 -185 327.5 -173 c 128,-1,26
 345 -161 345 -161 345 -138 c 256,27,28
 345 -115 345 -115 327 -105.5 c 128,-1,29
 309 -96 309 -96 263 -96 c 1,30,-1
 282 -10 l 1,31,32
 186 -2 186 -2 128.5 68.5 c 128,-1,33
 71 139 71 139 71 263 c 0,34,35
 71 363 71 363 105.5 463 c 128,-1,36
 140 563 140 563 214 629.5 c 128,-1,37
 288 696 288 696 399 696 c 0,38,39
 454 696 454 696 494 680 c 128,-1,40
 534 664 534 664 569 632 c 1,41,-1
 534 596 l 1,42,43
 502 622 502 622 471.5 633.5 c 128,-1,44
 441 645 441 645 401 645 c 0,45,0
 308 645 308 645 248 585.5 c 128,-1,1
EndSplineSet
Substitution2: "'c2sc' Capitals to Small Capitals lookup 27 subtable" ccedilla.sc
Substitution2: "'aalt' Access All Alternates lookup 0 subtable" ccedilla.sc
Position2: "'cpsp' Capital Spacing lookup 0 subtable" dx=5 dy=0 dh=10 dv=0
EndChar

StartChar: uniA7B3
Encoding: 42931 42931 50
Width: 504
GlyphClass: 2
Flags: W
AnchorPoint: "Anchor-18" 0 0 basechar 0
AnchorPoint: "Anchor-17" 0 0 basechar 0
AnchorPoint: "Anchor-16" 311 685 basechar 0
AnchorPoint: "Anchor-15" 0 0 basechar 0
AnchorPoint: "Anchor-14" 0 0 basechar 0
LayerCount: 2
Fore
SplineSet
527 685 m 1,0,-1
 291 314 l 1,1,-1
 441 -115 l 1,2,-1
 377 -115 l 1,3,-1
 253 273 l 1,4,-1
 26 -115 l 1,5,-1
 -43 -115 l 1,6,-1
 222 314 l 1,7,-1
 90 685 l 1,8,-1
 154 685 l 1,9,-1
 261 353 l 1,10,-1
 458 685 l 1,11,-1
 527 685 l 1,0,-1
EndSplineSet
Substitution2: "'c2sc' Capitals to Small Capitals lookup 27 subtable" uniA7B3.sc
Substitution2: "'aalt' Access All Alternates lookup 0 subtable" uniA7B3.sc
Position2: "'cpsp' Capital Spacing lookup 0 subtable" dx=5 dy=0 dh=10 dv=0
EndChar

StartChar: uni0187
Encoding: 391 391 51
Width: 550
GlyphClass: 2
Flags: W
AnchorPoint: "Anchor-18" 0 0 basechar 0
AnchorPoint: "Anchor-17" 0 0 basechar 0
AnchorPoint: "Anchor-16" 344 708 basechar 0
AnchorPoint: "Anchor-15" 0 0 basechar 0
AnchorPoint: "Anchor-14" 238 0 basechar 0
LayerCount: 2
Fore
SplineSet
758 789 m 1,1,-1
 730 753 l 1,2,3
 713 765 713 765 698 770.5 c 128,-1,4
 683 776 683 776 660 776 c 0,5,6
 627 776 627 776 605 755.5 c 128,-1,7
 583 735 583 735 577 691 c 2,8,-1
 569 632 l 1,9,-1
 538 600 l 1,10,11
 506 623 506 623 473.5 634 c 128,-1,12
 441 645 441 645 402 645 c 0,13,14
 309 645 309 645 248.5 585.5 c 128,-1,15
 188 526 188 526 160.5 437.5 c 128,-1,16
 133 349 133 349 133 260 c 0,17,18
 133 152 133 152 181 97 c 128,-1,19
 229 42 229 42 309 42 c 0,20,21
 358 42 358 42 393.5 57 c 128,-1,22
 429 72 429 72 469 101 c 1,23,-1
 498 58 l 1,24,25
 411 -11 411 -11 305 -11 c 0,26,27
 198 -11 198 -11 134.5 60.5 c 128,-1,28
 71 132 71 132 71 263 c 0,29,30
 71 363 71 363 105.5 463 c 128,-1,31
 140 563 140 563 213.5 629.5 c 128,-1,32
 287 696 287 696 397 696 c 0,33,34
 465 696 465 696 515 666 c 1,35,-1
 518 691 l 2,36,37
 528 757 528 757 564.5 790.5 c 128,-1,38
 601 824 601 824 658 824 c 0,39,0
 717 824 717 824 758 789 c 1,1,-1
EndSplineSet
Substitution2: "'c2sc' Capitals to Small Capitals lookup 27 subtable" uni0188.sc
Substitution2: "'aalt' Access All Alternates lookup 0 subtable" uni0188.sc
Position2: "'cpsp' Capital Spacing lookup 0 subtable" dx=5 dy=0 dh=10 dv=0
EndChar

StartChar: uni023B
Encoding: 571 571 52
Width: 547
GlyphClass: 2
Flags: W
AnchorPoint: "Anchor-18" 0 0 basechar 0
AnchorPoint: "Anchor-17" 0 0 basechar 0
AnchorPoint: "Anchor-16" 333 685 basechar 0
AnchorPoint: "Anchor-15" 0 0 basechar 0
AnchorPoint: "Anchor-14" 237 0 basechar 0
LayerCount: 2
Fore
SplineSet
464 636 m 1,1,-1
 231 58 l 1,2,3
 264 42 264 42 309 42 c 0,4,5
 358 42 358 42 394 56.5 c 128,-1,6
 430 71 430 71 469 100 c 1,7,-1
 498 58 l 1,8,9
 411 -11 411 -11 305 -11 c 0,10,11
 252 -11 252 -11 210 7 c 1,12,-1
 179 -70 l 1,13,-1
 145 -62 l 1,14,-1
 179 23 l 1,15,16
 128 55 128 55 99.5 116 c 128,-1,17
 71 177 71 177 71 263 c 0,18,19
 71 363 71 363 105.5 463 c 128,-1,20
 140 563 140 563 214 629.5 c 128,-1,21
 288 696 288 696 399 696 c 0,22,23
 430 696 430 696 450 692 c 1,24,-1
 472 745 l 1,25,-1
 504 736 l 1,26,-1
 483 684 l 1,27,28
 527 669 527 669 569 632 c 1,29,-1
 534 596 l 1,30,0
 498 625 498 625 464 636 c 1,1,-1
431 643 m 1,31,32
 411 645 411 645 401 645 c 0,33,34
 308 645 308 645 248 585.5 c 128,-1,35
 188 526 188 526 160.5 437.5 c 128,-1,36
 133 349 133 349 133 260 c 0,37,38
 133 132 133 132 201 77 c 1,39,-1
 431 643 l 1,31,32
EndSplineSet
Substitution2: "'c2sc' Capitals to Small Capitals lookup 27 subtable" uni023C.sc
Substitution2: "'aalt' Access All Alternates lookup 0 subtable" uni023C.sc
Position2: "'cpsp' Capital Spacing lookup 0 subtable" dx=5 dy=0 dh=10 dv=0
EndChar

StartChar: D
Encoding: 68 68 53
Width: 630
GlyphClass: 2
Flags: W
AnchorPoint: "Anchor-18" 329 343 basechar 0
AnchorPoint: "Anchor-17" 0 0 basechar 0
AnchorPoint: "Anchor-16" 358 685 basechar 0
AnchorPoint: "Anchor-15" 0 0 basechar 0
AnchorPoint: "Anchor-14" 252 0 basechar 0
LayerCount: 2
Fore
SplineSet
505.5 629.5 m 128,-1,1
 582 574 582 574 582 429 c 0,2,3
 582 314 582 314 545.5 217 c 128,-1,4
 509 120 509 120 428.5 60 c 128,-1,5
 348 0 348 0 222 0 c 2,6,-1
 73 0 l 1,7,-1
 170 685 l 1,8,-1
 304 685 l 2,9,0
 429 685 429 685 505.5 629.5 c 128,-1,1
223 635 m 1,10,-1
 141 50 l 1,11,-1
 230 50 l 2,12,13
 334 50 334 50 399 105 c 128,-1,14
 464 160 464 160 492.5 246 c 128,-1,15
 521 332 521 332 521 430 c 0,16,17
 521 551 521 551 462.5 593 c 128,-1,18
 404 635 404 635 308 635 c 2,19,-1
 223 635 l 1,10,-1
EndSplineSet
Substitution2: "'c2sc' Capitals to Small Capitals lookup 27 subtable" d.sc
Substitution2: "'aalt' Access All Alternates lookup 0 subtable" d.sc
Position2: "'cpsp' Capital Spacing lookup 0 subtable" dx=5 dy=0 dh=10 dv=0
EndChar

StartChar: Eth
Encoding: 208 208 57
Width: 635
GlyphClass: 2
Flags: W
AnchorPoint: "Anchor-18" 334 343 basechar 0
AnchorPoint: "Anchor-17" 0 0 basechar 0
AnchorPoint: "Anchor-16" 363 685 basechar 0
AnchorPoint: "Anchor-15" 0 0 basechar 0
AnchorPoint: "Anchor-14" 257 0 basechar 0
LayerCount: 2
Fore
SplineSet
510.5 629.5 m 128,-1,1
 587 574 587 574 587 429 c 0,2,3
 587 314 587 314 550.5 217 c 128,-1,4
 514 120 514 120 433.5 60 c 128,-1,5
 353 0 353 0 227 0 c 2,6,-1
 78 0 l 1,7,-1
 125 329 l 1,8,-1
 38 329 l 1,9,-1
 44 377 l 1,10,-1
 131 377 l 1,11,-1
 175 685 l 1,12,-1
 309 685 l 2,13,0
 434 685 434 685 510.5 629.5 c 128,-1,1
404 105 m 128,-1,15
 469 160 469 160 497.5 246 c 128,-1,16
 526 332 526 332 526 430 c 0,17,18
 526 551 526 551 467.5 593 c 128,-1,19
 409 635 409 635 313 635 c 2,20,-1
 228 635 l 1,21,-1
 192 377 l 1,22,-1
 369 377 l 1,23,-1
 363 329 l 1,24,-1
 185 329 l 1,25,-1
 146 50 l 1,26,-1
 235 50 l 2,27,14
 339 50 339 50 404 105 c 128,-1,15
EndSplineSet
Substitution2: "'c2sc' Capitals to Small Capitals lookup 27 subtable" eth.sc
Substitution2: "'aalt' Access All Alternates lookup 0 subtable" eth.sc
Position2: "'cpsp' Capital Spacing lookup 0 subtable" dx=5 dy=0 dh=10 dv=0
EndChar

StartChar: uni018A
Encoding: 394 394 63
Width: 690
GlyphClass: 2
Flags: W
AnchorPoint: "Anchor-18" 389 343 basechar 0
AnchorPoint: "Anchor-17" 0 0 basechar 0
AnchorPoint: "Anchor-16" 418 685 basechar 0
AnchorPoint: "Anchor-15" 0 0 basechar 0
AnchorPoint: "Anchor-14" 312 0 basechar 0
LayerCount: 2
Fore
SplineSet
565.5 629.5 m 128,-1,1
 642 574 642 574 642 429 c 0,2,3
 642 314 642 314 605.5 217 c 128,-1,4
 569 120 569 120 488.5 60 c 128,-1,5
 408 0 408 0 282 0 c 2,6,-1
 133 0 l 1,7,-1
 223 636 l 1,8,-1
 197 636 l 2,9,10
 155 636 155 636 135 614 c 128,-1,11
 115 592 115 592 115 554 c 0,12,13
 115 532 115 532 127 498 c 1,14,-1
 81 477 l 1,15,16
 70 498 70 498 64 516.5 c 128,-1,17
 58 535 58 535 58 558 c 0,18,19
 58 615 58 615 96.5 650 c 128,-1,20
 135 685 135 685 204 685 c 2,21,-1
 364 685 l 2,22,0
 489 685 489 685 565.5 629.5 c 128,-1,1
459 105 m 128,-1,24
 524 160 524 160 552.5 246 c 128,-1,25
 581 332 581 332 581 430 c 0,26,27
 581 551 581 551 522.5 593 c 128,-1,28
 464 635 464 635 368 635 c 2,29,-1
 283 635 l 1,30,-1
 201 50 l 1,31,-1
 290 50 l 2,32,23
 394 50 394 50 459 105 c 128,-1,24
EndSplineSet
Substitution2: "'c2sc' Capitals to Small Capitals lookup 27 subtable" uni0257.sc
Substitution2: "'aalt' Access All Alternates lookup 0 subtable" uni0257.sc
Position2: "'cpsp' Capital Spacing lookup 0 subtable" dx=5 dy=0 dh=10 dv=0
EndChar

StartChar: uni018B
Encoding: 395 395 65
Width: 568
GlyphClass: 2
Flags: W
AnchorPoint: "Anchor-18" 0 0 basechar 0
AnchorPoint: "Anchor-17" 0 0 basechar 0
AnchorPoint: "Anchor-16" 344 685 basechar 0
AnchorPoint: "Anchor-15" 0 0 basechar 0
AnchorPoint: "Anchor-14" 248 0 basechar 0
LayerCount: 2
Fore
SplineSet
420 0 m 1,0,-1
 245 0 l 2,1,2
 149 0 149 0 91.5 46 c 128,-1,3
 34 92 34 92 34 190 c 0,4,5
 34 298 34 298 108.5 358 c 128,-1,6
 183 418 183 418 311 418 c 2,7,-1
 420 418 l 1,8,-1
 450 634 l 1,9,-1
 168 634 l 1,10,-1
 175 685 l 1,11,-1
 517 685 l 1,12,-1
 420 0 l 1,0,-1
368 51 m 1,13,-1
 413 368 l 1,14,-1
 306 368 l 2,15,16
 205 368 205 368 150.5 321.5 c 128,-1,17
 96 275 96 275 96 189 c 0,18,19
 96 116 96 116 135 83.5 c 128,-1,20
 174 51 174 51 252 51 c 2,21,-1
 368 51 l 1,13,-1
EndSplineSet
Substitution2: "'c2sc' Capitals to Small Capitals lookup 27 subtable" uni018C.sc
Substitution2: "'aalt' Access All Alternates lookup 0 subtable" uni018C.sc
Position2: "'cpsp' Capital Spacing lookup 0 subtable" dx=5 dy=0 dh=10 dv=0
EndChar

StartChar: E
Encoding: 69 69 68
Width: 510
GlyphClass: 2
Flags: W
AnchorPoint: "Anchor-18" 0 0 basechar 0
AnchorPoint: "Anchor-17" 0 0 basechar 0
AnchorPoint: "Anchor-16" 347 685 basechar 0
AnchorPoint: "Anchor-15" 405 0 basechar 0
AnchorPoint: "Anchor-14" 248 0 basechar 0
LayerCount: 2
Fore
SplineSet
516 685 m 1,0,-1
 502 635 l 1,1,-1
 223 635 l 1,2,-1
 187 380 l 1,3,-1
 429 380 l 1,4,-1
 422 330 l 1,5,-1
 180 330 l 1,6,-1
 140 51 l 1,7,-1
 434 51 l 1,8,-1
 427 0 l 1,9,-1
 73 0 l 1,10,-1
 170 685 l 1,11,-1
 516 685 l 1,0,-1
EndSplineSet
Substitution2: "'c2sc' Capitals to Small Capitals lookup 27 subtable" e.sc
Substitution2: "'aalt' Access All Alternates lookup 0 subtable" e.sc
Position2: "'cpsp' Capital Spacing lookup 0 subtable" dx=5 dy=0 dh=10 dv=0
EndChar

StartChar: uni0228
Encoding: 552 552 72
Width: 510
GlyphClass: 2
Flags: W
AnchorPoint: "Anchor-18" 0 0 basechar 0
AnchorPoint: "Anchor-17" 0 0 basechar 0
AnchorPoint: "Anchor-16" 347 685 basechar 0
AnchorPoint: "Anchor-15" 405 0 basechar 0
AnchorPoint: "Anchor-14" 248 0 basechar 0
LayerCount: 2
Fore
SplineSet
223 635 m 1,0,-1
 187 380 l 1,1,-1
 429 380 l 1,2,-1
 422 330 l 1,3,-1
 180 330 l 1,4,-1
 140 51 l 1,5,-1
 434 51 l 1,6,-1
 427 0 l 1,7,-1
 267 0 l 1,8,-1
 256 -64 l 1,9,10
 339 -71 339 -71 339 -136 c 0,11,12
 339 -176 339 -176 307.5 -201.5 c 128,-1,13
 276 -227 276 -227 224 -227 c 0,14,15
 177 -227 177 -227 146 -205 c 1,16,-1
 167 -171 l 1,17,18
 192 -185 192 -185 226 -185 c 0,19,20
 254 -185 254 -185 271 -173 c 128,-1,21
 288 -161 288 -161 288 -138 c 256,22,23
 288 -115 288 -115 270 -105.5 c 128,-1,24
 252 -96 252 -96 206 -96 c 1,25,-1
 227 0 l 1,26,-1
 73 0 l 1,27,-1
 170 685 l 1,28,-1
 516 685 l 1,29,-1
 502 635 l 1,30,-1
 223 635 l 1,0,-1
EndSplineSet
Substitution2: "'c2sc' Capitals to Small Capitals lookup 27 subtable" uni0229.sc
Substitution2: "'aalt' Access All Alternates lookup 0 subtable" uni0229.sc
Position2: "'cpsp' Capital Spacing lookup 0 subtable" dx=5 dy=0 dh=10 dv=0
EndChar

StartChar: uni1EBE
Encoding: 7870 7870 74
Width: 510
GlyphClass: 2
Flags: W
AnchorPoint: "Anchor-18" 0 0 basechar 0
AnchorPoint: "Anchor-17" 447 721 basechar 0
AnchorPoint: "Anchor-16" 369 859 basechar 0
AnchorPoint: "Anchor-15" 405 0 basechar 0
AnchorPoint: "Anchor-14" 0 0 basechar 0
LayerCount: 2
Fore
SplineSet
568 990 m 1,0,-1
 603 952 l 1,1,-1
 468 833 l 1,2,-1
 443 858 l 1,3,-1
 568 990 l 1,0,-1
232 727 m 1,4,-1
 208 758 l 1,5,-1
 350 859 l 1,6,-1
 387 859 l 1,7,-1
 501 757 l 1,8,-1
 474 727 l 1,9,-1
 364 807 l 1,10,-1
 232 727 l 1,4,-1
516 685 m 1,11,-1
 502 635 l 1,12,-1
 223 635 l 1,13,-1
 187 380 l 1,14,-1
 429 380 l 1,15,-1
 422 330 l 1,16,-1
 180 330 l 1,17,-1
 140 51 l 1,18,-1
 434 51 l 1,19,-1
 427 0 l 1,20,-1
 73 0 l 1,21,-1
 170 685 l 1,22,-1
 516 685 l 1,11,-1
EndSplineSet
Substitution2: "'c2sc' Capitals to Small Capitals lookup 27 subtable" uni1EBF.sc
Substitution2: "'aalt' Access All Alternates lookup 0 subtable" uni1EBF.sc
Position2: "'cpsp' Capital Spacing lookup 0 subtable" dx=5 dy=0 dh=10 dv=0
EndChar

StartChar: uni1EC0
Encoding: 7872 7872 76
Width: 510
GlyphClass: 2
Flags: W
AnchorPoint: "Anchor-18" 0 0 basechar 0
AnchorPoint: "Anchor-17" 444 721 basechar 0
AnchorPoint: "Anchor-16" 366 859 basechar 0
AnchorPoint: "Anchor-15" 405 0 basechar 0
AnchorPoint: "Anchor-14" 0 0 basechar 0
LayerCount: 2
Fore
SplineSet
190 989 m 1,0,-1
 280 855 l 1,1,-1
 253 833 l 1,2,-1
 149 954 l 1,3,-1
 190 989 l 1,0,-1
229 727 m 1,4,-1
 205 758 l 1,5,-1
 347 859 l 1,6,-1
 384 859 l 1,7,-1
 498 757 l 1,8,-1
 471 727 l 1,9,-1
 361 807 l 1,10,-1
 229 727 l 1,4,-1
516 685 m 1,11,-1
 502 635 l 1,12,-1
 223 635 l 1,13,-1
 187 380 l 1,14,-1
 429 380 l 1,15,-1
 422 330 l 1,16,-1
 180 330 l 1,17,-1
 140 51 l 1,18,-1
 434 51 l 1,19,-1
 427 0 l 1,20,-1
 73 0 l 1,21,-1
 170 685 l 1,22,-1
 516 685 l 1,11,-1
EndSplineSet
Substitution2: "'c2sc' Capitals to Small Capitals lookup 27 subtable" uni1EC1.sc
Substitution2: "'aalt' Access All Alternates lookup 0 subtable" uni1EC1.sc
Position2: "'cpsp' Capital Spacing lookup 0 subtable" dx=5 dy=0 dh=10 dv=0
EndChar

StartChar: uni1EC4
Encoding: 7876 7876 78
Width: 510
GlyphClass: 2
Flags: W
AnchorPoint: "Anchor-18" 0 0 basechar 0
AnchorPoint: "Anchor-17" 444 721 basechar 0
AnchorPoint: "Anchor-16" 380 984 basechar 0
AnchorPoint: "Anchor-15" 405 0 basechar 0
AnchorPoint: "Anchor-14" 0 0 basechar 0
LayerCount: 2
Fore
SplineSet
399.5 897.5 m 128,-1,1
 385 904 385 904 366 917 c 0,2,3
 353 927 353 927 342.5 932 c 128,-1,4
 332 937 332 937 321 937 c 0,5,6
 303 937 303 937 290 927.5 c 128,-1,7
 277 918 277 918 258 895 c 1,8,-1
 225 917 l 1,9,10
 270 983 270 983 322 983 c 0,11,12
 340 983 340 983 353.5 976.5 c 128,-1,13
 367 970 367 970 386 958 c 0,14,15
 404 947 404 947 413 942.5 c 128,-1,16
 422 938 422 938 433 938 c 0,17,18
 449 938 449 938 463.5 948.5 c 128,-1,19
 478 959 478 959 495 982 c 1,20,-1
 531 961 l 1,21,22
 487 891 487 891 434 891 c 0,23,0
 414 891 414 891 399.5 897.5 c 128,-1,1
229 727 m 1,24,-1
 205 758 l 1,25,-1
 347 859 l 1,26,-1
 384 859 l 1,27,-1
 498 757 l 1,28,-1
 471 727 l 1,29,-1
 361 807 l 1,30,-1
 229 727 l 1,24,-1
516 685 m 1,31,-1
 502 635 l 1,32,-1
 223 635 l 1,33,-1
 187 380 l 1,34,-1
 429 380 l 1,35,-1
 422 330 l 1,36,-1
 180 330 l 1,37,-1
 140 51 l 1,38,-1
 434 51 l 1,39,-1
 427 0 l 1,40,-1
 73 0 l 1,41,-1
 170 685 l 1,42,-1
 516 685 l 1,31,-1
EndSplineSet
Substitution2: "'c2sc' Capitals to Small Capitals lookup 27 subtable" uni1EC5.sc
Substitution2: "'aalt' Access All Alternates lookup 0 subtable" uni1EC5.sc
Position2: "'cpsp' Capital Spacing lookup 0 subtable" dx=5 dy=0 dh=10 dv=0
EndChar

StartChar: Eogonek
Encoding: 280 280 87
Width: 510
GlyphClass: 2
Flags: W
AnchorPoint: "Anchor-18" 0 0 basechar 0
AnchorPoint: "Anchor-17" 0 0 basechar 0
AnchorPoint: "Anchor-16" 347 685 basechar 0
AnchorPoint: "Anchor-15" 405 0 basechar 0
AnchorPoint: "Anchor-14" 248 0 basechar 0
LayerCount: 2
Fore
SplineSet
223 635 m 1,0,-1
 187 380 l 1,1,-1
 429 380 l 1,2,-1
 422 330 l 1,3,-1
 180 330 l 1,4,-1
 140 51 l 1,5,-1
 434 51 l 1,6,-1
 427 0 l 1,7,-1
 396 0 l 1,8,9
 320 -32 320 -32 288 -61 c 128,-1,10
 256 -90 256 -90 256 -124 c 0,11,12
 256 -169 256 -169 311 -169 c 0,13,14
 338 -169 338 -169 370 -162 c 1,15,-1
 360 -211 l 1,16,17
 330 -217 330 -217 303 -217 c 0,18,19
 254 -217 254 -217 228 -194.5 c 128,-1,20
 202 -172 202 -172 202 -136 c 0,21,22
 202 -94 202 -94 229 -61 c 128,-1,23
 256 -28 256 -28 317 0 c 1,24,-1
 73 0 l 1,25,-1
 170 685 l 1,26,-1
 516 685 l 1,27,-1
 502 635 l 1,28,-1
 223 635 l 1,0,-1
EndSplineSet
Substitution2: "'c2sc' Capitals to Small Capitals lookup 27 subtable" eogonek.sc
Substitution2: "'aalt' Access All Alternates lookup 0 subtable" eogonek.sc
Position2: "'cpsp' Capital Spacing lookup 0 subtable" dx=5 dy=0 dh=10 dv=0
EndChar

StartChar: uni0190
Encoding: 400 400 88
Width: 519
GlyphClass: 2
Flags: W
AnchorPoint: "Anchor-18" 0 0 basechar 0
AnchorPoint: "Anchor-17" 0 0 basechar 0
AnchorPoint: "Anchor-16" 339 685 basechar 0
AnchorPoint: "Anchor-15" 0 0 basechar 0
AnchorPoint: "Anchor-14" 247 0 basechar 0
LayerCount: 2
Fore
SplineSet
438 674.5 m 128,-1,1
 485 653 485 653 526 611 c 1,2,-1
 489 577 l 1,3,4
 421 645 421 645 330 645 c 0,5,6
 258 645 258 645 214.5 605 c 128,-1,7
 171 565 171 565 171 503 c 0,8,9
 171 450 171 450 207 421 c 128,-1,10
 243 392 243 392 305 392 c 2,11,-1
 366 392 l 1,12,-1
 352 341 l 1,13,-1
 299 341 l 2,14,15
 209 342 209 342 157 297 c 128,-1,16
 105 252 105 252 105 173 c 0,17,18
 105 109 105 109 144 75 c 128,-1,19
 183 41 183 41 252 41 c 0,20,21
 353 41 353 41 438 118 c 1,22,-1
 472 80 l 1,23,24
 374 -11 374 -11 248 -11 c 0,25,26
 155 -11 155 -11 98.5 38.5 c 128,-1,27
 42 88 42 88 42 172 c 0,28,29
 42 255 42 255 92.5 308 c 128,-1,30
 143 361 143 361 221 370 c 1,31,32
 171 382 171 382 140.5 416.5 c 128,-1,33
 110 451 110 451 110 504 c 0,34,35
 110 560 110 560 138.5 603.5 c 128,-1,36
 167 647 167 647 217 671.5 c 128,-1,37
 267 696 267 696 329 696 c 256,38,0
 391 696 391 696 438 674.5 c 128,-1,1
EndSplineSet
Substitution2: "'c2sc' Capitals to Small Capitals lookup 27 subtable" uni025B.sc
Substitution2: "'aalt' Access All Alternates lookup 0 subtable" uni025B.sc
Position2: "'cpsp' Capital Spacing lookup 0 subtable" dx=5 dy=0 dh=10 dv=0
EndChar

StartChar: uni018E
Encoding: 398 398 89
Width: 510
GlyphClass: 2
Flags: W
LayerCount: 2
Fore
SplineSet
112 685 m 1,0,-1
 459 685 l 1,1,-1
 363 0 l 1,2,-1
 9 0 l 1,3,-1
 17 51 l 1,4,-1
 310 51 l 1,5,-1
 349 330 l 1,6,-1
 107 330 l 1,7,-1
 114 380 l 1,8,-1
 356 380 l 1,9,-1
 392 635 l 1,10,-1
 105 635 l 1,11,-1
 112 685 l 1,0,-1
EndSplineSet
Substitution2: "'c2sc' Capitals to Small Capitals lookup 27 subtable" uni0258.sc
Substitution2: "'aalt' Access All Alternates lookup 0 subtable" uni0258.sc
Position2: "'cpsp' Capital Spacing lookup 0 subtable" dx=5 dy=0 dh=10 dv=0
EndChar

StartChar: uni0246
Encoding: 582 582 91
Width: 510
GlyphClass: 2
Flags: W
AnchorPoint: "Anchor-18" 0 0 basechar 0
AnchorPoint: "Anchor-17" 0 0 basechar 0
AnchorPoint: "Anchor-16" 314 685 basechar 0
AnchorPoint: "Anchor-15" 405 0 basechar 0
AnchorPoint: "Anchor-14" 218 0 basechar 0
LayerCount: 2
Fore
SplineSet
502 635 m 1,0,-1
 443 635 l 1,1,-1
 340 380 l 1,2,-1
 429 380 l 1,3,-1
 422 330 l 1,4,-1
 320 330 l 1,5,-1
 208 51 l 1,6,-1
 434 51 l 1,7,-1
 427 0 l 1,8,-1
 187 0 l 1,9,-1
 159 -70 l 1,10,-1
 125 -62 l 1,11,-1
 150 0 l 1,12,-1
 73 0 l 1,13,-1
 170 685 l 1,14,-1
 428 685 l 1,15,-1
 452 745 l 1,16,-1
 484 736 l 1,17,-1
 463 685 l 1,18,-1
 516 685 l 1,19,-1
 502 635 l 1,0,-1
304 380 m 1,20,-1
 407 635 l 1,21,-1
 223 635 l 1,22,-1
 187 380 l 1,23,-1
 304 380 l 1,20,-1
171 51 m 1,24,-1
 284 330 l 1,25,-1
 180 330 l 1,26,-1
 140 51 l 1,27,-1
 171 51 l 1,24,-1
EndSplineSet
Substitution2: "'c2sc' Capitals to Small Capitals lookup 27 subtable" uni0247.sc
Substitution2: "'aalt' Access All Alternates lookup 0 subtable" uni0247.sc
Position2: "'cpsp' Capital Spacing lookup 0 subtable" dx=5 dy=0 dh=10 dv=0
EndChar

StartChar: uni01B7
Encoding: 439 439 93
Width: 493
GlyphClass: 2
Flags: W
AnchorPoint: "Anchor-18" 0 0 basechar 0
AnchorPoint: "Anchor-17" 0 0 basechar 0
AnchorPoint: "Anchor-16" 290 685 basechar 0
AnchorPoint: "Anchor-15" 0 0 basechar 0
AnchorPoint: "Anchor-14" 210 0 basechar 0
LayerCount: 2
Fore
SplineSet
474 636 m 1,0,-1
 216 386 l 1,1,-1
 236 386 l 2,2,3
 336 386 336 386 387.5 343.5 c 128,-1,4
 439 301 439 301 439 222 c 0,5,6
 439 153 439 153 406.5 100 c 128,-1,7
 374 47 374 47 316 18 c 128,-1,8
 258 -11 258 -11 185 -11 c 0,9,10
 118 -11 118 -11 71.5 11 c 128,-1,11
 25 33 25 33 -9 77 c 1,12,-1
 29 109 l 1,13,14
 60 73 60 73 96 57 c 128,-1,15
 132 41 132 41 185 41 c 0,16,17
 272 41 272 41 324 90.5 c 128,-1,18
 376 140 376 140 376 222 c 0,19,20
 376 284 376 284 337.5 311.5 c 128,-1,21
 299 339 299 339 224 339 c 2,22,-1
 138 339 l 1,23,-1
 139 340 l 1,24,-1
 145 386 l 1,25,-1
 398 634 l 1,26,-1
 92 634 l 1,27,-1
 99 685 l 1,28,-1
 480 685 l 1,29,-1
 474 636 l 1,0,-1
EndSplineSet
Substitution2: "'c2sc' Capitals to Small Capitals lookup 27 subtable" uni0292.sc
Substitution2: "'aalt' Access All Alternates lookup 0 subtable" uni0292.sc
Position2: "'cpsp' Capital Spacing lookup 0 subtable" dx=5 dy=0 dh=10 dv=0
EndChar

StartChar: uni01B8
Encoding: 440 440 95
Width: 494
GlyphClass: 2
Flags: W
AnchorPoint: "Anchor-18" 0 0 basechar 0
AnchorPoint: "Anchor-17" 0 0 basechar 0
AnchorPoint: "Anchor-16" 307 685 basechar 0
AnchorPoint: "Anchor-15" 0 0 basechar 0
AnchorPoint: "Anchor-14" 210 0 basechar 0
LayerCount: 2
Fore
SplineSet
506 634 m 1,0,-1
 195 634 l 1,1,-1
 382 386 l 1,2,-1
 376 339 l 1,3,-1
 294 339 l 2,4,5
 201 339 201 339 149 292.5 c 128,-1,6
 97 246 97 246 97 166 c 0,7,8
 97 107 97 107 132.5 74 c 128,-1,9
 168 41 168 41 234 41 c 0,10,11
 292 41 292 41 334.5 57 c 128,-1,12
 377 73 377 73 418 110 c 1,13,-1
 452 74 l 1,14,15
 406 31 406 31 353.5 10 c 128,-1,16
 301 -11 301 -11 231 -11 c 0,17,18
 142 -11 142 -11 89 37 c 128,-1,19
 36 85 36 85 36 165 c 0,20,21
 36 232 36 232 67.5 282 c 128,-1,22
 99 332 99 332 156.5 359 c 128,-1,23
 214 386 214 386 290 386 c 2,24,-1
 320 386 l 1,25,-1
 126 636 l 1,26,-1
 132 685 l 1,27,-1
 513 685 l 1,28,-1
 506 634 l 1,0,-1
EndSplineSet
Substitution2: "'c2sc' Capitals to Small Capitals lookup 27 subtable" uni01B9.sc
Substitution2: "'aalt' Access All Alternates lookup 0 subtable" uni01B9.sc
Position2: "'cpsp' Capital Spacing lookup 0 subtable" dx=5 dy=0 dh=10 dv=0
EndChar

StartChar: F
Encoding: 70 70 96
Width: 478
GlyphClass: 2
Flags: W
AnchorPoint: "Anchor-18" 0 0 basechar 0
AnchorPoint: "Anchor-17" 0 0 basechar 0
AnchorPoint: "Anchor-16" 340 685 basechar 0
AnchorPoint: "Anchor-15" 0 0 basechar 0
AnchorPoint: "Anchor-14" 104 0 basechar 0
LayerCount: 2
Fore
SplineSet
510 685 m 1,0,-1
 496 635 l 1,1,-1
 223 635 l 1,2,-1
 185 368 l 1,3,-1
 422 368 l 1,4,-1
 415 318 l 1,5,-1
 178 318 l 1,6,-1
 133 0 l 1,7,-1
 73 0 l 1,8,-1
 170 685 l 1,9,-1
 510 685 l 1,0,-1
EndSplineSet
Substitution2: "'c2sc' Capitals to Small Capitals lookup 27 subtable" f.sc
Substitution2: "'aalt' Access All Alternates lookup 0 subtable" f.sc
Position2: "'cpsp' Capital Spacing lookup 0 subtable" dx=5 dy=0 dh=10 dv=0
EndChar

StartChar: uni0191
Encoding: 401 401 98
Width: 478
GlyphClass: 2
Flags: W
AnchorPoint: "Anchor-18" 0 0 basechar 0
AnchorPoint: "Anchor-17" 0 0 basechar 0
AnchorPoint: "Anchor-16" 340 685 basechar 0
AnchorPoint: "Anchor-15" 0 0 basechar 0
AnchorPoint: "Anchor-14" 104 0 basechar 0
LayerCount: 2
Fore
SplineSet
223 635 m 1,0,-1
 185 368 l 1,1,-1
 422 368 l 1,2,-1
 415 318 l 1,3,-1
 178 318 l 1,4,-1
 133 0 l 1,5,-1
 134 0 l 1,6,-1
 123 -72 l 2,7,8
 114 -139 114 -139 76.5 -172 c 128,-1,9
 39 -205 39 -205 -18 -205 c 0,10,11
 -74 -205 -74 -205 -117 -170 c 1,12,-1
 -89 -132 l 1,13,14
 -73 -144 -73 -144 -57.5 -149.5 c 128,-1,15
 -42 -155 -42 -155 -19 -155 c 0,16,17
 13 -155 13 -155 35 -134.5 c 128,-1,18
 57 -114 57 -114 63 -70 c 2,19,-1
 74 0 l 1,20,-1
 73 0 l 1,21,-1
 170 685 l 1,22,-1
 510 685 l 1,23,-1
 496 635 l 1,24,-1
 223 635 l 1,0,-1
EndSplineSet
Substitution2: "'c2sc' Capitals to Small Capitals lookup 27 subtable" uni0191.sc
Substitution2: "'aalt' Access All Alternates lookup 0 subtable" uni0191.sc
Position2: "'cpsp' Capital Spacing lookup 0 subtable" dx=5 dy=0 dh=10 dv=0
EndChar

StartChar: G
Encoding: 71 71 99
Width: 615
GlyphClass: 2
Flags: W
AnchorPoint: "Anchor-18" 0 0 basechar 0
AnchorPoint: "Anchor-17" 0 0 basechar 0
AnchorPoint: "Anchor-16" 409 685 basechar 0
AnchorPoint: "Anchor-15" 0 0 basechar 0
AnchorPoint: "Anchor-14" 301 0 basechar 0
LayerCount: 2
Fore
SplineSet
506 679 m 128,-1,1
 550 662 550 662 589 627 c 1,2,-1
 551 593 l 1,3,4
 517 621 517 621 484 633 c 128,-1,5
 451 645 451 645 406 645 c 0,6,7
 316 645 316 645 254.5 587 c 128,-1,8
 193 529 193 529 163.5 439 c 128,-1,9
 134 349 134 349 134 253 c 0,10,11
 134 146 134 146 181 93.5 c 128,-1,12
 228 41 228 41 316 41 c 0,13,14
 394 41 394 41 463 77 c 1,15,-1
 498 319 l 1,16,-1
 366 319 l 1,17,-1
 365 370 l 1,18,-1
 564 370 l 1,19,-1
 520 47 l 1,20,21
 422 -11 422 -11 310 -11 c 256,22,23
 198 -11 198 -11 134.5 58.5 c 128,-1,24
 71 128 71 128 71 260 c 0,25,26
 71 366 71 366 108.5 466.5 c 128,-1,27
 146 567 146 567 222 631.5 c 128,-1,28
 298 696 298 696 406 696 c 0,29,0
 462 696 462 696 506 679 c 128,-1,1
EndSplineSet
Substitution2: "'c2sc' Capitals to Small Capitals lookup 27 subtable" g.sc
Substitution2: "'aalt' Access All Alternates lookup 0 subtable" g.sc
Position2: "'cpsp' Capital Spacing lookup 0 subtable" dx=5 dy=0 dh=10 dv=0
EndChar

StartChar: uni0194
Encoding: 404 404 101
Width: 544
GlyphClass: 2
Flags: W
AnchorPoint: "Anchor-18" 0 0 basechar 0
AnchorPoint: "Anchor-17" 0 0 basechar 0
AnchorPoint: "Anchor-16" 331 685 basechar 0
AnchorPoint: "Anchor-15" 0 0 basechar 0
AnchorPoint: "Anchor-14" 0 0 basechar 0
LayerCount: 2
Fore
SplineSet
278 59 m 1,0,1
 298 2 298 2 306.5 -30.5 c 128,-1,2
 315 -63 315 -63 315 -94 c 0,3,4
 315 -145 315 -145 286 -175 c 128,-1,5
 257 -205 257 -205 208 -205 c 0,6,7
 168 -205 168 -205 145.5 -183.5 c 128,-1,8
 123 -162 123 -162 123 -126 c 256,9,10
 123 -90 123 -90 142.5 -49.5 c 128,-1,11
 162 -9 162 -9 208 63 c 1,12,-1
 75 685 l 1,13,-1
 138 685 l 1,14,-1
 248 106 l 1,15,-1
 524 685 l 1,16,-1
 587 685 l 1,17,-1
 278 59 l 1,0,1
254 -45.5 m 128,-1,19
 249 -20 249 -20 237 20 c 1,20,21
 208 -29 208 -29 193.5 -62.5 c 128,-1,22
 179 -96 179 -96 179 -123 c 0,23,24
 179 -157 179 -157 210 -157 c 0,25,26
 234 -157 234 -157 246.5 -140 c 128,-1,27
 259 -123 259 -123 259 -95 c 0,28,18
 259 -71 259 -71 254 -45.5 c 128,-1,19
EndSplineSet
Substitution2: "'c2sc' Capitals to Small Capitals lookup 27 subtable" uni0194.sc
Substitution2: "'aalt' Access All Alternates lookup 0 subtable" uni0194.sc
Position2: "'cpsp' Capital Spacing lookup 0 subtable" dx=5 dy=0 dh=10 dv=0
EndChar

StartChar: uni0193
Encoding: 403 403 107
Width: 571
GlyphClass: 2
Flags: W
AnchorPoint: "Anchor-18" 0 0 basechar 0
AnchorPoint: "Anchor-17" 0 0 basechar 0
AnchorPoint: "Anchor-16" 345 685 basechar 0
AnchorPoint: "Anchor-15" 0 0 basechar 0
AnchorPoint: "Anchor-14" 249 0 basechar 0
LayerCount: 2
Fore
SplineSet
779 789 m 1,1,-1
 751 753 l 1,2,3
 734 765 734 765 719 770.5 c 128,-1,4
 704 776 704 776 681 776 c 0,5,6
 648 776 648 776 626 755.5 c 128,-1,7
 604 735 604 735 598 691 c 2,8,-1
 589 627 l 1,9,-1
 557 597 l 1,10,11
 522 621 522 621 486 633 c 128,-1,12
 450 645 450 645 406 645 c 0,13,14
 316 645 316 645 254.5 587 c 128,-1,15
 193 529 193 529 163.5 439 c 128,-1,16
 134 349 134 349 134 253 c 0,17,18
 134 146 134 146 181 93.5 c 128,-1,19
 228 41 228 41 316 41 c 0,20,21
 394 41 394 41 463 77 c 1,22,-1
 498 319 l 1,23,-1
 366 319 l 1,24,-1
 365 370 l 1,25,-1
 564 370 l 1,26,-1
 520 47 l 1,27,28
 422 -11 422 -11 310 -11 c 256,29,30
 198 -11 198 -11 134.5 58.5 c 128,-1,31
 71 128 71 128 71 260 c 0,32,33
 71 366 71 366 108.5 466.5 c 128,-1,34
 146 567 146 567 222 631.5 c 128,-1,35
 298 696 298 696 406 696 c 0,36,37
 483 696 483 696 536 663 c 1,38,-1
 539 691 l 2,39,40
 549 756 549 756 586 790 c 128,-1,41
 623 824 623 824 680 824 c 0,42,0
 738 824 738 824 779 789 c 1,1,-1
EndSplineSet
Substitution2: "'c2sc' Capitals to Small Capitals lookup 27 subtable" uni0260.sc
Substitution2: "'aalt' Access All Alternates lookup 0 subtable" uni0260.sc
Position2: "'cpsp' Capital Spacing lookup 0 subtable" dx=5 dy=0 dh=10 dv=0
EndChar

StartChar: uni0241
Encoding: 577 577 108
Width: 461
GlyphClass: 2
Flags: W
AnchorPoint: "Anchor-18" 0 0 basechar 0
AnchorPoint: "Anchor-17" 0 0 basechar 0
AnchorPoint: "Anchor-16" 290 685 basechar 0
AnchorPoint: "Anchor-15" 0 0 basechar 0
AnchorPoint: "Anchor-14" 151 0 basechar 0
LayerCount: 2
Fore
SplineSet
164 305 m 1,0,-1
 234 323 l 2,1,2
 318 344 318 344 359.5 391 c 128,-1,3
 401 438 401 438 401 517 c 0,4,5
 401 578 401 578 368.5 611.5 c 128,-1,6
 336 645 336 645 274 645 c 0,7,8
 227 645 227 645 184 627 c 128,-1,9
 141 609 141 609 96 575 c 1,10,-1
 65 614 l 1,11,12
 164 696 164 696 278 696 c 0,13,14
 365 696 365 696 415 648 c 128,-1,15
 465 600 465 600 465 520 c 0,16,17
 465 331 465 331 256 281 c 2,18,-1
 219 272 l 1,19,-1
 180 0 l 1,20,-1
 120 0 l 1,21,-1
 164 305 l 1,0,-1
EndSplineSet
Substitution2: "'c2sc' Capitals to Small Capitals lookup 27 subtable" uni0294.sc
Substitution2: "'aalt' Access All Alternates lookup 0 subtable" uni0294.sc
Position2: "'cpsp' Capital Spacing lookup 0 subtable" dx=5 dy=0 dh=10 dv=0
EndChar

StartChar: uni01E4
Encoding: 484 484 109
Width: 631
GlyphClass: 2
Flags: W
AnchorPoint: "Anchor-18" 0 0 basechar 0
AnchorPoint: "Anchor-17" 0 0 basechar 0
AnchorPoint: "Anchor-16" 375 685 basechar 0
AnchorPoint: "Anchor-15" 0 0 basechar 0
AnchorPoint: "Anchor-14" 279 0 basechar 0
LayerCount: 2
Fore
SplineSet
617 191 m 1,0,-1
 540 191 l 1,1,-1
 520 47 l 1,2,3
 422 -11 422 -11 310 -11 c 256,4,5
 198 -11 198 -11 134.5 58.5 c 128,-1,6
 71 128 71 128 71 260 c 0,7,8
 71 366 71 366 108.5 466.5 c 128,-1,9
 146 567 146 567 222 631.5 c 128,-1,10
 298 696 298 696 406 696 c 0,11,12
 462 696 462 696 506 679 c 128,-1,13
 550 662 550 662 589 627 c 1,14,-1
 551 592 l 1,15,16
 517 620 517 620 484 632.5 c 128,-1,17
 451 645 451 645 406 645 c 0,18,19
 316 645 316 645 254.5 587 c 128,-1,20
 193 529 193 529 163.5 439 c 128,-1,21
 134 349 134 349 134 253 c 0,22,23
 134 146 134 146 181 93.5 c 128,-1,24
 228 41 228 41 316 41 c 0,25,26
 394 41 394 41 463 77 c 1,27,-1
 479 191 l 1,28,-1
 353 191 l 1,29,-1
 361 242 l 1,30,-1
 487 242 l 1,31,-1
 498 319 l 1,32,-1
 366 319 l 1,33,-1
 365 370 l 1,34,-1
 564 370 l 1,35,-1
 547 242 l 1,36,-1
 624 242 l 1,37,-1
 617 191 l 1,0,-1
EndSplineSet
Substitution2: "'c2sc' Capitals to Small Capitals lookup 27 subtable" uni01E5.sc
Substitution2: "'aalt' Access All Alternates lookup 0 subtable" uni01E5.sc
Position2: "'cpsp' Capital Spacing lookup 0 subtable" dx=5 dy=0 dh=10 dv=0
EndChar

StartChar: uni021C
Encoding: 540 540 110
Width: 498
GlyphClass: 2
Flags: W
AnchorPoint: "Anchor-18" 0 0 basechar 0
AnchorPoint: "Anchor-17" 0 0 basechar 0
AnchorPoint: "Anchor-16" 309 685 basechar 0
AnchorPoint: "Anchor-15" 0 0 basechar 0
AnchorPoint: "Anchor-14" 0 0 basechar 0
LayerCount: 2
Fore
SplineSet
415.5 653.5 m 128,-1,1
 462 611 462 611 462 539 c 256,2,3
 462 467 462 467 420.5 422 c 128,-1,4
 379 377 379 377 307 359 c 1,5,6
 366 353 366 353 402.5 319 c 128,-1,7
 439 285 439 285 439 223 c 0,8,9
 439 -9 439 -9 20 -90 c 1,10,-1
 18 -40 l 1,11,12
 185 -3 185 -3 280.5 57.5 c 128,-1,13
 376 118 376 118 376 222 c 0,14,15
 376 332 376 332 225 331 c 2,16,-1
 161 331 l 1,17,-1
 176 382 l 1,18,-1
 227 382 l 2,19,20
 303 382 303 382 351.5 424.5 c 128,-1,21
 400 467 400 467 400 536 c 0,22,23
 400 588 400 588 370.5 616.5 c 128,-1,24
 341 645 341 645 284 645 c 0,25,26
 235 645 235 645 190.5 627 c 128,-1,27
 146 609 146 609 100 576 c 1,28,-1
 70 614 l 1,29,30
 123 656 123 656 175 676 c 128,-1,31
 227 696 227 696 288 696 c 0,32,0
 369 696 369 696 415.5 653.5 c 128,-1,1
EndSplineSet
Substitution2: "'c2sc' Capitals to Small Capitals lookup 27 subtable" uni021D.sc
Substitution2: "'aalt' Access All Alternates lookup 0 subtable" uni021D.sc
Position2: "'cpsp' Capital Spacing lookup 0 subtable" dx=5 dy=0 dh=10 dv=0
EndChar

StartChar: H
Encoding: 72 72 111
Width: 668
GlyphClass: 2
Flags: W
AnchorPoint: "Anchor-18" 344 343 basechar 0
AnchorPoint: "Anchor-17" 0 0 basechar 0
AnchorPoint: "Anchor-16" 392 685 basechar 0
AnchorPoint: "Anchor-15" 0 0 basechar 0
AnchorPoint: "Anchor-14" 298 0 basechar 0
LayerCount: 2
Fore
SplineSet
133 0 m 1,0,-1
 73 0 l 1,1,-1
 170 685 l 1,2,-1
 230 685 l 1,3,-1
 188 386 l 1,4,-1
 515 386 l 1,5,-1
 557 685 l 1,6,-1
 617 685 l 1,7,-1
 520 0 l 1,8,-1
 460 0 l 1,9,-1
 507 335 l 1,10,-1
 180 335 l 1,11,-1
 133 0 l 1,0,-1
EndSplineSet
Substitution2: "'c2sc' Capitals to Small Capitals lookup 27 subtable" h.sc
Substitution2: "'aalt' Access All Alternates lookup 0 subtable" h.sc
Position2: "'cpsp' Capital Spacing lookup 0 subtable" dx=5 dy=0 dh=10 dv=0
EndChar

StartChar: Hbar
Encoding: 294 294 112
Width: 666
GlyphClass: 2
Flags: W
AnchorPoint: "Anchor-18" 345 343 basechar 0
AnchorPoint: "Anchor-17" 0 0 basechar 0
AnchorPoint: "Anchor-16" 393 685 basechar 0
AnchorPoint: "Anchor-15" 0 0 basechar 0
AnchorPoint: "Anchor-14" 299 0 basechar 0
LayerCount: 2
Fore
SplineSet
663 558 m 1,0,-1
 657 513 l 1,1,-1
 594 513 l 1,2,-1
 521 0 l 1,3,-1
 461 0 l 1,4,-1
 508 335 l 1,5,-1
 181 335 l 1,6,-1
 134 0 l 1,7,-1
 74 0 l 1,8,-1
 147 513 l 1,9,-1
 83 513 l 1,10,-1
 89 558 l 1,11,-1
 153 558 l 1,12,-1
 171 685 l 1,13,-1
 231 685 l 1,14,-1
 213 558 l 1,15,-1
 540 558 l 1,16,-1
 558 685 l 1,17,-1
 618 685 l 1,18,-1
 600 558 l 1,19,-1
 663 558 l 1,0,-1
516 386 m 1,20,-1
 534 513 l 1,21,-1
 207 513 l 1,22,-1
 189 386 l 1,23,-1
 516 386 l 1,20,-1
EndSplineSet
Substitution2: "'c2sc' Capitals to Small Capitals lookup 27 subtable" hbar.sc
Substitution2: "'aalt' Access All Alternates lookup 0 subtable" hbar.sc
Position2: "'cpsp' Capital Spacing lookup 0 subtable" dx=5 dy=0 dh=10 dv=0
EndChar

StartChar: uniA7AA
Encoding: 42922 42922 116
Width: 728
GlyphClass: 2
Flags: W
AnchorPoint: "Anchor-18" 404 343 basechar 0
AnchorPoint: "Anchor-17" 0 0 basechar 0
AnchorPoint: "Anchor-16" 452 685 basechar 0
AnchorPoint: "Anchor-15" 0 0 basechar 0
AnchorPoint: "Anchor-14" 358 0 basechar 0
LayerCount: 2
Fore
SplineSet
677 685 m 1,0,-1
 580 0 l 1,1,-1
 520 0 l 1,2,-1
 567 335 l 1,3,-1
 240 335 l 1,4,-1
 193 0 l 1,5,-1
 133 0 l 1,6,-1
 223 636 l 1,7,-1
 197 636 l 2,8,9
 155 636 155 636 135 614 c 128,-1,10
 115 592 115 592 115 554 c 0,11,12
 115 532 115 532 127 498 c 1,13,-1
 81 477 l 1,14,15
 70 498 70 498 64 516.5 c 128,-1,16
 58 535 58 535 58 558 c 0,17,18
 58 615 58 615 96.5 650 c 128,-1,19
 135 685 135 685 204 685 c 2,20,-1
 290 685 l 1,21,-1
 248 386 l 1,22,-1
 575 386 l 1,23,-1
 617 685 l 1,24,-1
 677 685 l 1,0,-1
EndSplineSet
Substitution2: "'c2sc' Capitals to Small Capitals lookup 27 subtable" uniA7AA.sc
Substitution2: "'aalt' Access All Alternates lookup 0 subtable" uniA7AA.sc
Position2: "'cpsp' Capital Spacing lookup 0 subtable" dx=5 dy=0 dh=10 dv=0
EndChar

StartChar: uni01F6
Encoding: 502 502 118
Width: 959
GlyphClass: 2
Flags: W
AnchorPoint: "Anchor-18" 0 0 basechar 0
AnchorPoint: "Anchor-17" 0 0 basechar 0
AnchorPoint: "Anchor-16" 539 685 basechar 0
AnchorPoint: "Anchor-15" 0 0 basechar 0
AnchorPoint: "Anchor-14" 443 0 basechar 0
LayerCount: 2
Fore
SplineSet
519.5 29 m 128,-1,1
 482 69 482 69 482 132 c 0,2,3
 482 142 482 142 484 162 c 2,4,-1
 507 335 l 1,5,-1
 180 335 l 1,6,-1
 133 0 l 1,7,-1
 73 0 l 1,8,-1
 170 685 l 1,9,-1
 230 685 l 1,10,-1
 188 386 l 1,11,-1
 515 386 l 1,12,-1
 557 685 l 1,13,-1
 617 685 l 1,14,-1
 543 162 l 2,15,16
 541 142 541 142 541 133 c 0,17,18
 541 88 541 88 564.5 63 c 128,-1,19
 588 38 588 38 634 38 c 0,20,21
 746 38 746 38 788.5 150 c 128,-1,22
 831 262 831 262 831 420 c 0,23,24
 831 475 831 475 828 523 c 1,25,-1
 884 523 l 1,26,27
 889 465 889 465 889 413 c 0,28,29
 889 232 889 232 831 110.5 c 128,-1,30
 773 -11 773 -11 631 -11 c 0,31,0
 557 -11 557 -11 519.5 29 c 128,-1,1
EndSplineSet
Substitution2: "'c2sc' Capitals to Small Capitals lookup 27 subtable" uni01F6.sc
Substitution2: "'aalt' Access All Alternates lookup 0 subtable" uni01F6.sc
Position2: "'cpsp' Capital Spacing lookup 0 subtable" dx=5 dy=0 dh=10 dv=0
EndChar

StartChar: I
Encoding: 73 73 119
Width: 281
GlyphClass: 2
Flags: W
AnchorPoint: "Anchor-18" 0 0 basechar 0
AnchorPoint: "Anchor-17" 0 0 basechar 0
AnchorPoint: "Anchor-16" 200 685 basechar 0
AnchorPoint: "Anchor-15" 133 0 basechar 0
AnchorPoint: "Anchor-14" 103 0 basechar 0
LayerCount: 2
Fore
SplineSet
230 685 m 1,0,-1
 133 0 l 1,1,-1
 73 0 l 1,2,-1
 170 685 l 1,3,-1
 230 685 l 1,0,-1
EndSplineSet
Substitution2: "'c2sc' Capitals to Small Capitals lookup 27 subtable" i.sc
Substitution2: "'aalt' Access All Alternates lookup 0 subtable" i.sc
Position2: "'cpsp' Capital Spacing lookup 0 subtable" dx=5 dy=0 dh=10 dv=0
EndChar

StartChar: Iogonek
Encoding: 302 302 134
Width: 281
GlyphClass: 2
Flags: W
AnchorPoint: "Anchor-18" 0 0 basechar 0
AnchorPoint: "Anchor-17" 0 0 basechar 0
AnchorPoint: "Anchor-16" 200 685 basechar 0
AnchorPoint: "Anchor-15" 133 0 basechar 0
AnchorPoint: "Anchor-14" 103 0 basechar 0
LayerCount: 2
Fore
SplineSet
230 685 m 1,0,-1
 133 0 l 1,1,-1
 124 0 l 1,2,3
 48 -32 48 -32 16 -61 c 128,-1,4
 -16 -90 -16 -90 -16 -124 c 0,5,6
 -16 -169 -16 -169 39 -169 c 0,7,8
 66 -169 66 -169 98 -162 c 1,9,-1
 88 -211 l 1,10,11
 58 -217 58 -217 31 -217 c 0,12,13
 -18 -217 -18 -217 -44 -194.5 c 128,-1,14
 -70 -172 -70 -172 -70 -136 c 0,15,16
 -70 -89 -70 -89 -36 -53 c 128,-1,17
 -2 -17 -2 -17 75 12 c 1,18,-1
 170 685 l 1,19,-1
 230 685 l 1,0,-1
EndSplineSet
Substitution2: "'c2sc' Capitals to Small Capitals lookup 27 subtable" iogonek.sc
Substitution2: "'aalt' Access All Alternates lookup 0 subtable" iogonek.sc
Position2: "'cpsp' Capital Spacing lookup 0 subtable" dx=5 dy=0 dh=10 dv=0
EndChar

StartChar: uni0196
Encoding: 406 406 135
Width: 333
GlyphClass: 2
Flags: W
AnchorPoint: "Anchor-18" 0 0 basechar 0
AnchorPoint: "Anchor-17" 0 0 basechar 0
AnchorPoint: "Anchor-16" 191 685 basechar 0
AnchorPoint: "Anchor-15" 0 0 basechar 0
AnchorPoint: "Anchor-14" 130 0 basechar 0
LayerCount: 2
Fore
SplineSet
294 22 m 1,0,1
 249 -10 249 -10 189 -10 c 0,2,3
 138 -10 138 -10 108.5 17 c 128,-1,4
 79 44 79 44 79 97 c 0,5,6
 79 106 79 106 81 126 c 2,7,-1
 91 195 l 1,8,-1
 160 685 l 1,9,-1
 220 685 l 1,10,-1
 151 195 l 1,11,-1
 141 121 l 2,12,13
 139 105 139 105 139 99 c 0,14,15
 139 40 139 40 193 40 c 0,16,17
 217 40 217 40 235 46 c 128,-1,18
 253 52 253 52 272 63 c 1,19,-1
 294 22 l 1,0,1
EndSplineSet
Substitution2: "'c2sc' Capitals to Small Capitals lookup 27 subtable" uni0196.sc
Substitution2: "'aalt' Access All Alternates lookup 0 subtable" uni0196.sc
Position2: "'cpsp' Capital Spacing lookup 0 subtable" dx=5 dy=0 dh=10 dv=0
EndChar

StartChar: uni0197
Encoding: 407 407 136
Width: 316
GlyphClass: 2
Flags: W
AnchorPoint: "Anchor-18" 0 0 basechar 0
AnchorPoint: "Anchor-17" 0 0 basechar 0
AnchorPoint: "Anchor-16" 221 685 basechar 0
AnchorPoint: "Anchor-15" 154 0 basechar 0
AnchorPoint: "Anchor-14" 124 0 basechar 0
LayerCount: 2
Fore
SplineSet
308 384 m 1,0,-1
 301 335 l 1,1,-1
 201 335 l 1,2,-1
 154 0 l 1,3,-1
 94 0 l 1,4,-1
 141 335 l 1,5,-1
 37 335 l 1,6,-1
 45 384 l 1,7,-1
 148 384 l 1,8,-1
 191 685 l 1,9,-1
 251 685 l 1,10,-1
 208 384 l 1,11,-1
 308 384 l 1,0,-1
EndSplineSet
Substitution2: "'c2sc' Capitals to Small Capitals lookup 27 subtable" uni0268.sc
Substitution2: "'aalt' Access All Alternates lookup 0 subtable" uni0268.sc
Position2: "'cpsp' Capital Spacing lookup 0 subtable" dx=5 dy=0 dh=10 dv=0
EndChar

StartChar: J
Encoding: 74 74 138
Width: 289
GlyphClass: 2
Flags: W
AnchorPoint: "Anchor-18" 0 0 basechar 0
AnchorPoint: "Anchor-17" 0 0 basechar 0
AnchorPoint: "Anchor-16" 212 685 basechar 0
AnchorPoint: "Anchor-15" 0 0 basechar 0
AnchorPoint: "Anchor-14" 0 0 basechar 0
LayerCount: 2
Fore
SplineSet
160 90 m 2,0,1
 152 29 152 29 131 -9 c 128,-1,2
 110 -47 110 -47 74 -72 c 128,-1,3
 38 -97 38 -97 -23 -120 c 1,4,-1
 -36 -74 l 1,5,6
 13 -54 13 -54 40 -32.5 c 128,-1,7
 67 -11 67 -11 80.5 19 c 128,-1,8
 94 49 94 49 100 97 c 2,9,-1
 183 685 l 1,10,-1
 243 685 l 1,11,-1
 160 90 l 2,0,1
EndSplineSet
Substitution2: "'c2sc' Capitals to Small Capitals lookup 27 subtable" j.sc
Substitution2: "'aalt' Access All Alternates lookup 0 subtable" j.sc
Position2: "'cpsp' Capital Spacing lookup 0 subtable" dx=5 dy=0 dh=10 dv=0
EndChar

StartChar: uniA7B2
Encoding: 42930 42930 140
Width: 309
GlyphClass: 2
Flags: W
AnchorPoint: "Anchor-18" 0 0 basechar 0
AnchorPoint: "Anchor-17" 0 0 basechar 0
AnchorPoint: "Anchor-16" 229 685 basechar 0
AnchorPoint: "Anchor-15" 0 0 basechar 0
AnchorPoint: "Anchor-14" 0 0 basechar 0
LayerCount: 2
Fore
SplineSet
242 -89 m 1,0,1
 198 -70 198 -70 152 -58 c 1,2,3
 122 -205 122 -205 -16 -205 c 0,4,5
 -70 -205 -70 -205 -99.5 -180 c 128,-1,6
 -129 -155 -129 -155 -129 -112 c 0,7,8
 -129 -61 -129 -61 -87.5 -30.5 c 128,-1,9
 -46 0 -46 0 20 0 c 0,10,11
 61 0 61 0 101 -6 c 1,12,-1
 198 685 l 1,13,-1
 258 685 l 1,14,-1
 159 -18 l 1,15,16
 212 -30 212 -30 261 -55 c 1,17,-1
 242 -89 l 1,0,1
59.5 -134 m 128,-1,19
 84 -106 84 -106 95 -47 c 1,20,21
 64 -41 64 -41 20 -41 c 0,22,23
 -28 -41 -28 -41 -53 -60 c 128,-1,24
 -78 -79 -78 -79 -78 -110 c 0,25,26
 -78 -134 -78 -134 -61.5 -148 c 128,-1,27
 -45 -162 -45 -162 -14 -162 c 0,28,18
 35 -162 35 -162 59.5 -134 c 128,-1,19
EndSplineSet
Substitution2: "'c2sc' Capitals to Small Capitals lookup 27 subtable" uniA7B2.sc
Substitution2: "'aalt' Access All Alternates lookup 0 subtable" uniA7B2.sc
Position2: "'cpsp' Capital Spacing lookup 0 subtable" dx=5 dy=0 dh=10 dv=0
EndChar

StartChar: uni0248
Encoding: 584 584 141
Width: 302
GlyphClass: 2
Flags: W
AnchorPoint: "Anchor-18" 0 0 basechar 0
AnchorPoint: "Anchor-17" 0 0 basechar 0
AnchorPoint: "Anchor-16" 214 685 basechar 0
AnchorPoint: "Anchor-15" 0 0 basechar 0
AnchorPoint: "Anchor-14" 0 0 basechar 0
LayerCount: 2
Fore
SplineSet
295 318 m 1,0,-1
 194 318 l 1,1,-1
 162 90 l 2,2,3
 154 29 154 29 133 -9 c 128,-1,4
 112 -47 112 -47 76 -72 c 128,-1,5
 40 -97 40 -97 -21 -120 c 1,6,-1
 -34 -74 l 1,7,8
 15 -54 15 -54 42 -32.5 c 128,-1,9
 69 -11 69 -11 82.5 19 c 128,-1,10
 96 49 96 49 102 97 c 2,11,-1
 133 318 l 1,12,-1
 31 318 l 1,13,-1
 39 368 l 1,14,-1
 140 368 l 1,15,-1
 185 685 l 1,16,-1
 245 685 l 1,17,-1
 201 368 l 1,18,-1
 302 368 l 1,19,-1
 295 318 l 1,0,-1
EndSplineSet
Substitution2: "'c2sc' Capitals to Small Capitals lookup 27 subtable" uni0249.sc
Substitution2: "'aalt' Access All Alternates lookup 0 subtable" uni0249.sc
Position2: "'cpsp' Capital Spacing lookup 0 subtable" dx=5 dy=0 dh=10 dv=0
EndChar

StartChar: K
Encoding: 75 75 142
Width: 545
GlyphClass: 2
Flags: W
AnchorPoint: "Anchor-18" 0 0 basechar 0
AnchorPoint: "Anchor-17" 0 0 basechar 0
AnchorPoint: "Anchor-16" 366 685 basechar 0
AnchorPoint: "Anchor-15" 0 0 basechar 0
AnchorPoint: "Anchor-14" 269 0 basechar 0
LayerCount: 2
Fore
SplineSet
73 0 m 1,0,-1
 170 685 l 1,1,-1
 230 685 l 1,2,-1
 134 0 l 1,3,-1
 73 0 l 1,0,-1
437 0 m 1,4,-1
 189 367 l 1,5,-1
 516 685 l 1,6,-1
 588 685 l 1,7,-1
 258 365 l 1,8,-1
 508 0 l 1,9,-1
 437 0 l 1,4,-1
EndSplineSet
Substitution2: "'c2sc' Capitals to Small Capitals lookup 27 subtable" k.sc
Substitution2: "'aalt' Access All Alternates lookup 0 subtable" k.sc
Position2: "'cpsp' Capital Spacing lookup 0 subtable" dx=5 dy=0 dh=10 dv=0
EndChar

StartChar: uni0198
Encoding: 408 408 145
Width: 582
GlyphClass: 2
Flags: W
AnchorPoint: "Anchor-18" 0 0 basechar 0
AnchorPoint: "Anchor-17" 0 0 basechar 0
AnchorPoint: "Anchor-16" 351 685 basechar 0
AnchorPoint: "Anchor-15" 0 0 basechar 0
AnchorPoint: "Anchor-14" 255 0 basechar 0
LayerCount: 2
Fore
SplineSet
189 367 m 1,0,-1
 411 617 l 2,1,2
 451 662 451 662 479.5 679 c 128,-1,3
 508 696 508 696 546 696 c 0,4,5
 575 696 575 696 596 685.5 c 128,-1,6
 617 675 617 675 637 655 c 1,7,-1
 604 622 l 1,8,9
 586 635 586 635 575 640.5 c 128,-1,10
 564 646 564 646 547 646 c 0,11,12
 524 646 524 646 505 634 c 128,-1,13
 486 622 486 622 451 583 c 2,14,-1
 258 367 l 1,15,-1
 508 0 l 1,16,-1
 435 0 l 1,17,-1
 189 367 l 1,0,-1
73 0 m 1,18,-1
 170 685 l 1,19,-1
 230 685 l 1,20,-1
 134 0 l 1,21,-1
 73 0 l 1,18,-1
EndSplineSet
Substitution2: "'c2sc' Capitals to Small Capitals lookup 27 subtable" uni0199.sc
Substitution2: "'aalt' Access All Alternates lookup 0 subtable" uni0199.sc
Position2: "'cpsp' Capital Spacing lookup 0 subtable" dx=5 dy=0 dh=10 dv=0
EndChar

StartChar: L
Encoding: 76 76 146
Width: 472
GlyphClass: 2
Flags: W
AnchorPoint: "Anchor-18" 383 371 basechar 0
AnchorPoint: "Anchor-17" 263 685 basechar 0
AnchorPoint: "Anchor-16" 200 685 basechar 0
AnchorPoint: "Anchor-15" 0 0 basechar 0
AnchorPoint: "Anchor-14" 242 0 basechar 0
LayerCount: 2
Fore
SplineSet
230 685 m 1,0,-1
 141 54 l 1,1,-1
 426 54 l 1,2,-1
 410 0 l 1,3,-1
 73 0 l 1,4,-1
 170 685 l 1,5,-1
 230 685 l 1,0,-1
EndSplineSet
Substitution2: "'c2sc' Capitals to Small Capitals lookup 27 subtable" l.sc
Substitution2: "'aalt' Access All Alternates lookup 0 subtable" l.sc
Position2: "'cpsp' Capital Spacing lookup 0 subtable" dx=5 dy=0 dh=10 dv=0
EndChar

StartChar: uni023D
Encoding: 573 573 149
Width: 488
GlyphClass: 2
Flags: W
AnchorPoint: "Anchor-18" 399 371 basechar 0
AnchorPoint: "Anchor-17" 279 685 basechar 0
AnchorPoint: "Anchor-16" 216 685 basechar 0
AnchorPoint: "Anchor-15" 0 0 basechar 0
AnchorPoint: "Anchor-14" 258 0 basechar 0
LayerCount: 2
Fore
SplineSet
157 54 m 1,0,-1
 442 54 l 1,1,-1
 426 0 l 1,2,-1
 89 0 l 1,3,-1
 137 338 l 1,4,-1
 38 338 l 1,5,-1
 46 388 l 1,6,-1
 144 388 l 1,7,-1
 186 685 l 1,8,-1
 246 685 l 1,9,-1
 204 388 l 1,10,-1
 309 388 l 1,11,-1
 302 338 l 1,12,-1
 197 338 l 1,13,-1
 157 54 l 1,0,-1
EndSplineSet
Substitution2: "'c2sc' Capitals to Small Capitals lookup 27 subtable" uni019A.sc
Substitution2: "'aalt' Access All Alternates lookup 0 subtable" uni019A.sc
Position2: "'cpsp' Capital Spacing lookup 0 subtable" dx=5 dy=0 dh=10 dv=0
EndChar

StartChar: uniA7AD
Encoding: 42925 42925 150
Width: 513
GlyphClass: 2
Flags: W
AnchorPoint: "Anchor-18" 424 371 basechar 0
AnchorPoint: "Anchor-17" 304 685 basechar 0
AnchorPoint: "Anchor-16" 241 685 basechar 0
AnchorPoint: "Anchor-15" 0 0 basechar 0
AnchorPoint: "Anchor-14" 283 0 basechar 0
LayerCount: 2
Fore
SplineSet
467 54 m 1,0,-1
 451 0 l 1,1,-1
 114 0 l 1,2,-1
 152 268 l 1,3,4
 95 270 95 270 64 294 c 128,-1,5
 33 318 33 318 33 362 c 0,6,7
 33 408 33 408 64.5 435 c 128,-1,8
 96 462 96 462 145 462 c 0,9,10
 163 462 163 462 179 460 c 1,11,-1
 211 685 l 1,12,-1
 271 685 l 1,13,-1
 219 314 l 1,14,15
 266 315 266 315 335 326 c 1,16,-1
 336 284 l 1,17,18
 265 271 265 271 212 269 c 1,19,-1
 182 54 l 1,20,-1
 467 54 l 1,0,-1
173 417 m 1,21,22
 157 419 157 419 146 419 c 0,23,24
 117 419 117 419 100.5 404 c 128,-1,25
 84 389 84 389 84 363 c 256,26,27
 84 337 84 337 102.5 325.5 c 128,-1,28
 121 314 121 314 158 314 c 1,29,-1
 173 417 l 1,21,22
EndSplineSet
Substitution2: "'c2sc' Capitals to Small Capitals lookup 27 subtable" uniA7AD.sc
Substitution2: "'aalt' Access All Alternates lookup 0 subtable" uniA7AD.sc
Position2: "'cpsp' Capital Spacing lookup 0 subtable" dx=5 dy=0 dh=10 dv=0
EndChar

StartChar: Lslash
Encoding: 321 321 157
Width: 483
GlyphClass: 2
Flags: W
AnchorPoint: "Anchor-18" 394 371 basechar 0
AnchorPoint: "Anchor-17" 274 685 basechar 0
AnchorPoint: "Anchor-16" 211 685 basechar 0
AnchorPoint: "Anchor-15" 0 0 basechar 0
AnchorPoint: "Anchor-14" 253 0 basechar 0
LayerCount: 2
Fore
SplineSet
152 54 m 1,0,-1
 437 54 l 1,1,-1
 421 0 l 1,2,-1
 84 0 l 1,3,-1
 123 279 l 1,4,-1
 57 241 l 1,5,-1
 36 281 l 1,6,-1
 132 337 l 1,7,-1
 181 685 l 1,8,-1
 241 685 l 1,9,-1
 197 375 l 1,10,-1
 391 487 l 1,11,-1
 412 446 l 1,12,-1
 189 317 l 1,13,-1
 152 54 l 1,0,-1
EndSplineSet
Substitution2: "'c2sc' Capitals to Small Capitals lookup 27 subtable" lslash.sc
Substitution2: "'aalt' Access All Alternates lookup 0 subtable" lslash.sc
Position2: "'cpsp' Capital Spacing lookup 0 subtable" dx=5 dy=0 dh=10 dv=0
EndChar

StartChar: M
Encoding: 77 77 158
Width: 768
GlyphClass: 2
Flags: W
AnchorPoint: "Anchor-18" 0 0 basechar 0
AnchorPoint: "Anchor-17" 0 0 basechar 0
AnchorPoint: "Anchor-16" 439 685 basechar 0
AnchorPoint: "Anchor-15" 0 0 basechar 0
AnchorPoint: "Anchor-14" 351 0 basechar 0
LayerCount: 2
Fore
SplineSet
662 0 m 1,0,-1
 604 0 l 1,1,-1
 619 330 l 2,2,3
 625 495 625 495 635 627 c 1,4,-1
 387 81 l 1,5,-1
 330 81 l 1,6,-1
 229 626 l 1,7,8
 218 557 218 557 165 328 c 2,9,-1
 90 0 l 1,10,-1
 32 0 l 1,11,-1
 193 685 l 1,12,-1
 272 685 l 1,13,-1
 368 152 l 1,14,-1
 605 685 l 1,15,-1
 692 685 l 1,16,-1
 662 0 l 1,0,-1
EndSplineSet
Substitution2: "'c2sc' Capitals to Small Capitals lookup 27 subtable" m.sc
Substitution2: "'aalt' Access All Alternates lookup 0 subtable" m.sc
Position2: "'cpsp' Capital Spacing lookup 0 subtable" dx=5 dy=0 dh=10 dv=0
EndChar

StartChar: uni019C
Encoding: 412 412 161
Width: 924
GlyphClass: 2
Flags: W
AnchorPoint: "Anchor-18" 0 0 basechar 0
AnchorPoint: "Anchor-17" 0 0 basechar 0
AnchorPoint: "Anchor-16" 522 685 basechar 0
AnchorPoint: "Anchor-15" 0 0 basechar 0
AnchorPoint: "Anchor-14" 425 0 basechar 0
LayerCount: 2
Fore
SplineSet
873 685 m 1,0,-1
 777 0 l 1,1,-1
 725 0 l 1,2,-1
 732 91 l 1,3,4
 694 42 694 42 648 15.5 c 128,-1,5
 602 -11 602 -11 551 -11 c 0,6,7
 495 -11 495 -11 461 18 c 128,-1,8
 427 47 427 47 417 99 c 1,9,10
 327 -11 327 -11 224 -11 c 0,11,12
 158 -11 158 -11 122.5 29.5 c 128,-1,13
 87 70 87 70 87 141 c 0,14,15
 87 162 87 162 90 186 c 2,16,-1
 160 685 l 1,17,-1
 220 685 l 1,18,-1
 149 180 l 2,19,20
 146 159 146 159 146 141 c 0,21,22
 146 92 146 92 168 66.5 c 128,-1,23
 190 41 190 41 233 41 c 0,24,25
 284 41 284 41 327.5 70.5 c 128,-1,26
 371 100 371 100 413 156 c 1,27,-1
 416 186 l 1,28,-1
 486 685 l 1,29,-1
 547 685 l 1,30,-1
 476 180 l 2,31,32
 473 159 473 159 473 141 c 0,33,34
 473 92 473 92 495 66.5 c 128,-1,35
 517 41 517 41 560 41 c 0,36,37
 611 41 611 41 654.5 70 c 128,-1,38
 698 99 698 99 739 154 c 1,39,-1
 813 685 l 1,40,-1
 873 685 l 1,0,-1
EndSplineSet
Substitution2: "'c2sc' Capitals to Small Capitals lookup 27 subtable" uni026F.sc
Substitution2: "'aalt' Access All Alternates lookup 0 subtable" uni026F.sc
Position2: "'cpsp' Capital Spacing lookup 0 subtable" dx=5 dy=0 dh=10 dv=0
EndChar

StartChar: N
Encoding: 78 78 162
Width: 670
GlyphClass: 2
Flags: W
AnchorPoint: "Anchor-18" 0 0 basechar 0
AnchorPoint: "Anchor-17" 0 0 basechar 0
AnchorPoint: "Anchor-16" 404 685 basechar 0
AnchorPoint: "Anchor-15" 0 0 basechar 0
AnchorPoint: "Anchor-14" 299 0 basechar 0
LayerCount: 2
Fore
SplineSet
523 0 m 1,0,-1
 446 0 l 1,1,-1
 210 631 l 1,2,3
 207 537 207 537 184 380 c 2,4,-1
 130 0 l 1,5,-1
 73 0 l 1,6,-1
 170 685 l 1,7,-1
 248 685 l 1,8,-1
 484 56 l 1,9,10
 487 157 487 157 504 271 c 2,11,-1
 562 685 l 1,12,-1
 619 685 l 1,13,-1
 523 0 l 1,0,-1
EndSplineSet
Substitution2: "'c2sc' Capitals to Small Capitals lookup 27 subtable" n.sc
Substitution2: "'aalt' Access All Alternates lookup 0 subtable" n.sc
Position2: "'cpsp' Capital Spacing lookup 0 subtable" dx=5 dy=0 dh=10 dv=0
EndChar

StartChar: Eng
Encoding: 330 330 171
Width: 670
GlyphClass: 2
Flags: W
AnchorPoint: "Anchor-18" 0 0 basechar 0
AnchorPoint: "Anchor-17" 0 0 basechar 0
AnchorPoint: "Anchor-16" 404 685 basechar 0
AnchorPoint: "Anchor-15" 0 0 basechar 0
AnchorPoint: "Anchor-14" 299 0 basechar 0
LayerCount: 2
Fore
SplineSet
619 685 m 1,0,-1
 523 0 l 1,1,-1
 512 -72 l 2,2,3
 503 -139 503 -139 465.5 -172 c 128,-1,4
 428 -205 428 -205 371 -205 c 0,5,6
 315 -205 315 -205 272 -170 c 1,7,-1
 300 -132 l 1,8,9
 316 -144 316 -144 331.5 -149.5 c 128,-1,10
 347 -155 347 -155 370 -155 c 0,11,12
 402 -155 402 -155 424 -134.5 c 128,-1,13
 446 -114 446 -114 452 -70 c 2,14,-1
 463 0 l 1,15,-1
 446 0 l 1,16,-1
 210 631 l 1,17,18
 207 537 207 537 184 380 c 2,19,-1
 130 0 l 1,20,-1
 73 0 l 1,21,-1
 170 685 l 1,22,-1
 248 685 l 1,23,-1
 484 56 l 1,24,25
 487 157 487 157 504 271 c 2,26,-1
 562 685 l 1,27,-1
 619 685 l 1,0,-1
EndSplineSet
Substitution2: "'ss01' Style Set 1 lookup 34 subtable" Eng.ss01
Substitution2: "'salt' Stylistic Alternatives lookup 33 subtable" Eng.ss01
Substitution2: "'c2sc' Capitals to Small Capitals lookup 27 subtable" eng.sc
AlternateSubs2: "'aalt' Access All Alternates lookup 1 subtable" eng.sc Eng.ss01
Position2: "'cpsp' Capital Spacing lookup 0 subtable" dx=5 dy=0 dh=10 dv=0
EndChar

StartChar: uni019D
Encoding: 413 413 172
Width: 670
GlyphClass: 2
Flags: W
AnchorPoint: "Anchor-18" 0 0 basechar 0
AnchorPoint: "Anchor-17" 0 0 basechar 0
AnchorPoint: "Anchor-16" 404 685 basechar 0
AnchorPoint: "Anchor-15" 0 0 basechar 0
AnchorPoint: "Anchor-14" 299 0 basechar 0
LayerCount: 2
Fore
SplineSet
619 685 m 1,0,-1
 523 0 l 1,1,-1
 446 0 l 1,2,-1
 210 631 l 1,3,4
 207 537 207 537 184 380 c 2,5,-1
 130 0 l 1,6,-1
 120 -72 l 2,7,8
 111 -139 111 -139 74 -172 c 128,-1,9
 37 -205 37 -205 -18 -205 c 0,10,11
 -74 -205 -74 -205 -117 -170 c 1,12,-1
 -89 -134 l 1,13,14
 -73 -145 -73 -145 -57.5 -150.5 c 128,-1,15
 -42 -156 -42 -156 -19 -156 c 0,16,17
 13 -156 13 -156 35 -135.5 c 128,-1,18
 57 -115 57 -115 63 -70 c 2,19,-1
 73 0 l 1,20,-1
 170 685 l 1,21,-1
 248 685 l 1,22,-1
 484 56 l 1,23,24
 487 157 487 157 504 271 c 2,25,-1
 562 685 l 1,26,-1
 619 685 l 1,0,-1
EndSplineSet
Substitution2: "'ss01' Style Set 1 lookup 34 subtable" uni019D.ss01
Substitution2: "'salt' Stylistic Alternatives lookup 33 subtable" uni019D.ss01
Substitution2: "'c2sc' Capitals to Small Capitals lookup 27 subtable" uni0272.sc
AlternateSubs2: "'aalt' Access All Alternates lookup 1 subtable" uni0272.sc uni019D.ss01
Position2: "'cpsp' Capital Spacing lookup 0 subtable" dx=5 dy=0 dh=10 dv=0
EndChar

StartChar: uni0220
Encoding: 544 544 174
Width: 658
GlyphClass: 2
Flags: W
AnchorPoint: "Anchor-18" 0 0 basechar 0
AnchorPoint: "Anchor-17" 0 0 basechar 0
AnchorPoint: "Anchor-16" 391 685 basechar 0
AnchorPoint: "Anchor-15" 0 0 basechar 0
AnchorPoint: "Anchor-14" 0 0 basechar 0
LayerCount: 2
Fore
SplineSet
552 655 m 128,-1,1
 592 614 592 614 592 540 c 0,2,3
 592 520 592 520 589 497 c 2,4,-1
 492 -197 l 1,5,-1
 432 -197 l 1,6,-1
 528 489 l 2,7,8
 531 513 531 513 531 533 c 0,9,10
 531 590 531 590 505 617.5 c 128,-1,11
 479 645 479 645 426 645 c 0,12,13
 364 645 364 645 312 615 c 128,-1,14
 260 585 260 585 208 531 c 1,15,-1
 133 0 l 1,16,-1
 73 0 l 1,17,-1
 170 685 l 1,18,-1
 222 685 l 1,19,-1
 214 592 l 1,20,21
 263 641 263 641 317.5 668.5 c 128,-1,22
 372 696 372 696 436 696 c 0,23,0
 512 696 512 696 552 655 c 128,-1,1
EndSplineSet
Substitution2: "'c2sc' Capitals to Small Capitals lookup 27 subtable" uni0220.sc
Substitution2: "'aalt' Access All Alternates lookup 0 subtable" uni0220.sc
Position2: "'cpsp' Capital Spacing lookup 0 subtable" dx=5 dy=0 dh=10 dv=0
EndChar

StartChar: O
Encoding: 79 79 176
Width: 688
GlyphClass: 2
Flags: W
AnchorPoint: "Anchor-18" 0 0 basechar 0
AnchorPoint: "Anchor-17" 599 685 basechar 0
AnchorPoint: "Anchor-16" 405 685 basechar 0
AnchorPoint: "Anchor-15" 400 0 basechar 0
AnchorPoint: "Anchor-14" 306 0 basechar 0
LayerCount: 2
Fore
SplineSet
577 625.5 m 128,-1,1
 640 555 640 555 640 424 c 0,2,3
 640 324 640 324 607 224 c 128,-1,4
 574 124 574 124 499.5 56.5 c 128,-1,5
 425 -11 425 -11 309 -11 c 0,6,7
 199 -11 199 -11 135 60 c 128,-1,8
 71 131 71 131 71 262 c 0,9,10
 71 359 71 359 105 459 c 128,-1,11
 139 559 139 559 214 627.5 c 128,-1,12
 289 696 289 696 404 696 c 0,13,0
 514 696 514 696 577 625.5 c 128,-1,1
245.5 583.5 m 128,-1,15
 186 522 186 522 160 434 c 128,-1,16
 134 346 134 346 134 260 c 0,17,18
 134 150 134 150 180.5 95.5 c 128,-1,19
 227 41 227 41 310 41 c 0,20,21
 408 41 408 41 468 102.5 c 128,-1,22
 528 164 528 164 553 252 c 128,-1,23
 578 340 578 340 578 427 c 0,24,25
 578 536 578 536 532 590.5 c 128,-1,26
 486 645 486 645 401 645 c 0,27,14
 305 645 305 645 245.5 583.5 c 128,-1,15
EndSplineSet
Substitution2: "Single Substitution lookup 44 subtable" ordmasculine
Substitution2: "'c2sc' Capitals to Small Capitals lookup 27 subtable" o.sc
AlternateSubs2: "'aalt' Access All Alternates lookup 1 subtable" ordmasculine o.sc
Position2: "'cpsp' Capital Spacing lookup 0 subtable" dx=5 dy=0 dh=10 dv=0
EndChar

StartChar: uni0222
Encoding: 546 546 177
Width: 637
GlyphClass: 2
Flags: W
AnchorPoint: "Anchor-18" 0 0 basechar 0
AnchorPoint: "Anchor-17" 0 0 basechar 0
AnchorPoint: "Anchor-16" 378 685 basechar 0
AnchorPoint: "Anchor-15" 0 0 basechar 0
AnchorPoint: "Anchor-14" 282 0 basechar 0
LayerCount: 2
Fore
SplineSet
528.5 443.5 m 128,-1,1
 498 402 498 402 441 381 c 1,2,3
 501 363 501 363 532.5 323 c 128,-1,4
 564 283 564 283 564 225 c 0,5,6
 564 157 564 157 529 103.5 c 128,-1,7
 494 50 494 50 430 19.5 c 128,-1,8
 366 -11 366 -11 283 -11 c 0,9,10
 173 -11 173 -11 114 39 c 128,-1,11
 55 89 55 89 55 171 c 0,12,13
 55 249 55 249 102 304.5 c 128,-1,14
 149 360 149 360 231 383 c 1,15,16
 150 418 150 418 150 513 c 0,17,18
 150 531 150 531 153 552 c 2,19,-1
 172 685 l 1,20,-1
 232 685 l 1,21,-1
 213 551 l 2,22,23
 210 530 210 530 210 513 c 0,24,25
 210 458 210 458 241.5 431.5 c 128,-1,26
 273 405 273 405 337 405 c 0,27,28
 487 405 487 405 509 555 c 2,29,-1
 527 685 l 1,30,-1
 587 685 l 1,31,-1
 568 548 l 2,32,0
 559 485 559 485 528.5 443.5 c 128,-1,1
460.5 320 m 128,-1,34
 419 354 419 354 334 354 c 0,35,36
 235 354 235 354 176 304.5 c 128,-1,37
 117 255 117 255 117 172 c 0,38,39
 117 108 117 108 158.5 74.5 c 128,-1,40
 200 41 200 41 285 41 c 0,41,42
 386 41 386 41 444 89.5 c 128,-1,43
 502 138 502 138 502 223 c 0,44,33
 502 286 502 286 460.5 320 c 128,-1,34
EndSplineSet
Substitution2: "'c2sc' Capitals to Small Capitals lookup 27 subtable" uni0223.sc
Substitution2: "'aalt' Access All Alternates lookup 0 subtable" uni0223.sc
Position2: "'cpsp' Capital Spacing lookup 0 subtable" dx=5 dy=0 dh=10 dv=0
EndChar

StartChar: uni1ED0
Encoding: 7888 7888 183
Width: 688
GlyphClass: 2
Flags: W
AnchorPoint: "Anchor-18" 0 0 basechar 0
AnchorPoint: "Anchor-17" 505 721 basechar 0
AnchorPoint: "Anchor-16" 427 859 basechar 0
AnchorPoint: "Anchor-15" 400 0 basechar 0
AnchorPoint: "Anchor-14" 0 0 basechar 0
LayerCount: 2
Fore
SplineSet
626 990 m 1,0,-1
 661 952 l 1,1,-1
 526 833 l 1,2,-1
 501 858 l 1,3,-1
 626 990 l 1,0,-1
290 727 m 1,4,-1
 266 758 l 1,5,-1
 408 859 l 1,6,-1
 445 859 l 1,7,-1
 559 757 l 1,8,-1
 532 727 l 1,9,-1
 422 807 l 1,10,-1
 290 727 l 1,4,-1
577 625.5 m 128,-1,12
 640 555 640 555 640 424 c 0,13,14
 640 324 640 324 607 224 c 128,-1,15
 574 124 574 124 499.5 56.5 c 128,-1,16
 425 -11 425 -11 309 -11 c 0,17,18
 199 -11 199 -11 135 60 c 128,-1,19
 71 131 71 131 71 262 c 0,20,21
 71 359 71 359 105 459 c 128,-1,22
 139 559 139 559 214 627.5 c 128,-1,23
 289 696 289 696 404 696 c 0,24,11
 514 696 514 696 577 625.5 c 128,-1,12
245.5 583.5 m 128,-1,26
 186 522 186 522 160 434 c 128,-1,27
 134 346 134 346 134 260 c 0,28,29
 134 150 134 150 180.5 95.5 c 128,-1,30
 227 41 227 41 310 41 c 0,31,32
 408 41 408 41 468 102.5 c 128,-1,33
 528 164 528 164 553 252 c 128,-1,34
 578 340 578 340 578 427 c 0,35,36
 578 536 578 536 532 590.5 c 128,-1,37
 486 645 486 645 401 645 c 0,38,25
 305 645 305 645 245.5 583.5 c 128,-1,26
EndSplineSet
Substitution2: "'c2sc' Capitals to Small Capitals lookup 27 subtable" uni1ED1.sc
Substitution2: "'aalt' Access All Alternates lookup 0 subtable" uni1ED1.sc
Position2: "'cpsp' Capital Spacing lookup 0 subtable" dx=5 dy=0 dh=10 dv=0
EndChar

StartChar: uni1ED2
Encoding: 7890 7890 185
Width: 688
GlyphClass: 2
Flags: W
AnchorPoint: "Anchor-18" 0 0 basechar 0
AnchorPoint: "Anchor-17" 502 721 basechar 0
AnchorPoint: "Anchor-16" 424 859 basechar 0
AnchorPoint: "Anchor-15" 400 0 basechar 0
AnchorPoint: "Anchor-14" 0 0 basechar 0
LayerCount: 2
Fore
SplineSet
248 989 m 1,0,-1
 338 855 l 1,1,-1
 311 833 l 1,2,-1
 207 954 l 1,3,-1
 248 989 l 1,0,-1
287 727 m 1,4,-1
 263 758 l 1,5,-1
 405 859 l 1,6,-1
 442 859 l 1,7,-1
 556 757 l 1,8,-1
 529 727 l 1,9,-1
 419 807 l 1,10,-1
 287 727 l 1,4,-1
577 625.5 m 128,-1,12
 640 555 640 555 640 424 c 0,13,14
 640 324 640 324 607 224 c 128,-1,15
 574 124 574 124 499.5 56.5 c 128,-1,16
 425 -11 425 -11 309 -11 c 0,17,18
 199 -11 199 -11 135 60 c 128,-1,19
 71 131 71 131 71 262 c 0,20,21
 71 359 71 359 105 459 c 128,-1,22
 139 559 139 559 214 627.5 c 128,-1,23
 289 696 289 696 404 696 c 0,24,11
 514 696 514 696 577 625.5 c 128,-1,12
245.5 583.5 m 128,-1,26
 186 522 186 522 160 434 c 128,-1,27
 134 346 134 346 134 260 c 0,28,29
 134 150 134 150 180.5 95.5 c 128,-1,30
 227 41 227 41 310 41 c 0,31,32
 408 41 408 41 468 102.5 c 128,-1,33
 528 164 528 164 553 252 c 128,-1,34
 578 340 578 340 578 427 c 0,35,36
 578 536 578 536 532 590.5 c 128,-1,37
 486 645 486 645 401 645 c 0,38,25
 305 645 305 645 245.5 583.5 c 128,-1,26
EndSplineSet
Substitution2: "'c2sc' Capitals to Small Capitals lookup 27 subtable" uni1ED3.sc
Substitution2: "'aalt' Access All Alternates lookup 0 subtable" uni1ED3.sc
Position2: "'cpsp' Capital Spacing lookup 0 subtable" dx=5 dy=0 dh=10 dv=0
EndChar

StartChar: uni1ED6
Encoding: 7894 7894 187
Width: 688
GlyphClass: 2
Flags: W
AnchorPoint: "Anchor-18" 0 0 basechar 0
AnchorPoint: "Anchor-17" 502 721 basechar 0
AnchorPoint: "Anchor-16" 438 984 basechar 0
AnchorPoint: "Anchor-15" 400 0 basechar 0
AnchorPoint: "Anchor-14" 0 0 basechar 0
LayerCount: 2
Fore
SplineSet
457.5 897.5 m 128,-1,1
 443 904 443 904 424 917 c 0,2,3
 411 927 411 927 400.5 932 c 128,-1,4
 390 937 390 937 379 937 c 0,5,6
 361 937 361 937 348 927.5 c 128,-1,7
 335 918 335 918 316 895 c 1,8,-1
 283 917 l 1,9,10
 328 983 328 983 380 983 c 0,11,12
 398 983 398 983 411.5 976.5 c 128,-1,13
 425 970 425 970 444 958 c 0,14,15
 462 947 462 947 471 942.5 c 128,-1,16
 480 938 480 938 491 938 c 0,17,18
 507 938 507 938 521.5 948.5 c 128,-1,19
 536 959 536 959 553 982 c 1,20,-1
 589 961 l 1,21,22
 545 891 545 891 492 891 c 0,23,0
 472 891 472 891 457.5 897.5 c 128,-1,1
287 727 m 1,24,-1
 263 758 l 1,25,-1
 405 859 l 1,26,-1
 442 859 l 1,27,-1
 556 757 l 1,28,-1
 529 727 l 1,29,-1
 419 807 l 1,30,-1
 287 727 l 1,24,-1
577 625.5 m 128,-1,32
 640 555 640 555 640 424 c 0,33,34
 640 324 640 324 607 224 c 128,-1,35
 574 124 574 124 499.5 56.5 c 128,-1,36
 425 -11 425 -11 309 -11 c 0,37,38
 199 -11 199 -11 135 60 c 128,-1,39
 71 131 71 131 71 262 c 0,40,41
 71 359 71 359 105 459 c 128,-1,42
 139 559 139 559 214 627.5 c 128,-1,43
 289 696 289 696 404 696 c 0,44,31
 514 696 514 696 577 625.5 c 128,-1,32
245.5 583.5 m 128,-1,46
 186 522 186 522 160 434 c 128,-1,47
 134 346 134 346 134 260 c 0,48,49
 134 150 134 150 180.5 95.5 c 128,-1,50
 227 41 227 41 310 41 c 0,51,52
 408 41 408 41 468 102.5 c 128,-1,53
 528 164 528 164 553 252 c 128,-1,54
 578 340 578 340 578 427 c 0,55,56
 578 536 578 536 532 590.5 c 128,-1,57
 486 645 486 645 401 645 c 0,58,45
 305 645 305 645 245.5 583.5 c 128,-1,46
EndSplineSet
Substitution2: "'c2sc' Capitals to Small Capitals lookup 27 subtable" uni1ED7.sc
Substitution2: "'aalt' Access All Alternates lookup 0 subtable" uni1ED7.sc
Position2: "'cpsp' Capital Spacing lookup 0 subtable" dx=5 dy=0 dh=10 dv=0
EndChar

StartChar: Ohorn
Encoding: 416 416 196
Width: 688
GlyphClass: 2
Flags: W
AnchorPoint: "Anchor-18" 0 0 basechar 0
AnchorPoint: "Anchor-17" 651 685 basechar 0
AnchorPoint: "Anchor-16" 405 685 basechar 0
AnchorPoint: "Anchor-15" 400 0 basechar 0
AnchorPoint: "Anchor-14" 306 0 basechar 0
LayerCount: 2
Fore
SplineSet
598 597 m 1,1,2
 640 529 640 529 640 424 c 0,3,4
 640 324 640 324 607 224 c 128,-1,5
 574 124 574 124 499.5 56.5 c 128,-1,6
 425 -11 425 -11 309 -11 c 0,7,8
 199 -11 199 -11 135 60 c 128,-1,9
 71 131 71 131 71 262 c 0,10,11
 71 359 71 359 105 459 c 128,-1,12
 139 559 139 559 214 627.5 c 128,-1,13
 289 696 289 696 404 696 c 0,14,15
 510 696 510 696 572 631 c 1,16,17
 610 637 610 637 626 657 c 128,-1,18
 642 677 642 677 642 712 c 0,19,20
 642 736 642 736 635 759 c 1,21,-1
 681 768 l 1,22,23
 691 742 691 742 691 711 c 0,24,0
 691 618 691 618 598 597 c 1,1,2
468 102.5 m 128,-1,26
 528 164 528 164 553 252 c 128,-1,27
 578 340 578 340 578 427 c 0,28,29
 578 536 578 536 532 590.5 c 128,-1,30
 486 645 486 645 401 645 c 0,31,32
 305 645 305 645 245.5 583.5 c 128,-1,33
 186 522 186 522 160 434 c 128,-1,34
 134 346 134 346 134 260 c 0,35,36
 134 150 134 150 180.5 95.5 c 128,-1,37
 227 41 227 41 310 41 c 0,38,25
 408 41 408 41 468 102.5 c 128,-1,26
EndSplineSet
Substitution2: "'c2sc' Capitals to Small Capitals lookup 27 subtable" ohorn.sc
Substitution2: "'aalt' Access All Alternates lookup 0 subtable" ohorn.sc
Position2: "'cpsp' Capital Spacing lookup 0 subtable" dx=5 dy=0 dh=10 dv=0
EndChar

StartChar: uni1EDA
Encoding: 7898 7898 197
Width: 688
GlyphClass: 2
Flags: W
AnchorPoint: "Anchor-18" 0 0 basechar 0
AnchorPoint: "Anchor-17" 651 685 basechar 0
AnchorPoint: "Anchor-16" 427 888 basechar 0
AnchorPoint: "Anchor-15" 400 0 basechar 0
AnchorPoint: "Anchor-14" 306 0 basechar 0
LayerCount: 2
Fore
SplineSet
525 833 m 1,0,-1
 319 758 l 1,1,-1
 305 792 l 1,2,-1
 505 886 l 1,3,-1
 525 833 l 1,0,-1
598 597 m 1,5,6
 640 529 640 529 640 424 c 0,7,8
 640 324 640 324 607 224 c 128,-1,9
 574 124 574 124 499.5 56.5 c 128,-1,10
 425 -11 425 -11 309 -11 c 0,11,12
 199 -11 199 -11 135 60 c 128,-1,13
 71 131 71 131 71 262 c 0,14,15
 71 359 71 359 105 459 c 128,-1,16
 139 559 139 559 214 627.5 c 128,-1,17
 289 696 289 696 404 696 c 0,18,19
 510 696 510 696 572 631 c 1,20,21
 610 637 610 637 626 657 c 128,-1,22
 642 677 642 677 642 712 c 0,23,24
 642 736 642 736 635 759 c 1,25,-1
 681 768 l 1,26,27
 691 742 691 742 691 711 c 0,28,4
 691 618 691 618 598 597 c 1,5,6
468 102.5 m 128,-1,30
 528 164 528 164 553 252 c 128,-1,31
 578 340 578 340 578 427 c 0,32,33
 578 536 578 536 532 590.5 c 128,-1,34
 486 645 486 645 401 645 c 0,35,36
 305 645 305 645 245.5 583.5 c 128,-1,37
 186 522 186 522 160 434 c 128,-1,38
 134 346 134 346 134 260 c 0,39,40
 134 150 134 150 180.5 95.5 c 128,-1,41
 227 41 227 41 310 41 c 0,42,29
 408 41 408 41 468 102.5 c 128,-1,30
EndSplineSet
Substitution2: "'c2sc' Capitals to Small Capitals lookup 27 subtable" uni1EDB.sc
Substitution2: "'aalt' Access All Alternates lookup 0 subtable" uni1EDB.sc
Position2: "'cpsp' Capital Spacing lookup 0 subtable" dx=5 dy=0 dh=10 dv=0
EndChar

StartChar: uni1EE2
Encoding: 7906 7906 198
Width: 688
GlyphClass: 2
Flags: W
AnchorPoint: "Anchor-18" 0 0 basechar 0
AnchorPoint: "Anchor-17" 651 685 basechar 0
AnchorPoint: "Anchor-16" 405 685 basechar 0
AnchorPoint: "Anchor-15" 400 0 basechar 0
AnchorPoint: "Anchor-14" 288 -170 basechar 0
LayerCount: 2
Fore
SplineSet
598 597 m 1,1,2
 640 529 640 529 640 424 c 0,3,4
 640 324 640 324 607 224 c 128,-1,5
 574 124 574 124 499.5 56.5 c 128,-1,6
 425 -11 425 -11 309 -11 c 0,7,8
 199 -11 199 -11 135 60 c 128,-1,9
 71 131 71 131 71 262 c 0,10,11
 71 359 71 359 105 459 c 128,-1,12
 139 559 139 559 214 627.5 c 128,-1,13
 289 696 289 696 404 696 c 0,14,15
 510 696 510 696 572 631 c 1,16,17
 610 637 610 637 626 657 c 128,-1,18
 642 677 642 677 642 712 c 0,19,20
 642 736 642 736 635 759 c 1,21,-1
 681 768 l 1,22,23
 691 742 691 742 691 711 c 0,24,0
 691 618 691 618 598 597 c 1,1,2
468 102.5 m 128,-1,26
 528 164 528 164 553 252 c 128,-1,27
 578 340 578 340 578 427 c 0,28,29
 578 536 578 536 532 590.5 c 128,-1,30
 486 645 486 645 401 645 c 0,31,32
 305 645 305 645 245.5 583.5 c 128,-1,33
 186 522 186 522 160 434 c 128,-1,34
 134 346 134 346 134 260 c 0,35,36
 134 150 134 150 180.5 95.5 c 128,-1,37
 227 41 227 41 310 41 c 0,38,25
 408 41 408 41 468 102.5 c 128,-1,26
322 -96.5 m 128,-1,40
 333 -107 333 -107 333 -124 c 0,41,42
 333 -144 333 -144 319.5 -157 c 128,-1,43
 306 -170 306 -170 286 -170 c 0,44,45
 268 -170 268 -170 257 -159.5 c 128,-1,46
 246 -149 246 -149 246 -132 c 0,47,48
 246 -112 246 -112 259.5 -99 c 128,-1,49
 273 -86 273 -86 293 -86 c 0,50,39
 311 -86 311 -86 322 -96.5 c 128,-1,40
EndSplineSet
Substitution2: "'c2sc' Capitals to Small Capitals lookup 27 subtable" uni1EE3.sc
Substitution2: "'aalt' Access All Alternates lookup 0 subtable" uni1EE3.sc
Position2: "'cpsp' Capital Spacing lookup 0 subtable" dx=5 dy=0 dh=10 dv=0
EndChar

StartChar: uni1EDC
Encoding: 7900 7900 199
Width: 688
GlyphClass: 2
Flags: W
AnchorPoint: "Anchor-18" 0 0 basechar 0
AnchorPoint: "Anchor-17" 651 685 basechar 0
AnchorPoint: "Anchor-16" 427 888 basechar 0
AnchorPoint: "Anchor-15" 400 0 basechar 0
AnchorPoint: "Anchor-14" 306 0 basechar 0
LayerCount: 2
Fore
SplineSet
528 791 m 1,0,-1
 508 758 l 1,1,-1
 325 833 l 1,2,-1
 352 885 l 1,3,-1
 528 791 l 1,0,-1
598 597 m 1,5,6
 640 529 640 529 640 424 c 0,7,8
 640 324 640 324 607 224 c 128,-1,9
 574 124 574 124 499.5 56.5 c 128,-1,10
 425 -11 425 -11 309 -11 c 0,11,12
 199 -11 199 -11 135 60 c 128,-1,13
 71 131 71 131 71 262 c 0,14,15
 71 359 71 359 105 459 c 128,-1,16
 139 559 139 559 214 627.5 c 128,-1,17
 289 696 289 696 404 696 c 0,18,19
 510 696 510 696 572 631 c 1,20,21
 610 637 610 637 626 657 c 128,-1,22
 642 677 642 677 642 712 c 0,23,24
 642 736 642 736 635 759 c 1,25,-1
 681 768 l 1,26,27
 691 742 691 742 691 711 c 0,28,4
 691 618 691 618 598 597 c 1,5,6
468 102.5 m 128,-1,30
 528 164 528 164 553 252 c 128,-1,31
 578 340 578 340 578 427 c 0,32,33
 578 536 578 536 532 590.5 c 128,-1,34
 486 645 486 645 401 645 c 0,35,36
 305 645 305 645 245.5 583.5 c 128,-1,37
 186 522 186 522 160 434 c 128,-1,38
 134 346 134 346 134 260 c 0,39,40
 134 150 134 150 180.5 95.5 c 128,-1,41
 227 41 227 41 310 41 c 0,42,29
 408 41 408 41 468 102.5 c 128,-1,30
EndSplineSet
Substitution2: "'c2sc' Capitals to Small Capitals lookup 27 subtable" uni1EDD.sc
Substitution2: "'aalt' Access All Alternates lookup 0 subtable" uni1EDD.sc
Position2: "'cpsp' Capital Spacing lookup 0 subtable" dx=5 dy=0 dh=10 dv=0
EndChar

StartChar: uni1EDE
Encoding: 7902 7902 200
Width: 688
GlyphClass: 2
Flags: W
AnchorPoint: "Anchor-18" 0 0 basechar 0
AnchorPoint: "Anchor-17" 651 685 basechar 0
AnchorPoint: "Anchor-16" 449 977 basechar 0
AnchorPoint: "Anchor-15" 400 0 basechar 0
AnchorPoint: "Anchor-14" 306 0 basechar 0
LayerCount: 2
Fore
SplineSet
409.5 930.5 m 128,-1,1
 396 927 396 927 380 919 c 1,2,-1
 366 956 l 1,3,4
 405 977 405 977 448 977 c 0,5,6
 488 977 488 977 510.5 956.5 c 128,-1,7
 533 936 533 936 533 902 c 0,8,9
 533 867 533 867 510 846 c 128,-1,10
 487 825 487 825 447 820 c 1,11,-1
 441 774 l 1,12,-1
 394 774 l 1,13,-1
 402 847 l 1,14,15
 480 853 480 853 480 900 c 0,16,17
 480 934 480 934 440 934 c 0,18,0
 423 934 423 934 409.5 930.5 c 128,-1,1
598 597 m 1,20,21
 640 529 640 529 640 424 c 0,22,23
 640 324 640 324 607 224 c 128,-1,24
 574 124 574 124 499.5 56.5 c 128,-1,25
 425 -11 425 -11 309 -11 c 0,26,27
 199 -11 199 -11 135 60 c 128,-1,28
 71 131 71 131 71 262 c 0,29,30
 71 359 71 359 105 459 c 128,-1,31
 139 559 139 559 214 627.5 c 128,-1,32
 289 696 289 696 404 696 c 0,33,34
 510 696 510 696 572 631 c 1,35,36
 610 637 610 637 626 657 c 128,-1,37
 642 677 642 677 642 712 c 0,38,39
 642 736 642 736 635 759 c 1,40,-1
 681 768 l 1,41,42
 691 742 691 742 691 711 c 0,43,19
 691 618 691 618 598 597 c 1,20,21
468 102.5 m 128,-1,45
 528 164 528 164 553 252 c 128,-1,46
 578 340 578 340 578 427 c 0,47,48
 578 536 578 536 532 590.5 c 128,-1,49
 486 645 486 645 401 645 c 0,50,51
 305 645 305 645 245.5 583.5 c 128,-1,52
 186 522 186 522 160 434 c 128,-1,53
 134 346 134 346 134 260 c 0,54,55
 134 150 134 150 180.5 95.5 c 128,-1,56
 227 41 227 41 310 41 c 0,57,44
 408 41 408 41 468 102.5 c 128,-1,45
EndSplineSet
Substitution2: "'c2sc' Capitals to Small Capitals lookup 27 subtable" uni1EDF.sc
Substitution2: "'aalt' Access All Alternates lookup 0 subtable" uni1EDF.sc
Position2: "'cpsp' Capital Spacing lookup 0 subtable" dx=5 dy=0 dh=10 dv=0
EndChar

StartChar: uni1EE0
Encoding: 7904 7904 201
Width: 688
GlyphClass: 2
Flags: W
AnchorPoint: "Anchor-18" 0 0 basechar 0
AnchorPoint: "Anchor-17" 651 685 basechar 0
AnchorPoint: "Anchor-16" 429 885 basechar 0
AnchorPoint: "Anchor-15" 400 0 basechar 0
AnchorPoint: "Anchor-14" 306 0 basechar 0
LayerCount: 2
Fore
SplineSet
340 828.5 m 128,-1,1
 327 819 327 819 308 796 c 1,2,-1
 275 818 l 1,3,4
 320 884 320 884 372 884 c 0,5,6
 390 884 390 884 403.5 877.5 c 128,-1,7
 417 871 417 871 436 859 c 0,8,9
 454 848 454 848 463 843.5 c 128,-1,10
 472 839 472 839 483 839 c 0,11,12
 499 839 499 839 513.5 849.5 c 128,-1,13
 528 860 528 860 545 883 c 1,14,-1
 581 862 l 1,15,16
 537 792 537 792 484 792 c 0,17,18
 464 792 464 792 449.5 798.5 c 128,-1,19
 435 805 435 805 416 818 c 0,20,21
 403 828 403 828 392.5 833 c 128,-1,22
 382 838 382 838 371 838 c 0,23,0
 353 838 353 838 340 828.5 c 128,-1,1
598 597 m 1,25,26
 640 529 640 529 640 424 c 0,27,28
 640 324 640 324 607 224 c 128,-1,29
 574 124 574 124 499.5 56.5 c 128,-1,30
 425 -11 425 -11 309 -11 c 0,31,32
 199 -11 199 -11 135 60 c 128,-1,33
 71 131 71 131 71 262 c 0,34,35
 71 359 71 359 105 459 c 128,-1,36
 139 559 139 559 214 627.5 c 128,-1,37
 289 696 289 696 404 696 c 0,38,39
 510 696 510 696 572 631 c 1,40,41
 610 637 610 637 626 657 c 128,-1,42
 642 677 642 677 642 712 c 0,43,44
 642 736 642 736 635 759 c 1,45,-1
 681 768 l 1,46,47
 691 742 691 742 691 711 c 0,48,24
 691 618 691 618 598 597 c 1,25,26
468 102.5 m 128,-1,50
 528 164 528 164 553 252 c 128,-1,51
 578 340 578 340 578 427 c 0,52,53
 578 536 578 536 532 590.5 c 128,-1,54
 486 645 486 645 401 645 c 0,55,56
 305 645 305 645 245.5 583.5 c 128,-1,57
 186 522 186 522 160 434 c 128,-1,58
 134 346 134 346 134 260 c 0,59,60
 134 150 134 150 180.5 95.5 c 128,-1,61
 227 41 227 41 310 41 c 0,62,49
 408 41 408 41 468 102.5 c 128,-1,50
EndSplineSet
Substitution2: "'c2sc' Capitals to Small Capitals lookup 27 subtable" uni1EE1.sc
Substitution2: "'aalt' Access All Alternates lookup 0 subtable" uni1EE1.sc
Position2: "'cpsp' Capital Spacing lookup 0 subtable" dx=5 dy=0 dh=10 dv=0
EndChar

StartChar: uni01A2
Encoding: 418 418 203
Width: 900
GlyphClass: 2
Flags: W
AnchorPoint: "Anchor-18" 0 0 basechar 0
AnchorPoint: "Anchor-17" 0 0 basechar 0
AnchorPoint: "Anchor-16" 509 685 basechar 0
AnchorPoint: "Anchor-15" 0 0 basechar 0
AnchorPoint: "Anchor-14" 0 0 basechar 0
LayerCount: 2
Fore
SplineSet
800.5 666.5 m 128,-1,1
 832 636 832 636 832 581 c 0,2,3
 832 573 832 573 830 551 c 2,4,-1
 725 -197 l 1,5,-1
 665 -197 l 1,6,-1
 770 552 l 2,7,8
 773 569 773 569 773 582 c 0,9,10
 773 615 773 615 755.5 631.5 c 128,-1,11
 738 648 738 648 702 648 c 0,12,13
 644 648 644 648 585 616 c 1,14,15
 640 545 640 545 640 424 c 0,16,17
 640 324 640 324 607 224 c 128,-1,18
 574 124 574 124 499.5 56.5 c 128,-1,19
 425 -11 425 -11 309 -11 c 0,20,21
 199 -11 199 -11 135 60 c 128,-1,22
 71 131 71 131 71 262 c 0,23,24
 71 359 71 359 105 459 c 128,-1,25
 139 559 139 559 214 627.5 c 128,-1,26
 289 696 289 696 404 696 c 0,27,28
 495 696 495 696 553 648 c 1,29,30
 632 697 632 697 706 697 c 0,31,0
 769 697 769 697 800.5 666.5 c 128,-1,1
468 102.5 m 128,-1,33
 528 164 528 164 553 252 c 128,-1,34
 578 340 578 340 578 427 c 0,35,36
 578 536 578 536 532 590.5 c 128,-1,37
 486 645 486 645 401 645 c 0,38,39
 305 645 305 645 245.5 583.5 c 128,-1,40
 186 522 186 522 160 434 c 128,-1,41
 134 346 134 346 134 260 c 0,42,43
 134 150 134 150 180.5 95.5 c 128,-1,44
 227 41 227 41 310 41 c 0,45,32
 408 41 408 41 468 102.5 c 128,-1,33
EndSplineSet
Substitution2: "'c2sc' Capitals to Small Capitals lookup 27 subtable" uni01A3.sc
Substitution2: "'aalt' Access All Alternates lookup 0 subtable" uni01A3.sc
Position2: "'cpsp' Capital Spacing lookup 0 subtable" dx=5 dy=0 dh=10 dv=0
EndChar

StartChar: uniA7B6
Encoding: 42934 42934 208
Width: 839
GlyphClass: 2
Flags: W
AnchorPoint: "Anchor-18" 0 0 basechar 0
AnchorPoint: "Anchor-17" 0 0 basechar 0
AnchorPoint: "Anchor-16" 479 685 basechar 0
AnchorPoint: "Anchor-15" 0 0 basechar 0
AnchorPoint: "Anchor-14" 383 0 basechar 0
LayerCount: 2
Fore
SplineSet
112 37.5 m 128,-1,1
 70 86 70 86 70 193 c 0,2,3
 70 423 70 423 208 685 c 1,4,-1
 268 685 l 1,5,6
 203 564 203 564 166 435.5 c 128,-1,7
 129 307 129 307 129 191 c 0,8,9
 129 108 129 108 156 74.5 c 128,-1,10
 183 41 183 41 237 41 c 0,11,12
 293 41 293 41 330 76.5 c 128,-1,13
 367 112 367 112 379 197 c 2,14,-1
 406 397 l 1,15,-1
 466 397 l 1,16,-1
 438 193 l 2,17,18
 434 159 434 159 434 144 c 0,19,20
 434 94 434 94 456.5 67 c 128,-1,21
 479 40 479 40 530 40 c 0,22,23
 637 40 637 40 680 161 c 128,-1,24
 723 282 723 282 723 451 c 0,25,26
 723 509 723 509 715.5 562.5 c 128,-1,27
 708 616 708 616 693 685 c 1,28,-1
 751 685 l 1,29,30
 766 624 766 624 774 568.5 c 128,-1,31
 782 513 782 513 782 449 c 0,32,33
 782 251 782 251 725 120 c 128,-1,34
 668 -11 668 -11 532 -11 c 0,35,36
 468 -11 468 -11 435.5 19 c 128,-1,37
 403 49 403 49 397 109 c 1,38,39
 371 47 371 47 332 18 c 128,-1,40
 293 -11 293 -11 233 -11 c 0,41,0
 154 -11 154 -11 112 37.5 c 128,-1,1
EndSplineSet
Substitution2: "'c2sc' Capitals to Small Capitals lookup 27 subtable" uniA7B6.sc
Substitution2: "'aalt' Access All Alternates lookup 0 subtable" uniA7B6.sc
Position2: "'cpsp' Capital Spacing lookup 0 subtable" dx=5 dy=0 dh=10 dv=0
EndChar

StartChar: uni01EA
Encoding: 490 490 209
Width: 688
GlyphClass: 2
Flags: W
AnchorPoint: "Anchor-18" 0 0 basechar 0
AnchorPoint: "Anchor-17" 599 685 basechar 0
AnchorPoint: "Anchor-16" 405 685 basechar 0
AnchorPoint: "Anchor-15" 400 0 basechar 0
AnchorPoint: "Anchor-14" 306 0 basechar 0
LayerCount: 2
Fore
SplineSet
282.5 -61.5 m 128,-1,1
 251 -90 251 -90 251 -124 c 0,2,3
 251 -169 251 -169 306 -169 c 0,4,5
 333 -169 333 -169 365 -162 c 1,6,-1
 355 -211 l 1,7,8
 325 -217 325 -217 298 -217 c 0,9,10
 249 -217 249 -217 223 -194.5 c 128,-1,11
 197 -172 197 -172 197 -136 c 0,12,13
 197 -98 197 -98 219 -67 c 128,-1,14
 241 -36 241 -36 290 -10 c 1,15,16
 188 -4 188 -4 129.5 66.5 c 128,-1,17
 71 137 71 137 71 262 c 0,18,19
 71 359 71 359 105 459 c 128,-1,20
 139 559 139 559 214 627.5 c 128,-1,21
 289 696 289 696 404 696 c 0,22,23
 514 696 514 696 577 625.5 c 128,-1,24
 640 555 640 555 640 424 c 0,25,26
 640 336 640 336 614.5 247 c 128,-1,27
 589 158 589 158 532 89.5 c 128,-1,28
 475 21 475 21 387 -2 c 1,29,0
 314 -33 314 -33 282.5 -61.5 c 128,-1,1
180.5 95.5 m 128,-1,31
 227 41 227 41 310 41 c 0,32,33
 408 41 408 41 468 102.5 c 128,-1,34
 528 164 528 164 553 252 c 128,-1,35
 578 340 578 340 578 427 c 0,36,37
 578 536 578 536 532 590.5 c 128,-1,38
 486 645 486 645 401 645 c 0,39,40
 305 645 305 645 245.5 583.5 c 128,-1,41
 186 522 186 522 160 434 c 128,-1,42
 134 346 134 346 134 260 c 0,43,30
 134 150 134 150 180.5 95.5 c 128,-1,31
EndSplineSet
Substitution2: "'c2sc' Capitals to Small Capitals lookup 27 subtable" uni01EB.sc
Substitution2: "'aalt' Access All Alternates lookup 0 subtable" uni01EB.sc
Position2: "'cpsp' Capital Spacing lookup 0 subtable" dx=5 dy=0 dh=10 dv=0
EndChar

StartChar: uni01EC
Encoding: 492 492 210
Width: 688
GlyphClass: 2
Flags: W
AnchorPoint: "Anchor-18" 0 0 basechar 0
AnchorPoint: "Anchor-17" 599 685 basechar 0
AnchorPoint: "Anchor-16" 427 849 basechar 0
AnchorPoint: "Anchor-15" 400 0 basechar 0
AnchorPoint: "Anchor-14" 306 0 basechar 0
LayerCount: 2
Fore
SplineSet
549 849 m 1,0,-1
 542 802 l 1,1,-1
 302 802 l 1,2,-1
 309 849 l 1,3,-1
 549 849 l 1,0,-1
282.5 -61.5 m 128,-1,5
 251 -90 251 -90 251 -124 c 0,6,7
 251 -169 251 -169 306 -169 c 0,8,9
 333 -169 333 -169 365 -162 c 1,10,-1
 355 -211 l 1,11,12
 325 -217 325 -217 298 -217 c 0,13,14
 249 -217 249 -217 223 -194.5 c 128,-1,15
 197 -172 197 -172 197 -136 c 0,16,17
 197 -98 197 -98 219 -67 c 128,-1,18
 241 -36 241 -36 290 -10 c 1,19,20
 188 -4 188 -4 129.5 66.5 c 128,-1,21
 71 137 71 137 71 262 c 0,22,23
 71 359 71 359 105 459 c 128,-1,24
 139 559 139 559 214 627.5 c 128,-1,25
 289 696 289 696 404 696 c 0,26,27
 514 696 514 696 577 625.5 c 128,-1,28
 640 555 640 555 640 424 c 0,29,30
 640 336 640 336 614.5 247 c 128,-1,31
 589 158 589 158 532 89.5 c 128,-1,32
 475 21 475 21 387 -2 c 1,33,4
 314 -33 314 -33 282.5 -61.5 c 128,-1,5
180.5 95.5 m 128,-1,35
 227 41 227 41 310 41 c 0,36,37
 408 41 408 41 468 102.5 c 128,-1,38
 528 164 528 164 553 252 c 128,-1,39
 578 340 578 340 578 427 c 0,40,41
 578 536 578 536 532 590.5 c 128,-1,42
 486 645 486 645 401 645 c 0,43,44
 305 645 305 645 245.5 583.5 c 128,-1,45
 186 522 186 522 160 434 c 128,-1,46
 134 346 134 346 134 260 c 0,47,34
 134 150 134 150 180.5 95.5 c 128,-1,35
EndSplineSet
Substitution2: "'c2sc' Capitals to Small Capitals lookup 27 subtable" uni01ED.sc
Substitution2: "'aalt' Access All Alternates lookup 0 subtable" uni01ED.sc
Position2: "'cpsp' Capital Spacing lookup 0 subtable" dx=5 dy=0 dh=10 dv=0
EndChar

StartChar: uni0186
Encoding: 390 390 211
Width: 546
GlyphClass: 2
Flags: W
AnchorPoint: "Anchor-18" 0 0 basechar 0
AnchorPoint: "Anchor-17" 0 0 basechar 0
AnchorPoint: "Anchor-16" 283 685 basechar 0
AnchorPoint: "Anchor-15" 0 0 basechar 0
AnchorPoint: "Anchor-14" 186 0 basechar 0
LayerCount: 2
Fore
SplineSet
438 626.5 m 128,-1,1
 498 557 498 557 498 426 c 0,2,3
 498 312 498 312 459.5 211.5 c 128,-1,4
 421 111 421 111 347 50 c 128,-1,5
 273 -11 273 -11 173 -11 c 0,6,7
 114 -11 114 -11 72 8 c 128,-1,8
 30 27 30 27 -7 61 c 1,9,-1
 27 99 l 1,10,11
 63 70 63 70 94.5 56 c 128,-1,12
 126 42 126 42 172 42 c 0,13,14
 257 42 257 42 316.5 98 c 128,-1,15
 376 154 376 154 406 242 c 128,-1,16
 436 330 436 330 436 426 c 0,17,18
 436 538 436 538 391.5 591.5 c 128,-1,19
 347 645 347 645 273 645 c 0,20,21
 226 645 226 645 188.5 632.5 c 128,-1,22
 151 620 151 620 109 593 c 1,23,-1
 80 634 l 1,24,25
 124 665 124 665 170 680.5 c 128,-1,26
 216 696 216 696 278 696 c 0,27,0
 378 696 378 696 438 626.5 c 128,-1,1
EndSplineSet
Substitution2: "'c2sc' Capitals to Small Capitals lookup 27 subtable" uni0254.sc
Substitution2: "'aalt' Access All Alternates lookup 0 subtable" uni0254.sc
Position2: "'cpsp' Capital Spacing lookup 0 subtable" dx=5 dy=0 dh=10 dv=0
EndChar

StartChar: Oslash
Encoding: 216 216 212
Width: 688
GlyphClass: 2
Flags: W
AnchorPoint: "Anchor-18" 0 0 basechar 0
AnchorPoint: "Anchor-17" 0 0 basechar 0
AnchorPoint: "Anchor-16" 404 692 basechar 0
AnchorPoint: "Anchor-15" 0 0 basechar 0
AnchorPoint: "Anchor-14" 307 0 basechar 0
LayerCount: 2
Fore
SplineSet
610 575.5 m 128,-1,1
 640 514 640 514 640 424 c 0,2,3
 640 324 640 324 607 224 c 128,-1,4
 574 124 574 124 499.5 56.5 c 128,-1,5
 425 -11 425 -11 309 -11 c 0,6,7
 269 -11 269 -11 231 0 c 1,8,-1
 179 -120 l 1,9,-1
 129 -105 l 1,10,-1
 185 19 l 1,11,12
 130 50 130 50 100.5 112 c 128,-1,13
 71 174 71 174 71 262 c 0,14,15
 71 359 71 359 105 459 c 128,-1,16
 139 559 139 559 214 627.5 c 128,-1,17
 289 696 289 696 404 696 c 0,18,19
 446 696 446 696 479 686 c 1,20,-1
 532 810 l 1,21,-1
 582 796 l 1,22,-1
 524 668 l 1,23,0
 580 637 580 637 610 575.5 c 128,-1,1
212 66 m 1,25,-1
 462 637 l 1,26,27
 432 645 432 645 401 645 c 0,28,29
 305 645 305 645 245.5 583.5 c 128,-1,30
 186 522 186 522 160 433 c 128,-1,31
 134 344 134 344 134 256 c 0,32,24
 134 117 134 117 212 66 c 1,25,-1
468 102.5 m 128,-1,34
 528 164 528 164 553 253.5 c 128,-1,35
 578 343 578 343 578 432 c 0,36,37
 578 573 578 573 498 622 c 1,38,-1
 248 50 l 1,39,40
 277 41 277 41 310 41 c 0,41,33
 408 41 408 41 468 102.5 c 128,-1,34
EndSplineSet
Substitution2: "'c2sc' Capitals to Small Capitals lookup 27 subtable" oslash.sc
Substitution2: "'aalt' Access All Alternates lookup 0 subtable" oslash.sc
Position2: "'cpsp' Capital Spacing lookup 0 subtable" dx=5 dy=0 dh=10 dv=0
EndChar

StartChar: uni022C
Encoding: 556 556 216
Width: 688
GlyphClass: 2
Flags: W
AnchorPoint: "Anchor-18" 0 0 basechar 0
AnchorPoint: "Anchor-17" 599 685 basechar 0
AnchorPoint: "Anchor-16" 435 941 basechar 0
AnchorPoint: "Anchor-15" 400 0 basechar 0
AnchorPoint: "Anchor-14" 306 0 basechar 0
LayerCount: 2
Fore
SplineSet
550 894 m 1,0,-1
 310 894 l 1,1,-1
 317 941 l 1,2,-1
 557 941 l 1,3,-1
 550 894 l 1,0,-1
442.5 763.5 m 128,-1,5
 428 770 428 770 409 783 c 0,6,7
 396 793 396 793 385.5 798 c 128,-1,8
 375 803 375 803 364 803 c 0,9,10
 346 803 346 803 333 793.5 c 128,-1,11
 320 784 320 784 301 761 c 1,12,-1
 268 783 l 1,13,14
 313 849 313 849 365 849 c 0,15,16
 383 849 383 849 396.5 842.5 c 128,-1,17
 410 836 410 836 429 824 c 0,18,19
 447 813 447 813 456 808.5 c 128,-1,20
 465 804 465 804 476 804 c 0,21,22
 492 804 492 804 506.5 814.5 c 128,-1,23
 521 825 521 825 538 848 c 1,24,-1
 574 827 l 1,25,26
 530 757 530 757 477 757 c 0,27,4
 457 757 457 757 442.5 763.5 c 128,-1,5
577 625.5 m 128,-1,29
 640 555 640 555 640 424 c 0,30,31
 640 324 640 324 607 224 c 128,-1,32
 574 124 574 124 499.5 56.5 c 128,-1,33
 425 -11 425 -11 309 -11 c 0,34,35
 199 -11 199 -11 135 60 c 128,-1,36
 71 131 71 131 71 262 c 0,37,38
 71 359 71 359 105 459 c 128,-1,39
 139 559 139 559 214 627.5 c 128,-1,40
 289 696 289 696 404 696 c 0,41,28
 514 696 514 696 577 625.5 c 128,-1,29
245.5 583.5 m 128,-1,43
 186 522 186 522 160 434 c 128,-1,44
 134 346 134 346 134 260 c 0,45,46
 134 150 134 150 180.5 95.5 c 128,-1,47
 227 41 227 41 310 41 c 0,48,49
 408 41 408 41 468 102.5 c 128,-1,50
 528 164 528 164 553 252 c 128,-1,51
 578 340 578 340 578 427 c 0,52,53
 578 536 578 536 532 590.5 c 128,-1,54
 486 645 486 645 401 645 c 0,55,42
 305 645 305 645 245.5 583.5 c 128,-1,43
EndSplineSet
Substitution2: "'c2sc' Capitals to Small Capitals lookup 27 subtable" uni022D.sc
Substitution2: "'aalt' Access All Alternates lookup 0 subtable" uni022D.sc
Position2: "'cpsp' Capital Spacing lookup 0 subtable" dx=5 dy=0 dh=10 dv=0
EndChar

StartChar: OE
Encoding: 338 338 217
Width: 866
GlyphClass: 2
Flags: W
AnchorPoint: "Anchor-18" 0 0 basechar 0
AnchorPoint: "Anchor-17" 0 0 basechar 0
AnchorPoint: "Anchor-16" 495 685 basechar 0
AnchorPoint: "Anchor-15" 0 0 basechar 0
AnchorPoint: "Anchor-14" 399 0 basechar 0
LayerCount: 2
Fore
SplineSet
858 635 m 1,0,-1
 539 635 l 1,1,2
 578 603 578 603 598.5 549 c 128,-1,3
 619 495 619 495 619 423 c 0,4,5
 619 410 619 410 617 380 c 1,6,-1
 785 380 l 1,7,-1
 778 330 l 1,8,-1
 612 330 l 1,9,10
 599 245 599 245 562 171 c 128,-1,11
 525 97 525 97 462 51 c 1,12,-1
 791 51 l 1,13,-1
 783 0 l 1,14,-1
 368 0 l 1,15,16
 336 -11 336 -11 297 -11 c 0,17,18
 194 -11 194 -11 132.5 60 c 128,-1,19
 71 131 71 131 71 261 c 0,20,21
 71 356 71 356 105 457 c 128,-1,22
 139 558 139 558 210.5 627 c 128,-1,23
 282 696 282 696 390 696 c 0,24,25
 427 696 427 696 460 685 c 1,26,-1
 872 685 l 1,27,-1
 858 635 l 1,0,-1
513.5 592 m 128,-1,29
 469 645 469 645 391 645 c 0,30,31
 301 645 301 645 243 582.5 c 128,-1,32
 185 520 185 520 159 430 c 128,-1,33
 133 340 133 340 133 255 c 0,34,35
 133 149 133 149 178 95 c 128,-1,36
 223 41 223 41 299 41 c 0,37,38
 391 41 391 41 449.5 104 c 128,-1,39
 508 167 508 167 533 257.5 c 128,-1,40
 558 348 558 348 558 435 c 0,41,28
 558 539 558 539 513.5 592 c 128,-1,29
EndSplineSet
Substitution2: "'c2sc' Capitals to Small Capitals lookup 27 subtable" oe.sc
Substitution2: "'aalt' Access All Alternates lookup 0 subtable" oe.sc
Position2: "'cpsp' Capital Spacing lookup 0 subtable" dx=5 dy=0 dh=10 dv=0
EndChar

StartChar: P
Encoding: 80 80 218
Width: 567
GlyphClass: 2
Flags: W
AnchorPoint: "Anchor-18" 0 0 basechar 0
AnchorPoint: "Anchor-17" 0 0 basechar 0
AnchorPoint: "Anchor-16" 344 685 basechar 0
AnchorPoint: "Anchor-15" 0 0 basechar 0
AnchorPoint: "Anchor-14" 247 0 basechar 0
LayerCount: 2
Fore
SplineSet
498 642 m 128,-1,1
 557 599 557 599 557 512 c 0,2,3
 557 407 557 407 489.5 337 c 128,-1,4
 422 267 422 267 271 267 c 2,5,-1
 171 267 l 1,6,-1
 133 0 l 1,7,-1
 73 0 l 1,8,-1
 170 685 l 1,9,-1
 328 685 l 2,10,0
 439 685 439 685 498 642 c 128,-1,1
443.5 371.5 m 128,-1,12
 493 426 493 426 493 512 c 0,13,14
 493 578 493 578 450.5 607 c 128,-1,15
 408 636 408 636 324 636 c 2,16,-1
 223 636 l 1,17,-1
 178 317 l 1,18,-1
 274 317 l 2,19,11
 394 317 394 317 443.5 371.5 c 128,-1,12
EndSplineSet
Substitution2: "'c2sc' Capitals to Small Capitals lookup 27 subtable" p.sc
Substitution2: "'aalt' Access All Alternates lookup 0 subtable" p.sc
Position2: "'cpsp' Capital Spacing lookup 0 subtable" dx=5 dy=0 dh=10 dv=0
EndChar

StartChar: uni01A4
Encoding: 420 420 221
Width: 627
GlyphClass: 2
Flags: W
AnchorPoint: "Anchor-18" 0 0 basechar 0
AnchorPoint: "Anchor-17" 0 0 basechar 0
AnchorPoint: "Anchor-16" 404 685 basechar 0
AnchorPoint: "Anchor-15" 0 0 basechar 0
AnchorPoint: "Anchor-14" 307 0 basechar 0
LayerCount: 2
Fore
SplineSet
558 642 m 128,-1,1
 617 599 617 599 617 512 c 0,2,3
 617 407 617 407 549.5 337 c 128,-1,4
 482 267 482 267 331 267 c 2,5,-1
 231 267 l 1,6,-1
 193 0 l 1,7,-1
 133 0 l 1,8,-1
 223 636 l 1,9,-1
 197 636 l 2,10,11
 155 636 155 636 135 614 c 128,-1,12
 115 592 115 592 115 554 c 0,13,14
 115 532 115 532 127 498 c 1,15,-1
 81 477 l 1,16,17
 70 498 70 498 64 516.5 c 128,-1,18
 58 535 58 535 58 558 c 0,19,20
 58 615 58 615 96.5 650 c 128,-1,21
 135 685 135 685 204 685 c 2,22,-1
 388 685 l 2,23,0
 499 685 499 685 558 642 c 128,-1,1
503.5 371.5 m 128,-1,25
 553 426 553 426 553 512 c 0,26,27
 553 578 553 578 510.5 607 c 128,-1,28
 468 636 468 636 384 636 c 2,29,-1
 283 636 l 1,30,-1
 238 317 l 1,31,-1
 334 317 l 2,32,24
 454 317 454 317 503.5 371.5 c 128,-1,25
EndSplineSet
Substitution2: "'c2sc' Capitals to Small Capitals lookup 27 subtable" uni01A5.sc
Substitution2: "'aalt' Access All Alternates lookup 0 subtable" uni01A5.sc
Position2: "'cpsp' Capital Spacing lookup 0 subtable" dx=5 dy=0 dh=10 dv=0
EndChar

StartChar: Thorn
Encoding: 222 222 222
Width: 567
GlyphClass: 2
Flags: W
AnchorPoint: "Anchor-18" 0 0 basechar 0
AnchorPoint: "Anchor-17" 0 0 basechar 0
AnchorPoint: "Anchor-16" 343 685 basechar 0
AnchorPoint: "Anchor-15" 0 0 basechar 0
AnchorPoint: "Anchor-14" 247 0 basechar 0
LayerCount: 2
Fore
SplineSet
539 385 m 0,1,2
 539 321 539 321 512 264.5 c 128,-1,3
 485 208 485 208 421 172 c 128,-1,4
 357 136 357 136 252 136 c 2,5,-1
 152 136 l 1,6,-1
 133 0 l 1,7,-1
 73 0 l 1,8,-1
 170 685 l 1,9,-1
 230 685 l 1,10,-1
 213 563 l 1,11,-1
 311 563 l 2,12,0
 539 563 539 563 539 385 c 0,1,2
425 242.5 m 128,-1,14
 476 299 476 299 476 384 c 0,15,16
 476 454 476 454 434 483.5 c 128,-1,17
 392 513 392 513 308 513 c 2,18,-1
 206 513 l 1,19,-1
 159 186 l 1,20,-1
 256 186 l 2,21,13
 374 186 374 186 425 242.5 c 128,-1,14
EndSplineSet
Substitution2: "'c2sc' Capitals to Small Capitals lookup 27 subtable" thorn.sc
Substitution2: "'aalt' Access All Alternates lookup 0 subtable" thorn.sc
Position2: "'cpsp' Capital Spacing lookup 0 subtable" dx=5 dy=0 dh=10 dv=0
EndChar

StartChar: Q
Encoding: 81 81 223
Width: 678
GlyphClass: 2
Flags: W
AnchorPoint: "Anchor-18" 0 0 basechar 0
AnchorPoint: "Anchor-17" 0 0 basechar 0
AnchorPoint: "Anchor-16" 399 685 basechar 0
AnchorPoint: "Anchor-15" 0 0 basechar 0
AnchorPoint: "Anchor-14" 302 0 basechar 0
LayerCount: 2
Fore
SplineSet
618.5 262 m 128,-1,1
 597 180 597 180 549 114.5 c 128,-1,2
 501 49 501 49 426 22 c 1,3,4
 480 20 480 20 525.5 3 c 128,-1,5
 571 -14 571 -14 605 -45 c 1,6,-1
 561 -93 l 1,7,8
 514 -46 514 -46 458.5 -28.5 c 128,-1,9
 403 -11 403 -11 309 -11 c 0,10,11
 199 -11 199 -11 135 60 c 128,-1,12
 71 131 71 131 71 262 c 0,13,14
 71 359 71 359 105 459 c 128,-1,15
 139 559 139 559 214 627.5 c 128,-1,16
 289 696 289 696 404 696 c 0,17,18
 514 696 514 696 577 625.5 c 128,-1,19
 640 555 640 555 640 424 c 0,20,0
 640 344 640 344 618.5 262 c 128,-1,1
180.5 95 m 128,-1,22
 227 41 227 41 310 41 c 0,23,24
 408 41 408 41 468 102.5 c 128,-1,25
 528 164 528 164 553 253.5 c 128,-1,26
 578 343 578 343 578 432 c 0,27,28
 578 538 578 538 531.5 591.5 c 128,-1,29
 485 645 485 645 401 645 c 0,30,31
 305 645 305 645 245.5 583.5 c 128,-1,32
 186 522 186 522 160 433 c 128,-1,33
 134 344 134 344 134 256 c 0,34,21
 134 149 134 149 180.5 95 c 128,-1,22
EndSplineSet
Substitution2: "'c2sc' Capitals to Small Capitals lookup 27 subtable" q.sc
Substitution2: "'aalt' Access All Alternates lookup 0 subtable" q.sc
Position2: "'cpsp' Capital Spacing lookup 0 subtable" dx=5 dy=0 dh=10 dv=0
EndChar

StartChar: uni024A
Encoding: 586 586 224
Width: 660
GlyphClass: 2
Flags: W
AnchorPoint: "Anchor-18" 0 0 basechar 0
AnchorPoint: "Anchor-17" 0 0 basechar 0
AnchorPoint: "Anchor-16" 389 685 basechar 0
AnchorPoint: "Anchor-15" 0 0 basechar 0
AnchorPoint: "Anchor-14" 0 0 basechar 0
LayerCount: 2
Fore
SplineSet
653 -173 m 1,0,1
 608 -205 608 -205 548 -205 c 0,2,3
 497 -205 497 -205 467.5 -178 c 128,-1,4
 438 -151 438 -151 438 -98 c 0,5,6
 438 -89 438 -89 440 -69 c 2,7,-1
 450 0 l 1,8,-1
 458 60 l 1,9,10
 389 -11 389 -11 288 -11 c 0,11,12
 189 -11 189 -11 129.5 57.5 c 128,-1,13
 70 126 70 126 70 253 c 0,14,15
 70 362 70 362 108 464.5 c 128,-1,16
 146 567 146 567 217 631.5 c 128,-1,17
 288 696 288 696 382 696 c 0,18,19
 477 696 477 696 539 623 c 1,20,-1
 553 685 l 1,21,-1
 606 685 l 1,22,-1
 510 0 l 1,23,-1
 500 -74 l 2,24,25
 498 -90 498 -90 498 -96 c 0,26,27
 498 -155 498 -155 552 -155 c 0,28,29
 576 -155 576 -155 594 -149 c 128,-1,30
 612 -143 612 -143 631 -132 c 1,31,-1
 653 -173 l 1,0,1
466 116 m 1,33,-1
 530 573 l 1,34,35
 473 645 473 645 383 645 c 0,36,37
 304 645 304 645 247 585.5 c 128,-1,38
 190 526 190 526 161 434 c 128,-1,39
 132 342 132 342 132 249 c 0,40,41
 132 144 132 144 176 92.5 c 128,-1,42
 220 41 220 41 294 41 c 0,43,32
 393 41 393 41 466 116 c 1,33,-1
EndSplineSet
Substitution2: "'c2sc' Capitals to Small Capitals lookup 27 subtable" uni024B.sc
Substitution2: "'aalt' Access All Alternates lookup 0 subtable" uni024B.sc
Position2: "'cpsp' Capital Spacing lookup 0 subtable" dx=5 dy=0 dh=10 dv=0
EndChar

StartChar: R
Encoding: 82 82 225
Width: 587
GlyphClass: 2
Flags: W
AnchorPoint: "Anchor-18" 0 0 basechar 0
AnchorPoint: "Anchor-17" 0 0 basechar 0
AnchorPoint: "Anchor-16" 352 685 basechar 0
AnchorPoint: "Anchor-15" 0 0 basechar 0
AnchorPoint: "Anchor-14" 268 0 basechar 0
LayerCount: 2
Fore
SplineSet
510 395 m 128,-1,1
 466 337 466 337 373 316 c 1,2,-1
 517 0 l 1,3,-1
 450 0 l 1,4,-1
 314 307 l 1,5,-1
 176 307 l 1,6,-1
 133 0 l 1,7,-1
 73 0 l 1,8,-1
 170 685 l 1,9,-1
 338 685 l 2,10,11
 554 685 554 685 554 524 c 0,12,0
 554 453 554 453 510 395 c 128,-1,1
302 356 m 2,13,14
 402 356 402 356 446.5 406 c 128,-1,15
 491 456 491 456 491 524 c 0,16,17
 491 582 491 582 453.5 609 c 128,-1,18
 416 636 416 636 334 636 c 2,19,-1
 223 636 l 1,20,-1
 183 356 l 1,21,-1
 302 356 l 2,13,14
EndSplineSet
Substitution2: "'c2sc' Capitals to Small Capitals lookup 27 subtable" r.sc
Substitution2: "'aalt' Access All Alternates lookup 0 subtable" r.sc
Position2: "'cpsp' Capital Spacing lookup 0 subtable" dx=5 dy=0 dh=10 dv=0
EndChar

StartChar: uni024C
Encoding: 588 588 232
Width: 596
GlyphClass: 2
Flags: W
AnchorPoint: "Anchor-18" 0 0 basechar 0
AnchorPoint: "Anchor-17" 0 0 basechar 0
AnchorPoint: "Anchor-16" 361 685 basechar 0
AnchorPoint: "Anchor-15" 0 0 basechar 0
AnchorPoint: "Anchor-14" 277 0 basechar 0
LayerCount: 2
Fore
SplineSet
519 395 m 128,-1,1
 475 337 475 337 382 316 c 1,2,-1
 526 0 l 1,3,-1
 459 0 l 1,4,-1
 323 307 l 1,5,-1
 185 307 l 1,6,-1
 142 0 l 1,7,-1
 82 0 l 1,8,-1
 125 307 l 1,9,-1
 35 307 l 1,10,-1
 42 356 l 1,11,-1
 132 356 l 1,12,-1
 179 685 l 1,13,-1
 347 685 l 2,14,15
 563 685 563 685 563 524 c 0,16,0
 563 453 563 453 519 395 c 128,-1,1
455.5 406 m 128,-1,18
 500 456 500 456 500 524 c 0,19,20
 500 582 500 582 462.5 609 c 128,-1,21
 425 636 425 636 343 636 c 2,22,-1
 232 636 l 1,23,-1
 192 356 l 1,24,-1
 311 356 l 2,25,17
 411 356 411 356 455.5 406 c 128,-1,18
EndSplineSet
Substitution2: "'c2sc' Capitals to Small Capitals lookup 27 subtable" uni024D.sc
Substitution2: "'aalt' Access All Alternates lookup 0 subtable" uni024D.sc
Position2: "'cpsp' Capital Spacing lookup 0 subtable" dx=5 dy=0 dh=10 dv=0
EndChar

StartChar: uni2C64
Encoding: 11364 11364 233
Width: 587
GlyphClass: 2
Flags: W
AnchorPoint: "Anchor-18" 0 0 basechar 0
AnchorPoint: "Anchor-17" 0 0 basechar 0
AnchorPoint: "Anchor-16" 352 685 basechar 0
AnchorPoint: "Anchor-15" 0 0 basechar 0
AnchorPoint: "Anchor-14" 268 0 basechar 0
LayerCount: 2
Fore
SplineSet
510 395 m 128,-1,1
 466 337 466 337 373 316 c 1,2,-1
 517 0 l 1,3,-1
 450 0 l 1,4,-1
 314 307 l 1,5,-1
 176 307 l 1,6,-1
 133 0 l 1,7,-1
 123 -74 l 2,8,9
 121 -90 121 -90 121 -96 c 0,10,11
 121 -155 121 -155 175 -155 c 0,12,13
 199 -155 199 -155 217 -149 c 128,-1,14
 235 -143 235 -143 254 -132 c 1,15,-1
 276 -173 l 1,16,17
 231 -205 231 -205 171 -205 c 0,18,19
 120 -205 120 -205 90.5 -178 c 128,-1,20
 61 -151 61 -151 61 -98 c 0,21,22
 61 -89 61 -89 63 -69 c 2,23,-1
 73 0 l 1,24,-1
 170 685 l 1,25,-1
 338 685 l 2,26,27
 554 685 554 685 554 524 c 0,28,0
 554 453 554 453 510 395 c 128,-1,1
302 356 m 2,29,30
 402 356 402 356 446.5 406 c 128,-1,31
 491 456 491 456 491 524 c 0,32,33
 491 582 491 582 453.5 609 c 128,-1,34
 416 636 416 636 334 636 c 2,35,-1
 223 636 l 1,36,-1
 183 356 l 1,37,-1
 302 356 l 2,29,30
EndSplineSet
Substitution2: "'ss01' Style Set 1 lookup 34 subtable" uni2C64.ss01
Substitution2: "'salt' Stylistic Alternatives lookup 33 subtable" uni2C64.ss01
Substitution2: "'c2sc' Capitals to Small Capitals lookup 27 subtable" uni2C64.sc
AlternateSubs2: "'aalt' Access All Alternates lookup 1 subtable" uni2C64.sc uni2C64.ss01
Position2: "'cpsp' Capital Spacing lookup 0 subtable" dx=5 dy=0 dh=10 dv=0
EndChar

StartChar: S
Encoding: 83 83 234
Width: 536
GlyphClass: 2
Flags: W
AnchorPoint: "Anchor-18" 0 0 basechar 0
AnchorPoint: "Anchor-17" 0 0 basechar 0
AnchorPoint: "Anchor-16" 330 685 basechar 0
AnchorPoint: "Anchor-15" 0 0 basechar 0
AnchorPoint: "Anchor-14" 225 0 basechar 0
LayerCount: 2
Fore
SplineSet
429 676.5 m 128,-1,1
 474 657 474 657 511 619 c 1,2,-1
 473 582 l 1,3,4
 441 616 441 616 405.5 630.5 c 128,-1,5
 370 645 370 645 324 645 c 0,6,7
 252 645 252 645 207 609.5 c 128,-1,8
 162 574 162 574 162 516 c 0,9,10
 162 469 162 469 192.5 442 c 128,-1,11
 223 415 223 415 301 389 c 0,12,13
 388 362 388 362 431.5 320.5 c 128,-1,14
 475 279 475 279 475 205 c 0,15,16
 475 151 475 151 448 102 c 128,-1,17
 421 53 421 53 363.5 21 c 128,-1,18
 306 -11 306 -11 221 -11 c 0,19,20
 153 -11 153 -11 102.5 12 c 128,-1,21
 52 35 52 35 13 77 c 1,22,-1
 51 113 l 1,23,24
 85 77 85 77 126 59 c 128,-1,25
 167 41 167 41 222 41 c 0,26,27
 285 41 285 41 328 64 c 128,-1,28
 371 87 371 87 392 123.5 c 128,-1,29
 413 160 413 160 413 202 c 0,30,31
 413 254 413 254 382 284.5 c 128,-1,32
 351 315 351 315 274 341 c 0,33,34
 182 372 182 372 142 410 c 128,-1,35
 102 448 102 448 102 514 c 0,36,37
 102 560 102 560 128 602 c 128,-1,38
 154 644 154 644 204.5 670 c 128,-1,39
 255 696 255 696 324 696 c 0,40,0
 384 696 384 696 429 676.5 c 128,-1,1
EndSplineSet
Substitution2: "'c2sc' Capitals to Small Capitals lookup 27 subtable" s.sc
Substitution2: "'aalt' Access All Alternates lookup 0 subtable" s.sc
Position2: "'cpsp' Capital Spacing lookup 0 subtable" dx=5 dy=0 dh=10 dv=0
EndChar

StartChar: uniA78B
Encoding: 42891 42891 236
Width: 204
GlyphClass: 2
Flags: W
LayerCount: 2
Fore
SplineSet
92 353 m 1,0,-1
 129 685 l 1,1,-1
 194 685 l 1,2,-1
 138 353 l 1,3,-1
 92 353 l 1,0,-1
EndSplineSet
Position2: "'cpsp' Capital Spacing lookup 0 subtable" dx=5 dy=0 dh=10 dv=0
EndChar

StartChar: Scedilla
Encoding: 350 350 238
Width: 536
GlyphClass: 2
Flags: W
AnchorPoint: "Anchor-18" 0 0 basechar 0
AnchorPoint: "Anchor-17" 0 0 basechar 0
AnchorPoint: "Anchor-16" 330 685 basechar 0
AnchorPoint: "Anchor-15" 0 0 basechar 0
AnchorPoint: "Anchor-14" 221 -227 basechar 0
LayerCount: 2
Fore
SplineSet
431.5 320.5 m 128,-1,1
 475 279 475 279 475 205 c 0,2,3
 475 154 475 154 450 106 c 128,-1,4
 425 58 425 58 372.5 26 c 128,-1,5
 320 -6 320 -6 242 -10 c 1,6,-1
 233 -64 l 1,7,8
 275 -68 275 -68 295.5 -86.5 c 128,-1,9
 316 -105 316 -105 316 -137 c 0,10,11
 316 -177 316 -177 284.5 -202 c 128,-1,12
 253 -227 253 -227 203 -227 c 0,13,14
 154 -227 154 -227 123 -205 c 1,15,-1
 144 -170 l 1,16,17
 172 -185 172 -185 203 -185 c 0,18,19
 230 -185 230 -185 247.5 -173 c 128,-1,20
 265 -161 265 -161 265 -138 c 256,21,22
 265 -115 265 -115 247 -105.5 c 128,-1,23
 229 -96 229 -96 183 -96 c 1,24,-1
 202 -11 l 1,25,26
 141 -7 141 -7 95.5 15.5 c 128,-1,27
 50 38 50 38 13 77 c 1,28,-1
 51 113 l 1,29,30
 85 77 85 77 126 59 c 128,-1,31
 167 41 167 41 222 41 c 0,32,33
 285 41 285 41 328 64 c 128,-1,34
 371 87 371 87 392 123.5 c 128,-1,35
 413 160 413 160 413 202 c 0,36,37
 413 254 413 254 382 284.5 c 128,-1,38
 351 315 351 315 274 341 c 0,39,40
 182 372 182 372 142 410 c 128,-1,41
 102 448 102 448 102 514 c 0,42,43
 102 560 102 560 128 602 c 128,-1,44
 154 644 154 644 204.5 670 c 128,-1,45
 255 696 255 696 324 696 c 0,46,47
 384 696 384 696 429 676.5 c 128,-1,48
 474 657 474 657 511 619 c 1,49,-1
 473 582 l 1,50,51
 441 616 441 616 405.5 630.5 c 128,-1,52
 370 645 370 645 324 645 c 0,53,54
 252 645 252 645 207 609.5 c 128,-1,55
 162 574 162 574 162 516 c 0,56,57
 162 469 162 469 192.5 442 c 128,-1,58
 223 415 223 415 301 389 c 0,59,0
 388 362 388 362 431.5 320.5 c 128,-1,1
EndSplineSet
Substitution2: "'c2sc' Capitals to Small Capitals lookup 27 subtable" scedilla.sc
Substitution2: "'locl' Localized Forms in Latin lookup 5 subtable" Scommaaccent
Substitution2: "'locl' Localized Forms in Latin lookup 4 subtable" Scommaaccent
AlternateSubs2: "'aalt' Access All Alternates lookup 1 subtable" Scommaaccent scedilla.sc
Position2: "'cpsp' Capital Spacing lookup 0 subtable" dx=5 dy=0 dh=10 dv=0
EndChar

StartChar: uni1E9E
Encoding: 7838 7838 243
Width: 645
GlyphClass: 2
Flags: W
LayerCount: 2
Fore
SplineSet
602 627 m 1,1,-1
 598 586 l 1,2,-1
 382 385 l 1,3,4
 481 374 481 374 532.5 331 c 128,-1,5
 584 288 584 288 584 213 c 0,6,7
 584 148 584 148 554.5 97 c 128,-1,8
 525 46 525 46 471.5 17.5 c 128,-1,9
 418 -11 418 -11 350 -11 c 0,10,11
 283 -11 283 -11 237 12 c 1,12,-1
 261 55 l 1,13,14
 298 41 298 41 349 41 c 0,15,16
 428 41 428 41 475 89 c 128,-1,17
 522 137 522 137 522 212 c 0,18,19
 522 276 522 276 472 306.5 c 128,-1,20
 422 337 422 337 317 342 c 1,21,-1
 322 392 l 1,22,-1
 542 603 l 1,23,24
 501 623 501 623 462 634 c 128,-1,25
 423 645 423 645 377 645 c 0,26,27
 303 645 303 645 258 606 c 128,-1,28
 213 567 213 567 202 488 c 2,29,-1
 133 0 l 1,30,-1
 73 0 l 1,31,-1
 143 494 l 2,32,33
 156 592 156 592 217.5 644 c 128,-1,34
 279 696 279 696 377 696 c 0,35,0
 489 696 489 696 602 627 c 1,1,-1
EndSplineSet
Substitution2: "'c2sc' Capitals to Small Capitals lookup 27 subtable" germandbls.sc
Substitution2: "'aalt' Access All Alternates lookup 0 subtable" germandbls.sc
Position2: "'cpsp' Capital Spacing lookup 0 subtable" dx=5 dy=0 dh=10 dv=0
EndChar

StartChar: T
Encoding: 84 84 245
Width: 493
GlyphClass: 2
Flags: W
AnchorPoint: "Anchor-18" 258 347 basechar 0
AnchorPoint: "Anchor-17" 0 0 basechar 0
AnchorPoint: "Anchor-16" 305 685 basechar 0
AnchorPoint: "Anchor-15" 0 0 basechar 0
AnchorPoint: "Anchor-14" 210 0 basechar 0
LayerCount: 2
Fore
SplineSet
543 685 m 1,0,-1
 528 632 l 1,1,-1
 328 632 l 1,2,-1
 239 0 l 1,3,-1
 179 0 l 1,4,-1
 268 632 l 1,5,-1
 66 632 l 1,6,-1
 74 685 l 1,7,-1
 543 685 l 1,0,-1
EndSplineSet
Substitution2: "'c2sc' Capitals to Small Capitals lookup 27 subtable" t.sc
Substitution2: "'aalt' Access All Alternates lookup 0 subtable" t.sc
Position2: "'cpsp' Capital Spacing lookup 0 subtable" dx=5 dy=0 dh=10 dv=0
EndChar

StartChar: Tbar
Encoding: 358 358 246
Width: 493
GlyphClass: 2
Flags: W
AnchorPoint: "Anchor-18" 258 347 basechar 0
AnchorPoint: "Anchor-17" 0 0 basechar 0
AnchorPoint: "Anchor-16" 305 685 basechar 0
AnchorPoint: "Anchor-15" 0 0 basechar 0
AnchorPoint: "Anchor-14" 210 0 basechar 0
LayerCount: 2
Fore
SplineSet
528 632 m 1,0,-1
 328 632 l 1,1,-1
 293 385 l 1,2,-1
 415 385 l 1,3,-1
 408 338 l 1,4,-1
 287 338 l 1,5,-1
 239 0 l 1,6,-1
 179 0 l 1,7,-1
 227 338 l 1,8,-1
 105 338 l 1,9,-1
 112 385 l 1,10,-1
 233 385 l 1,11,-1
 268 632 l 1,12,-1
 66 632 l 1,13,-1
 74 685 l 1,14,-1
 543 685 l 1,15,-1
 528 632 l 1,0,-1
EndSplineSet
Substitution2: "'c2sc' Capitals to Small Capitals lookup 27 subtable" tbar.sc
Substitution2: "'aalt' Access All Alternates lookup 0 subtable" tbar.sc
Position2: "'cpsp' Capital Spacing lookup 0 subtable" dx=5 dy=0 dh=10 dv=0
EndChar

StartChar: uni0162
Encoding: 354 354 248
Width: 493
GlyphClass: 2
Flags: W
AnchorPoint: "Anchor-18" 258 347 basechar 0
AnchorPoint: "Anchor-17" 0 0 basechar 0
AnchorPoint: "Anchor-16" 305 685 basechar 0
AnchorPoint: "Anchor-15" 0 0 basechar 0
AnchorPoint: "Anchor-14" 210 0 basechar 0
LayerCount: 2
Fore
SplineSet
543 685 m 1,0,-1
 528 632 l 1,1,-1
 328 632 l 1,2,-1
 239 0 l 1,3,-1
 240 0 l 1,4,-1
 229 -64 l 1,5,6
 312 -71 312 -71 312 -133 c 0,7,8
 312 -172 312 -172 280 -199.5 c 128,-1,9
 248 -227 248 -227 197 -227 c 0,10,11
 151 -227 151 -227 118 -205 c 1,12,-1
 141 -170 l 1,13,14
 163 -185 163 -185 196 -185 c 0,15,16
 222 -185 222 -185 241 -172 c 128,-1,17
 260 -159 260 -159 260 -136 c 0,18,19
 260 -114 260 -114 242 -105 c 128,-1,20
 224 -96 224 -96 178 -96 c 1,21,-1
 199 0 l 1,22,-1
 179 0 l 1,23,-1
 268 632 l 1,24,-1
 66 632 l 1,25,-1
 74 685 l 1,26,-1
 543 685 l 1,0,-1
EndSplineSet
Substitution2: "'c2sc' Capitals to Small Capitals lookup 27 subtable" uni0163.sc
Substitution2: "'locl' Localized Forms in Latin lookup 5 subtable" uni021A
Substitution2: "'locl' Localized Forms in Latin lookup 4 subtable" uni021A
AlternateSubs2: "'aalt' Access All Alternates lookup 1 subtable" uni021A uni0163.sc
Position2: "'cpsp' Capital Spacing lookup 0 subtable" dx=5 dy=0 dh=10 dv=0
EndChar

StartChar: uni023E
Encoding: 574 574 251
Width: 493
GlyphClass: 2
Flags: W
AnchorPoint: "Anchor-18" 0 0 basechar 0
AnchorPoint: "Anchor-17" 0 0 basechar 0
AnchorPoint: "Anchor-16" 306 685 basechar 0
AnchorPoint: "Anchor-15" 0 0 basechar 0
AnchorPoint: "Anchor-14" 210 0 basechar 0
LayerCount: 2
Fore
SplineSet
528 632 m 1,0,-1
 413 632 l 1,1,-1
 288 352 l 1,2,-1
 239 0 l 1,3,-1
 180 0 l 1,4,-1
 202 161 l 1,5,-1
 99 -70 l 1,6,-1
 69 -59 l 1,7,-1
 218 274 l 1,8,-1
 268 632 l 1,9,-1
 66 632 l 1,10,-1
 74 685 l 1,11,-1
 402 685 l 1,12,-1
 429 745 l 1,13,-1
 459 734 l 1,14,-1
 437 685 l 1,15,-1
 543 685 l 1,16,-1
 528 632 l 1,0,-1
304 465 m 1,17,-1
 378 632 l 1,18,-1
 327 632 l 1,19,-1
 304 465 l 1,17,-1
EndSplineSet
Substitution2: "'c2sc' Capitals to Small Capitals lookup 27 subtable" uni2C66.sc
Substitution2: "'aalt' Access All Alternates lookup 0 subtable" uni2C66.sc
Position2: "'cpsp' Capital Spacing lookup 0 subtable" dx=5 dy=0 dh=10 dv=0
EndChar

StartChar: uni01AC
Encoding: 428 428 254
Width: 521
GlyphClass: 2
Flags: W
AnchorPoint: "Anchor-18" 0 0 basechar 0
AnchorPoint: "Anchor-17" 0 0 basechar 0
AnchorPoint: "Anchor-16" 320 685 basechar 0
AnchorPoint: "Anchor-15" 0 0 basechar 0
AnchorPoint: "Anchor-14" 239 0 basechar 0
LayerCount: 2
Fore
SplineSet
556 632 m 1,0,-1
 357 632 l 1,1,-1
 268 0 l 1,2,-1
 208 0 l 1,3,-1
 297 632 l 1,4,-1
 197 632 l 2,5,6
 155 632 155 632 135 611 c 128,-1,7
 115 590 115 590 115 554 c 0,8,9
 115 532 115 532 127 498 c 1,10,-1
 81 477 l 1,11,12
 70 498 70 498 64 516.5 c 128,-1,13
 58 535 58 535 58 558 c 0,14,15
 58 614 58 614 95.5 649.5 c 128,-1,16
 133 685 133 685 200 685 c 2,17,-1
 571 685 l 1,18,-1
 556 632 l 1,0,-1
EndSplineSet
Substitution2: "'c2sc' Capitals to Small Capitals lookup 27 subtable" uni01AD.sc
Substitution2: "'aalt' Access All Alternates lookup 0 subtable" uni01AD.sc
Position2: "'cpsp' Capital Spacing lookup 0 subtable" dx=5 dy=0 dh=10 dv=0
EndChar

StartChar: uni0184
Encoding: 388 388 257
Width: 559
GlyphClass: 2
Flags: W
AnchorPoint: "Anchor-18" 0 0 basechar 0
AnchorPoint: "Anchor-17" 0 0 basechar 0
AnchorPoint: "Anchor-16" 339 685 basechar 0
AnchorPoint: "Anchor-15" 0 0 basechar 0
AnchorPoint: "Anchor-14" 243 0 basechar 0
LayerCount: 2
Fore
SplineSet
462.5 377 m 128,-1,1
 520 331 520 331 520 240 c 0,2,3
 520 178 520 178 492.5 123.5 c 128,-1,4
 465 69 465 69 403 34.5 c 128,-1,5
 341 0 341 0 242 0 c 2,6,-1
 73 0 l 1,7,-1
 151 549 l 1,8,-1
 103 584 l 1,9,10
 147 622 147 622 178 685 c 1,11,-1
 230 685 l 1,12,-1
 193 423 l 1,13,-1
 300 423 l 2,14,0
 405 423 405 423 462.5 377 c 128,-1,1
410 107.5 m 128,-1,16
 457 164 457 164 457 240 c 0,17,18
 457 310 457 310 416.5 341.5 c 128,-1,19
 376 373 376 373 298 373 c 2,20,-1
 186 373 l 1,21,-1
 141 51 l 1,22,-1
 255 51 l 2,23,15
 363 51 363 51 410 107.5 c 128,-1,16
EndSplineSet
Substitution2: "'c2sc' Capitals to Small Capitals lookup 27 subtable" uni0185.sc
Substitution2: "'aalt' Access All Alternates lookup 0 subtable" uni0185.sc
Position2: "'cpsp' Capital Spacing lookup 0 subtable" dx=5 dy=0 dh=10 dv=0
EndChar

StartChar: uni01A7
Encoding: 423 423 258
Width: 528
GlyphClass: 2
Flags: W
AnchorPoint: "Anchor-18" 0 0 basechar 0
AnchorPoint: "Anchor-17" 0 0 basechar 0
AnchorPoint: "Anchor-16" 323 685 basechar 0
AnchorPoint: "Anchor-15" 0 0 basechar 0
AnchorPoint: "Anchor-14" 227 0 basechar 0
LayerCount: 2
Fore
SplineSet
462.5 656 m 128,-1,1
 509 616 509 616 509 549 c 0,2,3
 509 466 509 466 456 420.5 c 128,-1,4
 403 375 403 375 289 341 c 0,5,6
 219 320 219 320 178.5 296.5 c 128,-1,7
 138 273 138 273 119.5 240 c 128,-1,8
 101 207 101 207 101 157 c 0,9,10
 101 101 101 101 138 71 c 128,-1,11
 175 41 175 41 236 41 c 0,12,13
 292 41 292 41 339.5 59.5 c 128,-1,14
 387 78 387 78 432 113 c 1,15,-1
 463 73 l 1,16,17
 361 -11 361 -11 233 -11 c 0,18,19
 145 -11 145 -11 92 35 c 128,-1,20
 39 81 39 81 39 157 c 0,21,22
 39 247 39 247 94 301.5 c 128,-1,23
 149 356 149 356 265 389 c 0,24,25
 331 409 331 409 369.5 428 c 128,-1,26
 408 447 408 447 428 476 c 128,-1,27
 448 505 448 505 448 549 c 0,28,29
 448 596 448 596 418 620.5 c 128,-1,30
 388 645 388 645 333 645 c 0,31,32
 283 645 283 645 241.5 630 c 128,-1,33
 200 615 200 615 153 582 c 1,34,-1
 123 622 l 1,35,36
 173 660 173 660 223 678 c 128,-1,37
 273 696 273 696 336 696 c 0,38,0
 416 696 416 696 462.5 656 c 128,-1,1
EndSplineSet
Substitution2: "'c2sc' Capitals to Small Capitals lookup 27 subtable" uni01A8.sc
Substitution2: "'aalt' Access All Alternates lookup 0 subtable" uni01A8.sc
Position2: "'cpsp' Capital Spacing lookup 0 subtable" dx=5 dy=0 dh=10 dv=0
EndChar

StartChar: uni01AE
Encoding: 430 430 259
Width: 493
GlyphClass: 2
Flags: W
AnchorPoint: "Anchor-18" 258 347 basechar 0
AnchorPoint: "Anchor-17" 0 0 basechar 0
AnchorPoint: "Anchor-16" 305 685 basechar 0
AnchorPoint: "Anchor-15" 0 0 basechar 0
AnchorPoint: "Anchor-14" 210 0 basechar 0
LayerCount: 2
Fore
SplineSet
229 -74 m 2,0,1
 227 -90 227 -90 227 -96 c 0,2,3
 227 -155 227 -155 281 -155 c 0,4,5
 305 -155 305 -155 323 -149 c 128,-1,6
 341 -143 341 -143 360 -132 c 1,7,-1
 382 -173 l 1,8,9
 337 -205 337 -205 277 -205 c 0,10,11
 226 -205 226 -205 196.5 -178 c 128,-1,12
 167 -151 167 -151 167 -98 c 0,13,14
 167 -89 167 -89 169 -69 c 2,15,-1
 179 0 l 1,16,-1
 268 632 l 1,17,-1
 66 632 l 1,18,-1
 74 685 l 1,19,-1
 543 685 l 1,20,-1
 528 632 l 1,21,-1
 328 632 l 1,22,-1
 239 0 l 1,23,-1
 229 -74 l 2,0,1
EndSplineSet
Substitution2: "'c2sc' Capitals to Small Capitals lookup 27 subtable" uni0288.sc
Substitution2: "'aalt' Access All Alternates lookup 0 subtable" uni0288.sc
Position2: "'cpsp' Capital Spacing lookup 0 subtable" dx=5 dy=0 dh=10 dv=0
EndChar

StartChar: U
Encoding: 85 85 260
Width: 649
GlyphClass: 2
Flags: W
AnchorPoint: "Anchor-18" 0 0 basechar 0
AnchorPoint: "Anchor-17" 618 685 basechar 0
AnchorPoint: "Anchor-16" 384 685 basechar 0
AnchorPoint: "Anchor-15" 378 0 basechar 0
AnchorPoint: "Anchor-14" 288 0 basechar 0
LayerCount: 2
Fore
SplineSet
542 212 m 2,0,1
 528 110 528 110 463 49.5 c 128,-1,2
 398 -11 398 -11 289 -11 c 0,3,4
 191 -11 191 -11 141 38 c 128,-1,5
 91 87 91 87 91 171 c 0,6,7
 91 192 91 192 94 216 c 2,8,-1
 160 685 l 1,9,-1
 220 685 l 1,10,-1
 154 217 l 2,11,12
 151 195 151 195 151 174 c 0,13,14
 151 41 151 41 291 41 c 0,15,16
 375 41 375 41 423 88.5 c 128,-1,17
 471 136 471 136 483 221 c 2,18,-1
 548 685 l 1,19,-1
 608 685 l 1,20,-1
 542 212 l 2,0,1
EndSplineSet
Substitution2: "'c2sc' Capitals to Small Capitals lookup 27 subtable" u.sc
Substitution2: "'aalt' Access All Alternates lookup 0 subtable" u.sc
Position2: "'cpsp' Capital Spacing lookup 0 subtable" dx=5 dy=0 dh=10 dv=0
EndChar

StartChar: uni0244
Encoding: 580 580 262
Width: 670
GlyphClass: 2
Flags: W
AnchorPoint: "Anchor-18" 0 0 basechar 0
AnchorPoint: "Anchor-17" 630 685 basechar 0
AnchorPoint: "Anchor-16" 396 685 basechar 0
AnchorPoint: "Anchor-15" 390 0 basechar 0
AnchorPoint: "Anchor-14" 300 0 basechar 0
LayerCount: 2
Fore
SplineSet
661 513 m 1,0,-1
 596 513 l 1,1,-1
 554 212 l 2,2,3
 540 110 540 110 475 49.5 c 128,-1,4
 410 -11 410 -11 301 -11 c 0,5,6
 203 -11 203 -11 153 38 c 128,-1,7
 103 87 103 87 103 171 c 0,8,9
 103 192 103 192 106 216 c 2,10,-1
 148 513 l 1,11,-1
 83 513 l 1,12,-1
 89 558 l 1,13,-1
 154 558 l 1,14,-1
 172 685 l 1,15,-1
 232 685 l 1,16,-1
 214 558 l 1,17,-1
 542 558 l 1,18,-1
 560 685 l 1,19,-1
 620 685 l 1,20,-1
 602 558 l 1,21,-1
 668 558 l 1,22,-1
 661 513 l 1,0,-1
536 513 m 1,23,-1
 208 513 l 1,24,-1
 166 217 l 2,25,26
 163 195 163 195 163 174 c 0,27,28
 163 41 163 41 303 41 c 0,29,30
 387 41 387 41 435 88.5 c 128,-1,31
 483 136 483 136 495 221 c 2,32,-1
 536 513 l 1,23,-1
EndSplineSet
Substitution2: "'c2sc' Capitals to Small Capitals lookup 27 subtable" uni0289.sc
Substitution2: "'aalt' Access All Alternates lookup 0 subtable" uni0289.sc
Position2: "'cpsp' Capital Spacing lookup 0 subtable" dx=5 dy=0 dh=10 dv=0
EndChar

StartChar: Uhorn
Encoding: 431 431 275
Width: 649
GlyphClass: 2
Flags: W
AnchorPoint: "Anchor-18" 0 0 basechar 0
AnchorPoint: "Anchor-17" 670 685 basechar 0
AnchorPoint: "Anchor-16" 384 685 basechar 0
AnchorPoint: "Anchor-15" 378 0 basechar 0
AnchorPoint: "Anchor-14" 288 0 basechar 0
LayerCount: 2
Fore
SplineSet
595 593 m 1,1,-1
 542 212 l 2,2,3
 528 110 528 110 463 49.5 c 128,-1,4
 398 -11 398 -11 289 -11 c 0,5,6
 191 -11 191 -11 141 38 c 128,-1,7
 91 87 91 87 91 171 c 0,8,9
 91 192 91 192 94 216 c 2,10,-1
 160 685 l 1,11,-1
 220 685 l 1,12,-1
 154 217 l 2,13,14
 151 195 151 195 151 174 c 0,15,16
 151 41 151 41 291 41 c 0,17,18
 375 41 375 41 423 88.5 c 128,-1,19
 471 136 471 136 483 221 c 2,20,-1
 548 685 l 1,21,-1
 608 685 l 1,22,-1
 601 633 l 1,23,24
 633 640 633 640 647 659.5 c 128,-1,25
 661 679 661 679 661 712 c 0,26,27
 661 736 661 736 654 759 c 1,28,-1
 700 768 l 1,29,30
 710 742 710 742 710 711 c 0,31,0
 710 606 710 606 595 593 c 1,1,-1
EndSplineSet
Substitution2: "'c2sc' Capitals to Small Capitals lookup 27 subtable" uhorn.sc
Substitution2: "'aalt' Access All Alternates lookup 0 subtable" uhorn.sc
Position2: "'cpsp' Capital Spacing lookup 0 subtable" dx=5 dy=0 dh=10 dv=0
EndChar

StartChar: uni1EE8
Encoding: 7912 7912 276
Width: 649
GlyphClass: 2
Flags: W
AnchorPoint: "Anchor-18" 0 0 basechar 0
AnchorPoint: "Anchor-17" 670 685 basechar 0
AnchorPoint: "Anchor-16" 406 888 basechar 0
AnchorPoint: "Anchor-15" 378 0 basechar 0
AnchorPoint: "Anchor-14" 288 0 basechar 0
LayerCount: 2
Fore
SplineSet
504 833 m 1,0,-1
 298 758 l 1,1,-1
 284 792 l 1,2,-1
 484 886 l 1,3,-1
 504 833 l 1,0,-1
595 593 m 1,5,-1
 542 212 l 2,6,7
 528 110 528 110 463 49.5 c 128,-1,8
 398 -11 398 -11 289 -11 c 0,9,10
 191 -11 191 -11 141 38 c 128,-1,11
 91 87 91 87 91 171 c 0,12,13
 91 192 91 192 94 216 c 2,14,-1
 160 685 l 1,15,-1
 220 685 l 1,16,-1
 154 217 l 2,17,18
 151 195 151 195 151 174 c 0,19,20
 151 41 151 41 291 41 c 0,21,22
 375 41 375 41 423 88.5 c 128,-1,23
 471 136 471 136 483 221 c 2,24,-1
 548 685 l 1,25,-1
 608 685 l 1,26,-1
 601 633 l 1,27,28
 633 640 633 640 647 659.5 c 128,-1,29
 661 679 661 679 661 712 c 0,30,31
 661 736 661 736 654 759 c 1,32,-1
 700 768 l 1,33,34
 710 742 710 742 710 711 c 0,35,4
 710 606 710 606 595 593 c 1,5,-1
EndSplineSet
Substitution2: "'c2sc' Capitals to Small Capitals lookup 27 subtable" uni1EE9.sc
Substitution2: "'aalt' Access All Alternates lookup 0 subtable" uni1EE9.sc
Position2: "'cpsp' Capital Spacing lookup 0 subtable" dx=5 dy=0 dh=10 dv=0
EndChar

StartChar: uni1EF0
Encoding: 7920 7920 277
Width: 649
GlyphClass: 2
Flags: W
AnchorPoint: "Anchor-18" 0 0 basechar 0
AnchorPoint: "Anchor-17" 670 685 basechar 0
AnchorPoint: "Anchor-16" 384 685 basechar 0
AnchorPoint: "Anchor-15" 378 0 basechar 0
AnchorPoint: "Anchor-14" 270 -170 basechar 0
LayerCount: 2
Fore
SplineSet
595 593 m 1,1,-1
 542 212 l 2,2,3
 528 110 528 110 463 49.5 c 128,-1,4
 398 -11 398 -11 289 -11 c 0,5,6
 191 -11 191 -11 141 38 c 128,-1,7
 91 87 91 87 91 171 c 0,8,9
 91 192 91 192 94 216 c 2,10,-1
 160 685 l 1,11,-1
 220 685 l 1,12,-1
 154 217 l 2,13,14
 151 195 151 195 151 174 c 0,15,16
 151 41 151 41 291 41 c 0,17,18
 375 41 375 41 423 88.5 c 128,-1,19
 471 136 471 136 483 221 c 2,20,-1
 548 685 l 1,21,-1
 608 685 l 1,22,-1
 601 633 l 1,23,24
 633 640 633 640 647 659.5 c 128,-1,25
 661 679 661 679 661 712 c 0,26,27
 661 736 661 736 654 759 c 1,28,-1
 700 768 l 1,29,30
 710 742 710 742 710 711 c 0,31,0
 710 606 710 606 595 593 c 1,1,-1
304 -96.5 m 128,-1,33
 315 -107 315 -107 315 -124 c 0,34,35
 315 -144 315 -144 301.5 -157 c 128,-1,36
 288 -170 288 -170 268 -170 c 0,37,38
 250 -170 250 -170 239 -159.5 c 128,-1,39
 228 -149 228 -149 228 -132 c 0,40,41
 228 -112 228 -112 241.5 -99 c 128,-1,42
 255 -86 255 -86 275 -86 c 0,43,32
 293 -86 293 -86 304 -96.5 c 128,-1,33
EndSplineSet
Substitution2: "'c2sc' Capitals to Small Capitals lookup 27 subtable" uni1EF1.sc
Substitution2: "'aalt' Access All Alternates lookup 0 subtable" uni1EF1.sc
Position2: "'cpsp' Capital Spacing lookup 0 subtable" dx=5 dy=0 dh=10 dv=0
EndChar

StartChar: uni1EEA
Encoding: 7914 7914 278
Width: 649
GlyphClass: 2
Flags: W
AnchorPoint: "Anchor-18" 0 0 basechar 0
AnchorPoint: "Anchor-17" 670 685 basechar 0
AnchorPoint: "Anchor-16" 406 888 basechar 0
AnchorPoint: "Anchor-15" 378 0 basechar 0
AnchorPoint: "Anchor-14" 288 0 basechar 0
LayerCount: 2
Fore
SplineSet
507 791 m 1,0,-1
 487 758 l 1,1,-1
 304 833 l 1,2,-1
 331 885 l 1,3,-1
 507 791 l 1,0,-1
595 593 m 1,5,-1
 542 212 l 2,6,7
 528 110 528 110 463 49.5 c 128,-1,8
 398 -11 398 -11 289 -11 c 0,9,10
 191 -11 191 -11 141 38 c 128,-1,11
 91 87 91 87 91 171 c 0,12,13
 91 192 91 192 94 216 c 2,14,-1
 160 685 l 1,15,-1
 220 685 l 1,16,-1
 154 217 l 2,17,18
 151 195 151 195 151 174 c 0,19,20
 151 41 151 41 291 41 c 0,21,22
 375 41 375 41 423 88.5 c 128,-1,23
 471 136 471 136 483 221 c 2,24,-1
 548 685 l 1,25,-1
 608 685 l 1,26,-1
 601 633 l 1,27,28
 633 640 633 640 647 659.5 c 128,-1,29
 661 679 661 679 661 712 c 0,30,31
 661 736 661 736 654 759 c 1,32,-1
 700 768 l 1,33,34
 710 742 710 742 710 711 c 0,35,4
 710 606 710 606 595 593 c 1,5,-1
EndSplineSet
Substitution2: "'c2sc' Capitals to Small Capitals lookup 27 subtable" uni1EEB.sc
Substitution2: "'aalt' Access All Alternates lookup 0 subtable" uni1EEB.sc
Position2: "'cpsp' Capital Spacing lookup 0 subtable" dx=5 dy=0 dh=10 dv=0
EndChar

StartChar: uni1EEC
Encoding: 7916 7916 279
Width: 649
GlyphClass: 2
Flags: W
AnchorPoint: "Anchor-18" 0 0 basechar 0
AnchorPoint: "Anchor-17" 670 685 basechar 0
AnchorPoint: "Anchor-16" 428 977 basechar 0
AnchorPoint: "Anchor-15" 378 0 basechar 0
AnchorPoint: "Anchor-14" 288 0 basechar 0
LayerCount: 2
Fore
SplineSet
388.5 930.5 m 128,-1,1
 375 927 375 927 359 919 c 1,2,-1
 345 956 l 1,3,4
 384 977 384 977 427 977 c 0,5,6
 467 977 467 977 489.5 956.5 c 128,-1,7
 512 936 512 936 512 902 c 0,8,9
 512 867 512 867 489 846 c 128,-1,10
 466 825 466 825 426 820 c 1,11,-1
 420 774 l 1,12,-1
 373 774 l 1,13,-1
 381 847 l 1,14,15
 459 853 459 853 459 900 c 0,16,17
 459 934 459 934 419 934 c 0,18,0
 402 934 402 934 388.5 930.5 c 128,-1,1
595 593 m 1,20,-1
 542 212 l 2,21,22
 528 110 528 110 463 49.5 c 128,-1,23
 398 -11 398 -11 289 -11 c 0,24,25
 191 -11 191 -11 141 38 c 128,-1,26
 91 87 91 87 91 171 c 0,27,28
 91 192 91 192 94 216 c 2,29,-1
 160 685 l 1,30,-1
 220 685 l 1,31,-1
 154 217 l 2,32,33
 151 195 151 195 151 174 c 0,34,35
 151 41 151 41 291 41 c 0,36,37
 375 41 375 41 423 88.5 c 128,-1,38
 471 136 471 136 483 221 c 2,39,-1
 548 685 l 1,40,-1
 608 685 l 1,41,-1
 601 633 l 1,42,43
 633 640 633 640 647 659.5 c 128,-1,44
 661 679 661 679 661 712 c 0,45,46
 661 736 661 736 654 759 c 1,47,-1
 700 768 l 1,48,49
 710 742 710 742 710 711 c 0,50,19
 710 606 710 606 595 593 c 1,20,-1
EndSplineSet
Substitution2: "'c2sc' Capitals to Small Capitals lookup 27 subtable" uni1EED.sc
Substitution2: "'aalt' Access All Alternates lookup 0 subtable" uni1EED.sc
Position2: "'cpsp' Capital Spacing lookup 0 subtable" dx=5 dy=0 dh=10 dv=0
EndChar

StartChar: uni1EEE
Encoding: 7918 7918 280
Width: 649
GlyphClass: 2
Flags: W
AnchorPoint: "Anchor-18" 0 0 basechar 0
AnchorPoint: "Anchor-17" 670 685 basechar 0
AnchorPoint: "Anchor-16" 408 885 basechar 0
AnchorPoint: "Anchor-15" 378 0 basechar 0
AnchorPoint: "Anchor-14" 288 0 basechar 0
LayerCount: 2
Fore
SplineSet
319 828.5 m 128,-1,1
 306 819 306 819 287 796 c 1,2,-1
 254 818 l 1,3,4
 299 884 299 884 351 884 c 0,5,6
 369 884 369 884 382.5 877.5 c 128,-1,7
 396 871 396 871 415 859 c 0,8,9
 433 848 433 848 442 843.5 c 128,-1,10
 451 839 451 839 462 839 c 0,11,12
 478 839 478 839 492.5 849.5 c 128,-1,13
 507 860 507 860 524 883 c 1,14,-1
 560 862 l 1,15,16
 516 792 516 792 463 792 c 0,17,18
 443 792 443 792 428.5 798.5 c 128,-1,19
 414 805 414 805 395 818 c 0,20,21
 382 828 382 828 371.5 833 c 128,-1,22
 361 838 361 838 350 838 c 0,23,0
 332 838 332 838 319 828.5 c 128,-1,1
595 593 m 1,25,-1
 542 212 l 2,26,27
 528 110 528 110 463 49.5 c 128,-1,28
 398 -11 398 -11 289 -11 c 0,29,30
 191 -11 191 -11 141 38 c 128,-1,31
 91 87 91 87 91 171 c 0,32,33
 91 192 91 192 94 216 c 2,34,-1
 160 685 l 1,35,-1
 220 685 l 1,36,-1
 154 217 l 2,37,38
 151 195 151 195 151 174 c 0,39,40
 151 41 151 41 291 41 c 0,41,42
 375 41 375 41 423 88.5 c 128,-1,43
 471 136 471 136 483 221 c 2,44,-1
 548 685 l 1,45,-1
 608 685 l 1,46,-1
 601 633 l 1,47,48
 633 640 633 640 647 659.5 c 128,-1,49
 661 679 661 679 661 712 c 0,50,51
 661 736 661 736 654 759 c 1,52,-1
 700 768 l 1,53,54
 710 742 710 742 710 711 c 0,55,24
 710 606 710 606 595 593 c 1,25,-1
EndSplineSet
Substitution2: "'c2sc' Capitals to Small Capitals lookup 27 subtable" uni1EEF.sc
Substitution2: "'aalt' Access All Alternates lookup 0 subtable" uni1EEF.sc
Position2: "'cpsp' Capital Spacing lookup 0 subtable" dx=5 dy=0 dh=10 dv=0
EndChar

StartChar: Uogonek
Encoding: 370 370 284
Width: 649
GlyphClass: 2
Flags: W
AnchorPoint: "Anchor-18" 0 0 basechar 0
AnchorPoint: "Anchor-17" 618 685 basechar 0
AnchorPoint: "Anchor-16" 384 685 basechar 0
AnchorPoint: "Anchor-15" 378 0 basechar 0
AnchorPoint: "Anchor-14" 288 0 basechar 0
LayerCount: 2
Fore
SplineSet
608 685 m 1,0,-1
 542 212 l 2,1,2
 530 128 530 128 484 71.5 c 128,-1,3
 438 15 438 15 362 -3 c 1,4,5
 299 -32 299 -32 272.5 -58 c 128,-1,6
 246 -84 246 -84 246 -118 c 0,7,8
 246 -142 246 -142 262 -156 c 128,-1,9
 278 -170 278 -170 310 -170 c 0,10,11
 336 -170 336 -170 367 -163 c 1,12,-1
 361 -211 l 1,13,14
 326 -218 326 -218 303 -218 c 0,15,16
 250 -218 250 -218 221 -192.5 c 128,-1,17
 192 -167 192 -167 192 -126 c 0,18,19
 192 -54 192 -54 285 -11 c 1,20,21
 189 -10 189 -10 140 39 c 128,-1,22
 91 88 91 88 91 171 c 0,23,24
 91 192 91 192 94 216 c 2,25,-1
 160 685 l 1,26,-1
 220 685 l 1,27,-1
 154 217 l 2,28,29
 151 195 151 195 151 174 c 0,30,31
 151 41 151 41 291 41 c 0,32,33
 375 41 375 41 423 88.5 c 128,-1,34
 471 136 471 136 483 221 c 2,35,-1
 548 685 l 1,36,-1
 608 685 l 1,0,-1
EndSplineSet
Substitution2: "'c2sc' Capitals to Small Capitals lookup 27 subtable" uogonek.sc
Substitution2: "'aalt' Access All Alternates lookup 0 subtable" uogonek.sc
Position2: "'cpsp' Capital Spacing lookup 0 subtable" dx=5 dy=0 dh=10 dv=0
EndChar

StartChar: uni01B1
Encoding: 433 433 285
Width: 688
GlyphClass: 2
Flags: W
AnchorPoint: "Anchor-18" 0 0 basechar 0
AnchorPoint: "Anchor-17" 0 0 basechar 0
AnchorPoint: "Anchor-16" 404 685 basechar 0
AnchorPoint: "Anchor-15" 0 0 basechar 0
AnchorPoint: "Anchor-14" 307 0 basechar 0
LayerCount: 2
Fore
SplineSet
134 59.5 m 128,-1,1
 70 130 70 130 70 252 c 256,2,3
 70 374 70 374 118.5 472.5 c 128,-1,4
 167 571 167 571 259 635 c 1,5,-1
 141 635 l 1,6,-1
 148 685 l 1,7,-1
 332 685 l 1,8,-1
 326 633 l 1,9,10
 230 571 230 571 181 470.5 c 128,-1,11
 132 370 132 370 132 249 c 0,12,13
 132 148 132 148 179 94.5 c 128,-1,14
 226 41 226 41 311 41 c 0,15,16
 395 41 395 41 454.5 90.5 c 128,-1,17
 514 140 514 140 544 221.5 c 128,-1,18
 574 303 574 303 574 400 c 0,19,20
 574 482 574 482 547 538 c 128,-1,21
 520 594 520 594 472 635 c 1,22,-1
 478 685 l 1,23,-1
 661 685 l 1,24,-1
 654 633 l 1,25,-1
 538 633 l 1,26,27
 583 594 583 594 610 539 c 128,-1,28
 637 484 637 484 637 401 c 0,29,30
 637 288 637 288 597 194 c 128,-1,31
 557 100 557 100 483 44.5 c 128,-1,32
 409 -11 409 -11 310 -11 c 0,33,0
 198 -11 198 -11 134 59.5 c 128,-1,1
EndSplineSet
Substitution2: "'c2sc' Capitals to Small Capitals lookup 27 subtable" uni01B1.sc
Substitution2: "'aalt' Access All Alternates lookup 0 subtable" uni01B1.sc
Position2: "'cpsp' Capital Spacing lookup 0 subtable" dx=5 dy=0 dh=10 dv=0
EndChar

StartChar: V
Encoding: 86 86 289
Width: 544
GlyphClass: 2
Flags: W
AnchorPoint: "Anchor-18" 0 0 basechar 0
AnchorPoint: "Anchor-17" 0 0 basechar 0
AnchorPoint: "Anchor-16" 331 685 basechar 0
AnchorPoint: "Anchor-15" 0 0 basechar 0
AnchorPoint: "Anchor-14" 235 0 basechar 0
LayerCount: 2
Fore
SplineSet
587 685 m 1,0,-1
 268 0 l 1,1,-1
 201 0 l 1,2,-1
 75 685 l 1,3,-1
 138 685 l 1,4,-1
 242 63 l 1,5,-1
 524 685 l 1,6,-1
 587 685 l 1,0,-1
EndSplineSet
Substitution2: "'c2sc' Capitals to Small Capitals lookup 27 subtable" v.sc
Substitution2: "'aalt' Access All Alternates lookup 0 subtable" v.sc
Position2: "'cpsp' Capital Spacing lookup 0 subtable" dx=5 dy=0 dh=10 dv=0
EndChar

StartChar: uni01B2
Encoding: 434 434 290
Width: 637
GlyphClass: 2
Flags: W
AnchorPoint: "Anchor-18" 0 0 basechar 0
AnchorPoint: "Anchor-17" 0 0 basechar 0
AnchorPoint: "Anchor-16" 363 685 basechar 0
AnchorPoint: "Anchor-15" 0 0 basechar 0
AnchorPoint: "Anchor-14" 266 0 basechar 0
LayerCount: 2
Fore
SplineSet
573 674 m 128,-1,1
 596 652 596 652 596 610 c 0,2,3
 596 603 596 603 594 585 c 2,4,-1
 553 292 l 2,5,6
 539 196 539 196 499 127.5 c 128,-1,7
 459 59 459 59 399 24 c 128,-1,8
 339 -11 339 -11 266 -11 c 0,9,10
 184 -11 184 -11 136 35.5 c 128,-1,11
 88 82 88 82 88 159 c 0,12,13
 88 177 88 177 91 195 c 2,14,-1
 160 685 l 1,15,-1
 220 685 l 1,16,-1
 151 195 l 2,17,18
 148 177 148 177 148 161 c 0,19,20
 148 103 148 103 179.5 72 c 128,-1,21
 211 41 211 41 268 41 c 0,22,23
 356 41 356 41 416 107.5 c 128,-1,24
 476 174 476 174 494 301 c 2,25,-1
 534 590 l 2,26,27
 535 596 535 596 535 607 c 0,28,29
 535 646 535 646 500 646 c 0,30,31
 478 646 478 646 457 637 c 1,32,-1
 442 680 l 1,33,34
 472 696 472 696 510 696 c 0,35,0
 550 696 550 696 573 674 c 128,-1,1
EndSplineSet
Substitution2: "'c2sc' Capitals to Small Capitals lookup 27 subtable" uni028B.sc
Substitution2: "'aalt' Access All Alternates lookup 0 subtable" uni028B.sc
Position2: "'cpsp' Capital Spacing lookup 0 subtable" dx=5 dy=0 dh=10 dv=0
EndChar

StartChar: W
Encoding: 87 87 292
Width: 807
GlyphClass: 2
Flags: W
AnchorPoint: "Anchor-18" 0 0 basechar 0
AnchorPoint: "Anchor-17" 0 0 basechar 0
AnchorPoint: "Anchor-16" 463 685 basechar 0
AnchorPoint: "Anchor-15" 0 0 basechar 0
AnchorPoint: "Anchor-14" 367 0 basechar 0
LayerCount: 2
Fore
SplineSet
836 685 m 1,0,-1
 590 0 l 1,1,-1
 515 0 l 1,2,-1
 453 617 l 1,3,-1
 217 0 l 1,4,-1
 144 0 l 1,5,-1
 90 685 l 1,6,-1
 149 685 l 1,7,-1
 190 57 l 1,8,-1
 428 685 l 1,9,-1
 496 685 l 1,10,-1
 559 56 l 1,11,-1
 779 685 l 1,12,-1
 836 685 l 1,0,-1
EndSplineSet
Substitution2: "'c2sc' Capitals to Small Capitals lookup 27 subtable" w.sc
Substitution2: "'aalt' Access All Alternates lookup 0 subtable" w.sc
Position2: "'cpsp' Capital Spacing lookup 0 subtable" dx=5 dy=0 dh=10 dv=0
EndChar

StartChar: uni2C72
Encoding: 11378 11378 297
Width: 846
GlyphClass: 2
Flags: W
AnchorPoint: "Anchor-18" 0 0 basechar 0
AnchorPoint: "Anchor-17" 0 0 basechar 0
AnchorPoint: "Anchor-16" 462 685 basechar 0
AnchorPoint: "Anchor-15" 0 0 basechar 0
AnchorPoint: "Anchor-14" 366 0 basechar 0
LayerCount: 2
Fore
SplineSet
217 0 m 1,0,-1
 453 618 l 1,1,-1
 515 0 l 1,2,-1
 590 0 l 1,3,-1
 795 589 l 2,4,5
 806 621 806 621 822.5 634.5 c 128,-1,6
 839 648 839 648 864 648 c 0,7,8
 882 648 882 648 897 640.5 c 128,-1,9
 912 633 912 633 929 620 c 1,10,-1
 957 654 l 1,11,12
 917 696 917 696 862 696 c 0,13,14
 818 696 818 696 789.5 675 c 128,-1,15
 761 654 761 654 744 603 c 2,16,-1
 559 56 l 1,17,-1
 496 685 l 1,18,-1
 428 685 l 1,19,-1
 190 57 l 1,20,-1
 149 685 l 1,21,-1
 90 685 l 1,22,-1
 144 0 l 1,23,-1
 217 0 l 1,0,-1
EndSplineSet
Substitution2: "'c2sc' Capitals to Small Capitals lookup 27 subtable" uni2C73.sc
Substitution2: "'aalt' Access All Alternates lookup 0 subtable" uni2C73.sc
Position2: "'cpsp' Capital Spacing lookup 0 subtable" dx=5 dy=0 dh=10 dv=0
EndChar

StartChar: uni01F7
Encoding: 503 503 298
Width: 567
GlyphClass: 2
Flags: W
AnchorPoint: "Anchor-18" 0 0 basechar 0
AnchorPoint: "Anchor-17" 0 0 basechar 0
AnchorPoint: "Anchor-16" 343 685 basechar 0
AnchorPoint: "Anchor-15" 0 0 basechar 0
AnchorPoint: "Anchor-14" 247 0 basechar 0
LayerCount: 2
Fore
SplineSet
516 654 m 128,-1,1
 561 612 561 612 561 539 c 0,2,3
 561 428 561 428 484 362 c 128,-1,4
 407 296 407 296 268 247 c 2,5,-1
 163 211 l 1,6,-1
 133 0 l 1,7,-1
 73 0 l 1,8,-1
 170 685 l 1,9,-1
 230 685 l 1,10,-1
 222 630 l 1,11,12
 300 696 300 696 399 696 c 0,13,0
 471 696 471 696 516 654 c 128,-1,1
438 394 m 128,-1,15
 498 450 498 450 498 537 c 0,16,17
 498 590 498 590 469.5 617.5 c 128,-1,18
 441 645 441 645 390 645 c 0,19,20
 294 645 294 645 215 576 c 1,21,-1
 170 263 l 1,22,-1
 270 299 l 2,23,14
 378 338 378 338 438 394 c 128,-1,15
EndSplineSet
Substitution2: "'c2sc' Capitals to Small Capitals lookup 27 subtable" uni01BF.sc
Substitution2: "'aalt' Access All Alternates lookup 0 subtable" uni01BF.sc
Position2: "'cpsp' Capital Spacing lookup 0 subtable" dx=5 dy=0 dh=10 dv=0
EndChar

StartChar: X
Encoding: 88 88 299
Width: 512
GlyphClass: 2
Flags: W
AnchorPoint: "Anchor-18" 0 0 basechar 0
AnchorPoint: "Anchor-17" 0 0 basechar 0
AnchorPoint: "Anchor-16" 314 685 basechar 0
AnchorPoint: "Anchor-15" 0 0 basechar 0
AnchorPoint: "Anchor-14" 218 0 basechar 0
LayerCount: 2
Fore
SplineSet
533 685 m 1,0,-1
 304 370 l 1,1,-1
 464 0 l 1,2,-1
 399 0 l 1,3,-1
 265 327 l 1,4,-1
 40 0 l 1,5,-1
 -27 0 l 1,6,-1
 233 369 l 1,7,-1
 90 685 l 1,8,-1
 156 685 l 1,9,-1
 271 409 l 1,10,-1
 467 685 l 1,11,-1
 533 685 l 1,0,-1
EndSplineSet
Substitution2: "'c2sc' Capitals to Small Capitals lookup 27 subtable" x.sc
Substitution2: "'aalt' Access All Alternates lookup 0 subtable" x.sc
Position2: "'cpsp' Capital Spacing lookup 0 subtable" dx=5 dy=0 dh=10 dv=0
EndChar

StartChar: Y
Encoding: 89 89 300
Width: 520
GlyphClass: 2
Flags: W
AnchorPoint: "Anchor-18" 0 0 basechar 0
AnchorPoint: "Anchor-17" 0 0 basechar 0
AnchorPoint: "Anchor-16" 319 685 basechar 0
AnchorPoint: "Anchor-15" 0 0 basechar 0
AnchorPoint: "Anchor-14" 224 0 basechar 0
LayerCount: 2
Fore
SplineSet
567 685 m 1,0,-1
 292 268 l 1,1,-1
 254 0 l 1,2,-1
 193 0 l 1,3,-1
 231 267 l 1,4,-1
 73 685 l 1,5,-1
 136 685 l 1,6,-1
 267 323 l 1,7,-1
 500 685 l 1,8,-1
 567 685 l 1,0,-1
EndSplineSet
Substitution2: "'c2sc' Capitals to Small Capitals lookup 27 subtable" y.sc
Substitution2: "'aalt' Access All Alternates lookup 0 subtable" y.sc
Position2: "'cpsp' Capital Spacing lookup 0 subtable" dx=5 dy=0 dh=10 dv=0
EndChar

StartChar: uni01B3
Encoding: 435 435 306
Width: 552
GlyphClass: 2
Flags: W
AnchorPoint: "Anchor-18" 0 0 basechar 0
AnchorPoint: "Anchor-17" 0 0 basechar 0
AnchorPoint: "Anchor-16" 336 685 basechar 0
AnchorPoint: "Anchor-15" 0 0 basechar 0
AnchorPoint: "Anchor-14" 224 0 basechar 0
LayerCount: 2
Fore
SplineSet
231 267 m 1,0,-1
 73 685 l 1,1,-1
 137 685 l 1,2,-1
 268 323 l 1,3,-1
 441 610 l 2,4,5
 469 658 469 658 497.5 677 c 128,-1,6
 526 696 526 696 567 696 c 0,7,8
 621 696 621 696 663 654 c 1,9,-1
 634 620 l 1,10,11
 601 648 601 648 569 648 c 0,12,13
 545 648 545 648 528 635 c 128,-1,14
 511 622 511 622 491 589 c 2,15,-1
 292 268 l 1,16,-1
 254 0 l 1,17,-1
 193 0 l 1,18,-1
 231 267 l 1,0,-1
EndSplineSet
Substitution2: "'c2sc' Capitals to Small Capitals lookup 27 subtable" uni01B4.sc
Substitution2: "'aalt' Access All Alternates lookup 0 subtable" uni01B4.sc
Position2: "'cpsp' Capital Spacing lookup 0 subtable" dx=5 dy=0 dh=10 dv=0
EndChar

StartChar: uni01A6
Encoding: 422 422 309
Width: 587
GlyphClass: 2
Flags: W
AnchorPoint: "Anchor-18" 0 0 basechar 0
AnchorPoint: "Anchor-17" 0 0 basechar 0
AnchorPoint: "Anchor-16" 353 685 basechar 0
AnchorPoint: "Anchor-15" 0 0 basechar 0
AnchorPoint: "Anchor-14" 0 0 basechar 0
LayerCount: 2
Fore
SplineSet
493.5 270.5 m 128,-1,1
 451 213 451 213 356 190 c 1,2,-1
 499 -126 l 1,3,-1
 433 -126 l 1,4,-1
 297 181 l 1,5,-1
 159 181 l 1,6,-1
 133 0 l 1,7,-1
 73 0 l 1,8,-1
 170 685 l 1,9,-1
 230 685 l 1,10,-1
 212 559 l 1,11,-1
 316 559 l 2,12,13
 428 559 428 559 482 519 c 128,-1,14
 536 479 536 479 536 400 c 0,15,0
 536 328 536 328 493.5 270.5 c 128,-1,1
284 230 m 2,16,17
 384 230 384 230 428.5 280.5 c 128,-1,18
 473 331 473 331 473 400 c 0,19,20
 473 457 473 457 436 483 c 128,-1,21
 399 509 399 509 316 509 c 2,22,-1
 205 509 l 1,23,-1
 166 230 l 1,24,-1
 284 230 l 2,16,17
EndSplineSet
Substitution2: "'c2sc' Capitals to Small Capitals lookup 27 subtable" uni0280.sc
Substitution2: "'aalt' Access All Alternates lookup 0 subtable" uni0280.sc
Position2: "'cpsp' Capital Spacing lookup 0 subtable" dx=5 dy=0 dh=10 dv=0
EndChar

StartChar: uni024E
Encoding: 590 590 310
Width: 523
GlyphClass: 2
Flags: W
AnchorPoint: "Anchor-18" 0 0 basechar 0
AnchorPoint: "Anchor-17" 0 0 basechar 0
AnchorPoint: "Anchor-16" 321 685 basechar 0
AnchorPoint: "Anchor-15" 0 0 basechar 0
AnchorPoint: "Anchor-14" 225 0 basechar 0
LayerCount: 2
Fore
SplineSet
569 685 m 1,0,-1
 510 595 l 1,1,-1
 557 595 l 1,2,-1
 550 550 l 1,3,-1
 480 550 l 1,4,-1
 294 268 l 1,5,-1
 256 0 l 1,6,-1
 195 0 l 1,7,-1
 233 267 l 1,8,-1
 125 550 l 1,9,-1
 56 550 l 1,10,-1
 62 595 l 1,11,-1
 108 595 l 1,12,-1
 74 685 l 1,13,-1
 138 685 l 1,14,-1
 171 595 l 1,15,-1
 444 595 l 1,16,-1
 502 685 l 1,17,-1
 569 685 l 1,0,-1
269 323 m 1,18,-1
 415 550 l 1,19,-1
 187 550 l 1,20,-1
 269 323 l 1,18,-1
EndSplineSet
Substitution2: "'c2sc' Capitals to Small Capitals lookup 27 subtable" uni024F.sc
Substitution2: "'aalt' Access All Alternates lookup 0 subtable" uni024F.sc
Position2: "'cpsp' Capital Spacing lookup 0 subtable" dx=5 dy=0 dh=10 dv=0
EndChar

StartChar: Z
Encoding: 90 90 312
Width: 513
GlyphClass: 2
Flags: W
AnchorPoint: "Anchor-18" 0 0 basechar 0
AnchorPoint: "Anchor-17" 0 0 basechar 0
AnchorPoint: "Anchor-16" 321 685 basechar 0
AnchorPoint: "Anchor-15" 0 0 basechar 0
AnchorPoint: "Anchor-14" 207 0 basechar 0
LayerCount: 2
Fore
SplineSet
-2 0 m 1,0,-1
 5 50 l 1,1,-1
 450 633 l 1,2,-1
 124 633 l 1,3,-1
 131 685 l 1,4,-1
 526 685 l 1,5,-1
 519 635 l 1,6,-1
 76 53 l 1,7,-1
 430 53 l 1,8,-1
 415 0 l 1,9,-1
 -2 0 l 1,0,-1
EndSplineSet
Substitution2: "'c2sc' Capitals to Small Capitals lookup 27 subtable" z.sc
Substitution2: "'aalt' Access All Alternates lookup 0 subtable" z.sc
Position2: "'cpsp' Capital Spacing lookup 0 subtable" dx=5 dy=0 dh=10 dv=0
EndChar

StartChar: uni0224
Encoding: 548 548 317
Width: 513
GlyphClass: 2
Flags: W
AnchorPoint: "Anchor-18" 0 0 basechar 0
AnchorPoint: "Anchor-17" 0 0 basechar 0
AnchorPoint: "Anchor-16" 316 685 basechar 0
AnchorPoint: "Anchor-15" 0 0 basechar 0
AnchorPoint: "Anchor-14" 0 0 basechar 0
LayerCount: 2
Fore
SplineSet
519 635 m 1,0,-1
 76 53 l 1,1,-1
 427 53 l 1,2,-1
 419 0 l 1,3,-1
 409 -72 l 2,4,5
 399 -139 399 -139 362 -172 c 128,-1,6
 325 -205 325 -205 269 -205 c 256,7,8
 213 -205 213 -205 170 -170 c 1,9,-1
 198 -133 l 1,10,11
 215 -145 215 -145 230 -150.5 c 128,-1,12
 245 -156 245 -156 268 -156 c 0,13,14
 300 -156 300 -156 322 -135 c 128,-1,15
 344 -114 344 -114 350 -70 c 2,16,-1
 360 0 l 1,17,-1
 -2 0 l 1,18,-1
 5 50 l 1,19,-1
 450 633 l 1,20,-1
 124 633 l 1,21,-1
 131 685 l 1,22,-1
 526 685 l 1,23,-1
 519 635 l 1,0,-1
EndSplineSet
Substitution2: "'c2sc' Capitals to Small Capitals lookup 27 subtable" uni0225.sc
Substitution2: "'aalt' Access All Alternates lookup 0 subtable" uni0225.sc
Position2: "'cpsp' Capital Spacing lookup 0 subtable" dx=5 dy=0 dh=10 dv=0
EndChar

StartChar: uni01B5
Encoding: 437 437 318
Width: 513
GlyphClass: 2
Flags: W
AnchorPoint: "Anchor-18" 0 0 basechar 0
AnchorPoint: "Anchor-17" 0 0 basechar 0
AnchorPoint: "Anchor-16" 316 685 basechar 0
AnchorPoint: "Anchor-15" 0 0 basechar 0
AnchorPoint: "Anchor-14" 220 0 basechar 0
LayerCount: 2
Fore
SplineSet
526 685 m 1,0,-1
 519 635 l 1,1,-1
 317 370 l 1,2,-1
 418 370 l 1,3,-1
 409 320 l 1,4,-1
 279 320 l 1,5,-1
 75 53 l 1,6,-1
 430 53 l 1,7,-1
 415 0 l 1,8,-1
 -2 0 l 1,9,-1
 5 50 l 1,10,-1
 211 320 l 1,11,-1
 106 320 l 1,12,-1
 115 370 l 1,13,-1
 249 370 l 1,14,-1
 450 633 l 1,15,-1
 124 633 l 1,16,-1
 131 685 l 1,17,-1
 526 685 l 1,0,-1
EndSplineSet
Substitution2: "'c2sc' Capitals to Small Capitals lookup 27 subtable" uni01B6.sc
Substitution2: "'aalt' Access All Alternates lookup 0 subtable" uni01B6.sc
Position2: "'cpsp' Capital Spacing lookup 0 subtable" dx=5 dy=0 dh=10 dv=0
EndChar

StartChar: Eng.ss01
Encoding: 65542 -1 324
Width: 659
GlyphClass: 2
Flags: W
AnchorPoint: "Anchor-18" 0 0 basechar 0
AnchorPoint: "Anchor-17" 0 0 basechar 0
AnchorPoint: "Anchor-16" 388 685 basechar 0
AnchorPoint: "Anchor-15" 0 0 basechar 0
AnchorPoint: "Anchor-14" 0 0 basechar 0
LayerCount: 2
Fore
SplineSet
553.5 655 m 128,-1,1
 593 614 593 614 593 541 c 0,2,3
 593 520 593 520 590 497 c 2,4,-1
 520 0 l 1,5,-1
 521 0 l 1,6,-1
 510 -72 l 2,7,8
 501 -139 501 -139 463.5 -172 c 128,-1,9
 426 -205 426 -205 369 -205 c 0,10,11
 313 -205 313 -205 270 -170 c 1,12,-1
 298 -132 l 1,13,14
 314 -144 314 -144 329.5 -149.5 c 128,-1,15
 345 -155 345 -155 368 -155 c 0,16,17
 400 -155 400 -155 422 -134.5 c 128,-1,18
 444 -114 444 -114 450 -70 c 2,19,-1
 461 0 l 1,20,-1
 460 0 l 1,21,-1
 529 489 l 2,22,23
 532 513 532 513 532 533 c 0,24,25
 532 590 532 590 506 617.5 c 128,-1,26
 480 645 480 645 427 645 c 0,27,28
 364 645 364 645 312.5 615.5 c 128,-1,29
 261 586 261 586 208 531 c 1,30,-1
 133 0 l 1,31,-1
 73 0 l 1,32,-1
 170 685 l 1,33,-1
 222 685 l 1,34,-1
 214 591 l 1,35,36
 317 696 317 696 437 696 c 0,37,0
 514 696 514 696 553.5 655 c 128,-1,1
EndSplineSet
Position2: "'cpsp' Capital Spacing lookup 0 subtable" dx=5 dy=0 dh=10 dv=0
EndChar

StartChar: uni019D.ss01
Encoding: 65543 -1 325
Width: 660
GlyphClass: 2
Flags: W
AnchorPoint: "Anchor-18" 0 0 basechar 0
AnchorPoint: "Anchor-17" 0 0 basechar 0
AnchorPoint: "Anchor-16" 389 685 basechar 0
AnchorPoint: "Anchor-15" 0 0 basechar 0
AnchorPoint: "Anchor-14" 0 0 basechar 0
LayerCount: 2
Fore
SplineSet
552.5 655 m 128,-1,1
 593 614 593 614 593 540 c 0,2,3
 593 520 593 520 590 497 c 2,4,-1
 521 0 l 1,5,-1
 461 0 l 1,6,-1
 530 489 l 2,7,8
 533 512 533 512 533 531 c 0,9,10
 533 645 533 645 427 645 c 0,11,12
 365 645 365 645 314.5 615.5 c 128,-1,13
 264 586 264 586 208 530 c 1,14,-1
 134 0 l 1,15,-1
 123 -72 l 2,16,17
 114 -139 114 -139 76.5 -172 c 128,-1,18
 39 -205 39 -205 -18 -205 c 0,19,20
 -74 -205 -74 -205 -117 -170 c 1,21,-1
 -89 -132 l 1,22,23
 -73 -144 -73 -144 -57.5 -149.5 c 128,-1,24
 -42 -155 -42 -155 -19 -155 c 0,25,26
 13 -155 13 -155 35 -134.5 c 128,-1,27
 57 -114 57 -114 63 -70 c 2,28,-1
 74 0 l 1,29,-1
 170 685 l 1,30,-1
 222 685 l 1,31,-1
 214 592 l 1,32,33
 315 696 315 696 436 696 c 0,34,0
 512 696 512 696 552.5 655 c 128,-1,1
EndSplineSet
Position2: "'cpsp' Capital Spacing lookup 0 subtable" dx=5 dy=0 dh=10 dv=0
EndChar

StartChar: uni2C64.ss01
Encoding: 65544 -1 326
Width: 396
GlyphClass: 2
Flags: W
AnchorPoint: "Anchor-18" 0 0 basechar 0
AnchorPoint: "Anchor-17" 0 0 basechar 0
AnchorPoint: "Anchor-16" 257 685 basechar 0
AnchorPoint: "Anchor-15" 0 0 basechar 0
AnchorPoint: "Anchor-14" 0 0 basechar 0
LayerCount: 2
Fore
SplineSet
450 686 m 1,1,-1
 433 629 l 1,2,3
 409 637 409 637 381 637 c 0,4,5
 318 637 318 637 276 598.5 c 128,-1,6
 234 560 234 560 201 477 c 1,7,-1
 133 0 l 1,8,-1
 123 -74 l 2,9,10
 121 -90 121 -90 121 -96 c 0,11,12
 121 -155 121 -155 175 -155 c 0,13,14
 199 -155 199 -155 217 -149 c 128,-1,15
 235 -143 235 -143 254 -132 c 1,16,-1
 276 -173 l 1,17,18
 231 -205 231 -205 171 -205 c 0,19,20
 120 -205 120 -205 90.5 -178 c 128,-1,21
 61 -151 61 -151 61 -98 c 0,22,23
 61 -89 61 -89 63 -69 c 2,24,-1
 73 0 l 1,25,-1
 170 685 l 1,26,-1
 222 685 l 1,27,-1
 211 576 l 1,28,29
 243 638 243 638 284 667 c 128,-1,30
 325 696 325 696 387 696 c 0,31,0
 420 696 420 696 450 686 c 1,1,-1
EndSplineSet
Position2: "'cpsp' Capital Spacing lookup 0 subtable" dx=5 dy=0 dh=10 dv=0
EndChar

StartChar: uniA78D.ss02
Encoding: 65546 -1 328
Width: 584
GlyphClass: 2
Flags: W
AnchorPoint: "Anchor-18" 0 0 basechar 0
AnchorPoint: "Anchor-17" 0 0 basechar 0
AnchorPoint: "Anchor-16" 324 685 basechar 0
AnchorPoint: "Anchor-15" 0 0 basechar 0
AnchorPoint: "Anchor-14" 255 0 basechar 0
LayerCount: 2
Fore
SplineSet
436 0 m 1,0,-1
 376 0 l 1,1,-1
 414 266 l 1,2,-1
 55 266 l 1,3,-1
 114 685 l 1,4,-1
 174 685 l 1,5,-1
 123 318 l 1,6,-1
 421 318 l 1,7,-1
 473 685 l 1,8,-1
 533 685 l 1,9,-1
 436 0 l 1,0,-1
EndSplineSet
Position2: "'cpsp' Capital Spacing lookup 0 subtable" dx=5 dy=0 dh=10 dv=0
EndChar

StartChar: uni0299
Encoding: 665 665 329
Width: 523
GlyphClass: 2
Flags: W
AnchorPoint: "Anchor-18" 0 0 basechar 0
AnchorPoint: "Anchor-17" 0 0 basechar 0
AnchorPoint: "Anchor-16" 299 523 basechar 0
AnchorPoint: "Anchor-15" 0 0 basechar 0
AnchorPoint: "Anchor-14" 225 0 basechar 0
LayerCount: 2
Fore
SplineSet
471 178 m 0,1,2
 471 89 471 89 406.5 44.5 c 128,-1,3
 342 0 342 0 238 0 c 2,4,-1
 69 0 l 1,5,-1
 141 518 l 1,6,7
 230 534 230 534 302 534 c 0,8,9
 386 534 386 534 431 501.5 c 128,-1,10
 476 469 476 469 476 412 c 0,11,12
 476 360 476 360 444.5 327.5 c 128,-1,13
 413 295 413 295 358 283 c 1,14,0
 471 272 471 272 471 178 c 0,1,2
196 478 m 1,16,-1
 171 302 l 1,17,-1
 289 302 l 2,18,19
 347 302 347 302 382 331 c 128,-1,20
 417 360 417 360 417 409 c 0,21,22
 417 447 417 447 389.5 466.5 c 128,-1,23
 362 486 362 486 302 486 c 0,24,15
 249 486 249 486 196 478 c 1,16,-1
361 78.5 m 128,-1,26
 410 109 410 109 410 178 c 0,27,28
 410 220 410 220 380.5 238 c 128,-1,29
 351 256 351 256 293 256 c 2,30,-1
 164 256 l 1,31,-1
 134 48 l 1,32,-1
 235 48 l 2,33,25
 312 48 312 48 361 78.5 c 128,-1,26
EndSplineSet
EndChar

StartChar: uni0262
Encoding: 610 610 330
Width: 553
GlyphClass: 2
Flags: W
AnchorPoint: "Anchor-18" 0 0 basechar 0
AnchorPoint: "Anchor-17" 0 0 basechar 0
AnchorPoint: "Anchor-16" 334 523 basechar 0
AnchorPoint: "Anchor-15" 0 0 basechar 0
AnchorPoint: "Anchor-14" 260 0 basechar 0
LayerCount: 2
Fore
SplineSet
419.5 520.5 m 128,-1,1
 456 506 456 506 491 477 c 1,2,-1
 455 441 l 1,3,4
 427 464 427 464 398 474.5 c 128,-1,5
 369 485 369 485 332 485 c 0,6,7
 265 485 265 485 217 445 c 128,-1,8
 169 405 169 405 144.5 339.5 c 128,-1,9
 120 274 120 274 120 199 c 0,10,11
 120 39 120 39 263 39 c 0,12,13
 325 39 325 39 385 66 c 1,14,-1
 407 238 l 1,15,-1
 298 238 l 1,16,-1
 298 286 l 1,17,-1
 472 286 l 1,18,-1
 439 37 l 1,19,20
 350 -9 350 -9 259 -9 c 0,21,22
 164 -9 164 -9 112 44.5 c 128,-1,23
 60 98 60 98 60 203 c 0,24,25
 60 293 60 293 94 369 c 128,-1,26
 128 445 128 445 190.5 490 c 128,-1,27
 253 535 253 535 333 535 c 0,28,0
 383 535 383 535 419.5 520.5 c 128,-1,1
EndSplineSet
EndChar

StartChar: uni029B
Encoding: 667 667 331
Width: 554
GlyphClass: 2
Flags: W
AnchorPoint: "Anchor-18" 0 0 basechar 0
AnchorPoint: "Anchor-17" 0 0 basechar 0
AnchorPoint: "Anchor-16" 344 736 basechar 0
AnchorPoint: "Anchor-15" 0 0 basechar 0
AnchorPoint: "Anchor-14" 259 0 basechar 0
LayerCount: 2
Fore
SplineSet
690 708 m 1,1,-1
 662 672 l 1,2,3
 645 683 645 683 629.5 689 c 128,-1,4
 614 695 614 695 592 695 c 0,5,6
 559 695 559 695 536.5 674 c 128,-1,7
 514 653 514 653 508 610 c 2,8,-1
 490 477 l 1,9,-1
 460 447 l 1,10,11
 401 485 401 485 331 485 c 0,12,13
 265 485 265 485 217 445 c 128,-1,14
 169 405 169 405 144 339.5 c 128,-1,15
 119 274 119 274 119 199 c 0,16,17
 119 39 119 39 262 39 c 0,18,19
 325 39 325 39 384 66 c 1,20,-1
 407 238 l 1,21,-1
 298 238 l 1,22,-1
 298 286 l 1,23,-1
 472 286 l 1,24,-1
 438 37 l 1,25,26
 351 -9 351 -9 258 -9 c 0,27,28
 164 -9 164 -9 111.5 44 c 128,-1,29
 59 97 59 97 59 201 c 0,30,31
 59 291 59 291 93.5 368 c 128,-1,32
 128 445 128 445 190 490 c 128,-1,33
 252 535 252 535 330 535 c 0,34,35
 396 535 396 535 437 509 c 1,36,-1
 451 611 l 2,37,38
 461 677 461 677 497.5 710.5 c 128,-1,39
 534 744 534 744 590 744 c 0,40,0
 648 744 648 744 690 708 c 1,1,-1
EndSplineSet
EndChar

StartChar: uni026A
Encoding: 618 618 333
Width: 310
GlyphClass: 2
Flags: W
AnchorPoint: "Anchor-18" 0 0 basechar 0
AnchorPoint: "Anchor-17" 0 0 basechar 0
AnchorPoint: "Anchor-16" 192 523 basechar 0
AnchorPoint: "Anchor-15" 0 0 basechar 0
AnchorPoint: "Anchor-14" 118 0 basechar 0
LayerCount: 2
Fore
SplineSet
317 478 m 1,0,-1
 214 478 l 1,1,-1
 153 46 l 1,2,-1
 256 46 l 1,3,-1
 250 0 l 1,4,-1
 -14 0 l 1,5,-1
 -8 46 l 1,6,-1
 95 46 l 1,7,-1
 156 478 l 1,8,-1
 53 478 l 1,9,-1
 60 523 l 1,10,-1
 323 523 l 1,11,-1
 317 478 l 1,0,-1
EndSplineSet
EndChar

StartChar: uni029F
Encoding: 671 671 334
Width: 415
GlyphClass: 2
Flags: W
AnchorPoint: "Anchor-18" 0 0 basechar 0
AnchorPoint: "Anchor-17" 0 0 basechar 0
AnchorPoint: "Anchor-16" 172 523 basechar 0
AnchorPoint: "Anchor-15" 0 0 basechar 0
AnchorPoint: "Anchor-14" 213 0 basechar 0
LayerCount: 2
Fore
SplineSet
200 523 m 1,0,-1
 134 51 l 1,1,-1
 373 51 l 1,2,-1
 357 0 l 1,3,-1
 68 0 l 1,4,-1
 142 523 l 1,5,-1
 200 523 l 1,0,-1
EndSplineSet
EndChar

StartChar: uni0274
Encoding: 628 628 335
Width: 587
GlyphClass: 2
Flags: W
AnchorPoint: "Anchor-18" 0 0 basechar 0
AnchorPoint: "Anchor-17" 0 0 basechar 0
AnchorPoint: "Anchor-16" 331 523 basechar 0
AnchorPoint: "Anchor-15" 0 0 basechar 0
AnchorPoint: "Anchor-14" 257 0 basechar 0
LayerCount: 2
Fore
SplineSet
444 0 m 1,0,-1
 371 0 l 1,1,-1
 181 464 l 1,2,3
 178 390 178 390 159 255 c 2,4,-1
 123 0 l 1,5,-1
 68 0 l 1,6,-1
 142 523 l 1,7,-1
 216 523 l 1,8,-1
 406 58 l 1,9,10
 408 122 408 122 422 223 c 2,11,-1
 464 523 l 1,12,-1
 518 523 l 1,13,-1
 444 0 l 1,0,-1
EndSplineSet
EndChar

StartChar: uni0276
Encoding: 630 630 336
Width: 726
GlyphClass: 2
Flags: W
AnchorPoint: "Anchor-18" 0 0 basechar 0
AnchorPoint: "Anchor-17" 0 0 basechar 0
AnchorPoint: "Anchor-16" 435 523 basechar 0
AnchorPoint: "Anchor-15" 0 0 basechar 0
AnchorPoint: "Anchor-14" 361 0 basechar 0
LayerCount: 2
Fore
SplineSet
706 475 m 1,0,-1
 455 475 l 1,1,2
 482 451 482 451 496.5 406.5 c 128,-1,3
 511 362 511 362 510 308 c 2,4,-1
 510 295 l 1,5,-1
 649 295 l 1,6,-1
 642 248 l 1,7,-1
 505 248 l 1,8,9
 495 186 495 186 466 133.5 c 128,-1,10
 437 81 437 81 392 48 c 1,11,-1
 658 48 l 1,12,-1
 651 0 l 1,13,-1
 317 0 l 1,14,15
 279 -11 279 -11 248 -11 c 0,16,17
 159 -11 159 -11 109.5 45 c 128,-1,18
 60 101 60 101 60 201 c 0,19,20
 60 276 60 276 86 352.5 c 128,-1,21
 112 429 112 429 170.5 481.5 c 128,-1,22
 229 534 229 534 321 534 c 0,23,24
 357 534 357 534 393 523 c 1,25,-1
 720 523 l 1,26,-1
 706 475 l 1,0,-1
366.5 84 m 128,-1,28
 411 130 411 130 430 196.5 c 128,-1,29
 449 263 449 263 449 328 c 0,30,31
 449 406 449 406 416 446 c 128,-1,32
 383 486 383 486 320 486 c 0,33,34
 248 486 248 486 203 439.5 c 128,-1,35
 158 393 158 393 139 326 c 128,-1,36
 120 259 120 259 120 196 c 0,37,38
 120 118 120 118 154 78 c 128,-1,39
 188 38 188 38 251 38 c 0,40,27
 322 38 322 38 366.5 84 c 128,-1,28
EndSplineSet
EndChar

StartChar: uni0280
Encoding: 640 640 337
Width: 513
GlyphClass: 2
Flags: W
AnchorPoint: "Anchor-18" 0 0 basechar 0
AnchorPoint: "Anchor-17" 0 0 basechar 0
AnchorPoint: "Anchor-16" 294 523 basechar 0
AnchorPoint: "Anchor-15" 0 0 basechar 0
AnchorPoint: "Anchor-14" 240 0 basechar 0
LayerCount: 2
Fore
SplineSet
422 282 m 128,-1,1
 383 242 383 242 315 225 c 1,2,-1
 433 0 l 1,3,-1
 370 0 l 1,4,-1
 261 216 l 1,5,-1
 157 216 l 1,6,-1
 126 0 l 1,7,-1
 68 0 l 1,8,-1
 142 523 l 1,9,-1
 272 523 l 2,10,11
 366 523 366 523 413.5 488.5 c 128,-1,12
 461 454 461 454 461 387 c 0,13,0
 461 322 461 322 422 282 c 128,-1,1
243 263 m 2,14,15
 318 263 318 263 359.5 295.5 c 128,-1,16
 401 328 401 328 401 386 c 0,17,18
 401 433 401 433 369 454.5 c 128,-1,19
 337 476 337 476 266 476 c 2,20,-1
 194 476 l 1,21,-1
 164 263 l 1,22,-1
 243 263 l 2,14,15
EndSplineSet
Substitution2: "'smcp' Lowercase to Small Capitals lookup 28 subtable" uni0280.sc
Substitution2: "'aalt' Access All Alternates lookup 0 subtable" uni0280.sc
EndChar

StartChar: uni0281
Encoding: 641 641 338
Width: 513
GlyphClass: 2
Flags: W
LayerCount: 2
Fore
SplineSet
403.5 253 m 128,-1,1
 430 222 430 222 430 174 c 0,2,3
 430 88 430 88 368 44 c 128,-1,4
 306 0 306 0 201 0 c 2,5,-1
 68 0 l 1,6,-1
 142 523 l 1,7,-1
 200 523 l 1,8,-1
 170 307 l 1,9,-1
 275 307 l 1,10,-1
 444 523 l 1,11,-1
 508 523 l 1,12,-1
 327 298 l 1,13,0
 377 284 377 284 403.5 253 c 128,-1,1
326 78 m 128,-1,15
 370 109 370 109 370 174 c 0,16,17
 370 260 370 260 250 260 c 2,18,-1
 163 260 l 1,19,-1
 133 47 l 1,20,-1
 202 47 l 2,21,14
 282 47 282 47 326 78 c 128,-1,15
EndSplineSet
EndChar

StartChar: uni028F
Encoding: 655 655 339
Width: 444
GlyphClass: 2
Flags: W
AnchorPoint: "Anchor-18" 0 0 basechar 0
AnchorPoint: "Anchor-17" 0 0 basechar 0
AnchorPoint: "Anchor-16" 259 523 basechar 0
AnchorPoint: "Anchor-15" 0 0 basechar 0
AnchorPoint: "Anchor-14" 185 0 basechar 0
LayerCount: 2
Fore
SplineSet
466 523 m 1,0,-1
 244 206 l 1,1,-1
 215 0 l 1,2,-1
 157 0 l 1,3,-1
 186 205 l 1,4,-1
 52 523 l 1,5,-1
 113 523 l 1,6,-1
 220 251 l 1,7,-1
 401 523 l 1,8,-1
 466 523 l 1,0,-1
EndSplineSet
EndChar

StartChar: a
Encoding: 97 97 340
Width: 560
GlyphClass: 2
Flags: W
AnchorPoint: "Anchor-18" 0 0 basechar 0
AnchorPoint: "Anchor-17" 0 0 basechar 0
AnchorPoint: "Anchor-16" 338 523 basechar 0
AnchorPoint: "Anchor-15" 463 -11 basechar 0
AnchorPoint: "Anchor-14" 271 0 basechar 0
LayerCount: 2
Fore
SplineSet
415 523 m 128,-1,1
 454 512 454 512 495 491 c 1,2,-1
 440 114 l 2,3,4
 438 103 438 103 438 84 c 0,5,6
 438 63 438 63 445.5 50.5 c 128,-1,7
 453 38 453 38 471 30 c 1,8,-1
 454 -11 l 1,9,10
 419 -3 419 -3 401 18.5 c 128,-1,11
 383 40 383 40 384 84 c 1,12,13
 354 40 354 40 312.5 14.5 c 128,-1,14
 271 -11 271 -11 223 -11 c 0,15,16
 145 -11 145 -11 101.5 43.5 c 128,-1,17
 58 98 58 98 58 192 c 0,18,19
 58 270 58 270 86 349 c 128,-1,20
 114 428 114 428 174.5 481 c 128,-1,21
 235 534 235 534 327 534 c 0,22,0
 376 534 376 534 415 523 c 128,-1,1
210.5 441 m 128,-1,24
 163 395 163 395 141.5 327 c 128,-1,25
 120 259 120 259 120 192 c 0,26,27
 120 116 120 116 149 77 c 128,-1,28
 178 38 178 38 232 38 c 0,29,30
 279 38 279 38 316.5 66 c 128,-1,31
 354 94 354 94 388 148 c 1,32,-1
 433 463 l 1,33,34
 385 487 385 487 329 487 c 0,35,23
 258 487 258 487 210.5 441 c 128,-1,24
EndSplineSet
Substitution2: "Single Substitution lookup 44 subtable" ordfeminine
Substitution2: "'smcp' Lowercase to Small Capitals lookup 28 subtable" a.sc
AlternateSubs2: "'aalt' Access All Alternates lookup 1 subtable" ordfeminine a.sc
EndChar

StartChar: uni1EAF
Encoding: 7855 7855 343
Width: 560
GlyphClass: 2
Flags: W
AnchorPoint: "Anchor-18" 0 0 basechar 0
AnchorPoint: "Anchor-17" 0 0 basechar 0
AnchorPoint: "Anchor-16" 362 707 basechar 0
AnchorPoint: "Anchor-15" 463 -11 basechar 0
AnchorPoint: "Anchor-14" 0 0 basechar 0
LayerCount: 2
Fore
SplineSet
452 865 m 1,0,-1
 487 827 l 1,1,-1
 352 708 l 1,2,-1
 327 733 l 1,3,-1
 452 865 l 1,0,-1
264.5 625.5 m 128,-1,5
 232 655 232 655 231 699 c 1,6,-1
 270 705 l 1,7,8
 276 676 276 676 296 660 c 128,-1,9
 316 644 316 644 350 644 c 0,10,11
 385 644 385 644 411 661.5 c 128,-1,12
 437 679 437 679 451 707 c 1,13,-1
 490 695 l 1,14,15
 478 652 478 652 438.5 624 c 128,-1,16
 399 596 399 596 349 596 c 0,17,4
 297 596 297 596 264.5 625.5 c 128,-1,5
415 523 m 128,-1,19
 454 512 454 512 495 491 c 1,20,-1
 440 114 l 2,21,22
 438 103 438 103 438 84 c 0,23,24
 438 63 438 63 445.5 50.5 c 128,-1,25
 453 38 453 38 471 30 c 1,26,-1
 454 -11 l 1,27,28
 419 -3 419 -3 401 18.5 c 128,-1,29
 383 40 383 40 384 84 c 1,30,31
 354 40 354 40 312.5 14.5 c 128,-1,32
 271 -11 271 -11 223 -11 c 0,33,34
 145 -11 145 -11 101.5 43.5 c 128,-1,35
 58 98 58 98 58 192 c 0,36,37
 58 270 58 270 86 349 c 128,-1,38
 114 428 114 428 174.5 481 c 128,-1,39
 235 534 235 534 327 534 c 0,40,18
 376 534 376 534 415 523 c 128,-1,19
210.5 441 m 128,-1,42
 163 395 163 395 141.5 327 c 128,-1,43
 120 259 120 259 120 192 c 0,44,45
 120 116 120 116 149 77 c 128,-1,46
 178 38 178 38 232 38 c 0,47,48
 279 38 279 38 316.5 66 c 128,-1,49
 354 94 354 94 388 148 c 1,50,-1
 433 463 l 1,51,52
 385 487 385 487 329 487 c 0,53,41
 258 487 258 487 210.5 441 c 128,-1,42
EndSplineSet
Substitution2: "'smcp' Lowercase to Small Capitals lookup 28 subtable" uni1EAF.sc
Substitution2: "'aalt' Access All Alternates lookup 0 subtable" uni1EAF.sc
EndChar

StartChar: uni1EB1
Encoding: 7857 7857 345
Width: 560
GlyphClass: 2
Flags: W
AnchorPoint: "Anchor-18" 0 0 basechar 0
AnchorPoint: "Anchor-17" 0 0 basechar 0
AnchorPoint: "Anchor-16" 362 707 basechar 0
AnchorPoint: "Anchor-15" 463 -11 basechar 0
AnchorPoint: "Anchor-14" 0 0 basechar 0
LayerCount: 2
Fore
SplineSet
290 864 m 1,0,-1
 380 730 l 1,1,-1
 353 708 l 1,2,-1
 249 829 l 1,3,-1
 290 864 l 1,0,-1
264.5 625.5 m 128,-1,5
 232 655 232 655 231 699 c 1,6,-1
 270 705 l 1,7,8
 276 676 276 676 296 660 c 128,-1,9
 316 644 316 644 350 644 c 0,10,11
 385 644 385 644 411 661.5 c 128,-1,12
 437 679 437 679 451 707 c 1,13,-1
 490 695 l 1,14,15
 478 652 478 652 438.5 624 c 128,-1,16
 399 596 399 596 349 596 c 0,17,4
 297 596 297 596 264.5 625.5 c 128,-1,5
415 523 m 128,-1,19
 454 512 454 512 495 491 c 1,20,-1
 440 114 l 2,21,22
 438 103 438 103 438 84 c 0,23,24
 438 63 438 63 445.5 50.5 c 128,-1,25
 453 38 453 38 471 30 c 1,26,-1
 454 -11 l 1,27,28
 419 -3 419 -3 401 18.5 c 128,-1,29
 383 40 383 40 384 84 c 1,30,31
 354 40 354 40 312.5 14.5 c 128,-1,32
 271 -11 271 -11 223 -11 c 0,33,34
 145 -11 145 -11 101.5 43.5 c 128,-1,35
 58 98 58 98 58 192 c 0,36,37
 58 270 58 270 86 349 c 128,-1,38
 114 428 114 428 174.5 481 c 128,-1,39
 235 534 235 534 327 534 c 0,40,18
 376 534 376 534 415 523 c 128,-1,19
210.5 441 m 128,-1,42
 163 395 163 395 141.5 327 c 128,-1,43
 120 259 120 259 120 192 c 0,44,45
 120 116 120 116 149 77 c 128,-1,46
 178 38 178 38 232 38 c 0,47,48
 279 38 279 38 316.5 66 c 128,-1,49
 354 94 354 94 388 148 c 1,50,-1
 433 463 l 1,51,52
 385 487 385 487 329 487 c 0,53,41
 258 487 258 487 210.5 441 c 128,-1,42
EndSplineSet
Substitution2: "'smcp' Lowercase to Small Capitals lookup 28 subtable" uni1EB1.sc
Substitution2: "'aalt' Access All Alternates lookup 0 subtable" uni1EB1.sc
EndChar

StartChar: uni1EB5
Encoding: 7861 7861 347
Width: 560
GlyphClass: 2
Flags: W
AnchorPoint: "Anchor-18" 0 0 basechar 0
AnchorPoint: "Anchor-17" 0 0 basechar 0
AnchorPoint: "Anchor-16" 372 838 basechar 0
AnchorPoint: "Anchor-15" 463 -11 basechar 0
AnchorPoint: "Anchor-14" 0 0 basechar 0
LayerCount: 2
Fore
SplineSet
391.5 751.5 m 128,-1,1
 377 758 377 758 358 771 c 0,2,3
 345 781 345 781 334.5 786 c 128,-1,4
 324 791 324 791 313 791 c 0,5,6
 295 791 295 791 282 781.5 c 128,-1,7
 269 772 269 772 250 749 c 1,8,-1
 217 771 l 1,9,10
 262 837 262 837 314 837 c 0,11,12
 332 837 332 837 345.5 830.5 c 128,-1,13
 359 824 359 824 378 812 c 0,14,15
 396 801 396 801 405 796.5 c 128,-1,16
 414 792 414 792 425 792 c 0,17,18
 441 792 441 792 455.5 802.5 c 128,-1,19
 470 813 470 813 487 836 c 1,20,-1
 523 815 l 1,21,22
 479 745 479 745 426 745 c 0,23,0
 406 745 406 745 391.5 751.5 c 128,-1,1
264.5 625.5 m 128,-1,25
 232 655 232 655 231 699 c 1,26,-1
 270 705 l 1,27,28
 276 676 276 676 296 660 c 128,-1,29
 316 644 316 644 350 644 c 0,30,31
 385 644 385 644 411 661.5 c 128,-1,32
 437 679 437 679 451 707 c 1,33,-1
 490 695 l 1,34,35
 478 652 478 652 438.5 624 c 128,-1,36
 399 596 399 596 349 596 c 0,37,24
 297 596 297 596 264.5 625.5 c 128,-1,25
415 523 m 128,-1,39
 454 512 454 512 495 491 c 1,40,-1
 440 114 l 2,41,42
 438 103 438 103 438 84 c 0,43,44
 438 63 438 63 445.5 50.5 c 128,-1,45
 453 38 453 38 471 30 c 1,46,-1
 454 -11 l 1,47,48
 419 -3 419 -3 401 18.5 c 128,-1,49
 383 40 383 40 384 84 c 1,50,51
 354 40 354 40 312.5 14.5 c 128,-1,52
 271 -11 271 -11 223 -11 c 0,53,54
 145 -11 145 -11 101.5 43.5 c 128,-1,55
 58 98 58 98 58 192 c 0,56,57
 58 270 58 270 86 349 c 128,-1,58
 114 428 114 428 174.5 481 c 128,-1,59
 235 534 235 534 327 534 c 0,60,38
 376 534 376 534 415 523 c 128,-1,39
210.5 441 m 128,-1,62
 163 395 163 395 141.5 327 c 128,-1,63
 120 259 120 259 120 192 c 0,64,65
 120 116 120 116 149 77 c 128,-1,66
 178 38 178 38 232 38 c 0,67,68
 279 38 279 38 316.5 66 c 128,-1,69
 354 94 354 94 388 148 c 1,70,-1
 433 463 l 1,71,72
 385 487 385 487 329 487 c 0,73,61
 258 487 258 487 210.5 441 c 128,-1,62
EndSplineSet
Substitution2: "'smcp' Lowercase to Small Capitals lookup 28 subtable" uni1EB5.sc
Substitution2: "'aalt' Access All Alternates lookup 0 subtable" uni1EB5.sc
EndChar

StartChar: uni1EA5
Encoding: 7845 7845 350
Width: 560
GlyphClass: 2
Flags: W
AnchorPoint: "Anchor-18" 0 0 basechar 0
AnchorPoint: "Anchor-17" 438 581 basechar 0
AnchorPoint: "Anchor-16" 360 719 basechar 0
AnchorPoint: "Anchor-15" 463 -11 basechar 0
AnchorPoint: "Anchor-14" 0 0 basechar 0
LayerCount: 2
Fore
SplineSet
559 850 m 1,0,-1
 594 812 l 1,1,-1
 459 693 l 1,2,-1
 434 718 l 1,3,-1
 559 850 l 1,0,-1
223 587 m 1,4,-1
 199 618 l 1,5,-1
 341 719 l 1,6,-1
 378 719 l 1,7,-1
 492 617 l 1,8,-1
 465 587 l 1,9,-1
 355 667 l 1,10,-1
 223 587 l 1,4,-1
415 523 m 128,-1,12
 454 512 454 512 495 491 c 1,13,-1
 440 114 l 2,14,15
 438 103 438 103 438 84 c 0,16,17
 438 63 438 63 445.5 50.5 c 128,-1,18
 453 38 453 38 471 30 c 1,19,-1
 454 -11 l 1,20,21
 419 -3 419 -3 401 18.5 c 128,-1,22
 383 40 383 40 384 84 c 1,23,24
 354 40 354 40 312.5 14.5 c 128,-1,25
 271 -11 271 -11 223 -11 c 0,26,27
 145 -11 145 -11 101.5 43.5 c 128,-1,28
 58 98 58 98 58 192 c 0,29,30
 58 270 58 270 86 349 c 128,-1,31
 114 428 114 428 174.5 481 c 128,-1,32
 235 534 235 534 327 534 c 0,33,11
 376 534 376 534 415 523 c 128,-1,12
210.5 441 m 128,-1,35
 163 395 163 395 141.5 327 c 128,-1,36
 120 259 120 259 120 192 c 0,37,38
 120 116 120 116 149 77 c 128,-1,39
 178 38 178 38 232 38 c 0,40,41
 279 38 279 38 316.5 66 c 128,-1,42
 354 94 354 94 388 148 c 1,43,-1
 433 463 l 1,44,45
 385 487 385 487 329 487 c 0,46,34
 258 487 258 487 210.5 441 c 128,-1,35
EndSplineSet
Substitution2: "'smcp' Lowercase to Small Capitals lookup 28 subtable" uni1EA5.sc
Substitution2: "'aalt' Access All Alternates lookup 0 subtable" uni1EA5.sc
EndChar

StartChar: uni1EA7
Encoding: 7847 7847 352
Width: 560
GlyphClass: 2
Flags: W
AnchorPoint: "Anchor-18" 0 0 basechar 0
AnchorPoint: "Anchor-17" 438 581 basechar 0
AnchorPoint: "Anchor-16" 360 719 basechar 0
AnchorPoint: "Anchor-15" 463 -11 basechar 0
AnchorPoint: "Anchor-14" 0 0 basechar 0
LayerCount: 2
Fore
SplineSet
184 849 m 1,0,-1
 274 715 l 1,1,-1
 247 693 l 1,2,-1
 143 814 l 1,3,-1
 184 849 l 1,0,-1
223 587 m 1,4,-1
 199 618 l 1,5,-1
 341 719 l 1,6,-1
 378 719 l 1,7,-1
 492 617 l 1,8,-1
 465 587 l 1,9,-1
 355 667 l 1,10,-1
 223 587 l 1,4,-1
415 523 m 128,-1,12
 454 512 454 512 495 491 c 1,13,-1
 440 114 l 2,14,15
 438 103 438 103 438 84 c 0,16,17
 438 63 438 63 445.5 50.5 c 128,-1,18
 453 38 453 38 471 30 c 1,19,-1
 454 -11 l 1,20,21
 419 -3 419 -3 401 18.5 c 128,-1,22
 383 40 383 40 384 84 c 1,23,24
 354 40 354 40 312.5 14.5 c 128,-1,25
 271 -11 271 -11 223 -11 c 0,26,27
 145 -11 145 -11 101.5 43.5 c 128,-1,28
 58 98 58 98 58 192 c 0,29,30
 58 270 58 270 86 349 c 128,-1,31
 114 428 114 428 174.5 481 c 128,-1,32
 235 534 235 534 327 534 c 0,33,11
 376 534 376 534 415 523 c 128,-1,12
210.5 441 m 128,-1,35
 163 395 163 395 141.5 327 c 128,-1,36
 120 259 120 259 120 192 c 0,37,38
 120 116 120 116 149 77 c 128,-1,39
 178 38 178 38 232 38 c 0,40,41
 279 38 279 38 316.5 66 c 128,-1,42
 354 94 354 94 388 148 c 1,43,-1
 433 463 l 1,44,45
 385 487 385 487 329 487 c 0,46,34
 258 487 258 487 210.5 441 c 128,-1,35
EndSplineSet
Substitution2: "'smcp' Lowercase to Small Capitals lookup 28 subtable" uni1EA7.sc
Substitution2: "'aalt' Access All Alternates lookup 0 subtable" uni1EA7.sc
EndChar

StartChar: uni1EAB
Encoding: 7851 7851 354
Width: 560
GlyphClass: 2
Flags: W
AnchorPoint: "Anchor-18" 0 0 basechar 0
AnchorPoint: "Anchor-17" 437 571 basechar 0
AnchorPoint: "Anchor-16" 373 834 basechar 0
AnchorPoint: "Anchor-15" 463 -11 basechar 0
AnchorPoint: "Anchor-14" 0 0 basechar 0
LayerCount: 2
Fore
SplineSet
392.5 747.5 m 128,-1,1
 378 754 378 754 359 767 c 0,2,3
 346 777 346 777 335.5 782 c 128,-1,4
 325 787 325 787 314 787 c 0,5,6
 296 787 296 787 283 777.5 c 128,-1,7
 270 768 270 768 251 745 c 1,8,-1
 218 767 l 1,9,10
 263 833 263 833 315 833 c 0,11,12
 333 833 333 833 346.5 826.5 c 128,-1,13
 360 820 360 820 379 808 c 0,14,15
 397 797 397 797 406 792.5 c 128,-1,16
 415 788 415 788 426 788 c 0,17,18
 442 788 442 788 456.5 798.5 c 128,-1,19
 471 809 471 809 488 832 c 1,20,-1
 524 811 l 1,21,22
 480 741 480 741 427 741 c 0,23,0
 407 741 407 741 392.5 747.5 c 128,-1,1
222 577 m 1,24,-1
 198 608 l 1,25,-1
 340 709 l 1,26,-1
 377 709 l 1,27,-1
 491 607 l 1,28,-1
 464 577 l 1,29,-1
 354 657 l 1,30,-1
 222 577 l 1,24,-1
415 523 m 128,-1,32
 454 512 454 512 495 491 c 1,33,-1
 440 114 l 2,34,35
 438 103 438 103 438 84 c 0,36,37
 438 63 438 63 445.5 50.5 c 128,-1,38
 453 38 453 38 471 30 c 1,39,-1
 454 -11 l 1,40,41
 419 -3 419 -3 401 18.5 c 128,-1,42
 383 40 383 40 384 84 c 1,43,44
 354 40 354 40 312.5 14.5 c 128,-1,45
 271 -11 271 -11 223 -11 c 0,46,47
 145 -11 145 -11 101.5 43.5 c 128,-1,48
 58 98 58 98 58 192 c 0,49,50
 58 270 58 270 86 349 c 128,-1,51
 114 428 114 428 174.5 481 c 128,-1,52
 235 534 235 534 327 534 c 0,53,31
 376 534 376 534 415 523 c 128,-1,32
210.5 441 m 128,-1,55
 163 395 163 395 141.5 327 c 128,-1,56
 120 259 120 259 120 192 c 0,57,58
 120 116 120 116 149 77 c 128,-1,59
 178 38 178 38 232 38 c 0,60,61
 279 38 279 38 316.5 66 c 128,-1,62
 354 94 354 94 388 148 c 1,63,-1
 433 463 l 1,64,65
 385 487 385 487 329 487 c 0,66,54
 258 487 258 487 210.5 441 c 128,-1,55
EndSplineSet
Substitution2: "'smcp' Lowercase to Small Capitals lookup 28 subtable" uni1EAB.sc
Substitution2: "'aalt' Access All Alternates lookup 0 subtable" uni1EAB.sc
EndChar

StartChar: uni0251
Encoding: 593 593 364
Width: 560
GlyphClass: 2
Flags: W
AnchorPoint: "Anchor-18" 0 0 basechar 0
AnchorPoint: "Anchor-17" 0 0 basechar 0
AnchorPoint: "Anchor-16" 318 523 basechar 0
AnchorPoint: "Anchor-15" 0 0 basechar 0
AnchorPoint: "Anchor-14" 244 0 basechar 0
LayerCount: 2
Fore
SplineSet
438 84 m 0,1,2
 438 63 438 63 445.5 50.5 c 128,-1,3
 453 38 453 38 471 30 c 1,4,-1
 454 -11 l 1,5,6
 419 -3 419 -3 401 18.5 c 128,-1,7
 383 40 383 40 384 84 c 1,8,9
 354 40 354 40 312.5 14.5 c 128,-1,10
 271 -11 271 -11 223 -11 c 0,11,12
 145 -11 145 -11 101.5 43 c 128,-1,13
 58 97 58 97 58 192 c 0,14,15
 58 272 58 272 87.5 351 c 128,-1,16
 117 430 117 430 174 482 c 128,-1,17
 231 534 231 534 309 534 c 0,18,19
 400 534 400 534 436 453 c 1,20,-1
 455 523 l 1,21,-1
 501 523 l 1,22,-1
 440 114 l 2,23,0
 438 103 438 103 438 84 c 0,1,2
424 386 m 1,24,25
 408 441 408 441 379 463.5 c 128,-1,26
 350 486 350 486 308 486 c 0,27,28
 249 486 249 486 206.5 442 c 128,-1,29
 164 398 164 398 142 329.5 c 128,-1,30
 120 261 120 261 120 192 c 0,31,32
 120 116 120 116 149.5 77 c 128,-1,33
 179 38 179 38 234 38 c 0,34,35
 279 38 279 38 316.5 66 c 128,-1,36
 354 94 354 94 389 148 c 1,37,-1
 424 386 l 1,24,25
EndSplineSet
Substitution2: "'smcp' Lowercase to Small Capitals lookup 28 subtable" uni0251.sc
Substitution2: "'aalt' Access All Alternates lookup 0 subtable" uni0251.sc
EndChar

StartChar: uni0252
Encoding: 594 594 365
Width: 560
GlyphClass: 2
Flags: W
AnchorPoint: "Anchor-18" 0 0 basechar 0
AnchorPoint: "Anchor-17" 0 0 basechar 0
AnchorPoint: "Anchor-16" 317 523 basechar 0
AnchorPoint: "Anchor-15" 0 0 basechar 0
AnchorPoint: "Anchor-14" 243 0 basechar 0
LayerCount: 2
Fore
SplineSet
458.5 480 m 128,-1,1
 502 426 502 426 502 331 c 0,2,3
 502 251 502 251 472.5 172 c 128,-1,4
 443 93 443 93 386 41 c 128,-1,5
 329 -11 329 -11 251 -11 c 0,6,7
 160 -11 160 -11 124 70 c 1,8,-1
 105 0 l 1,9,-1
 59 0 l 1,10,-1
 120 409 l 2,11,12
 122 420 122 420 122 439 c 0,13,14
 122 460 122 460 114.5 472.5 c 128,-1,15
 107 485 107 485 89 493 c 1,16,-1
 106 534 l 1,17,18
 141 526 141 526 159 504.5 c 128,-1,19
 177 483 177 483 176 439 c 1,20,21
 206 483 206 483 247.5 508.5 c 128,-1,22
 289 534 289 534 337 534 c 0,23,0
 415 534 415 534 458.5 480 c 128,-1,1
353.5 81 m 128,-1,25
 396 125 396 125 418 193.5 c 128,-1,26
 440 262 440 262 440 331 c 0,27,28
 440 407 440 407 410.5 446 c 128,-1,29
 381 485 381 485 326 485 c 0,30,31
 281 485 281 485 243.5 457 c 128,-1,32
 206 429 206 429 171 375 c 1,33,-1
 136 137 l 1,34,35
 152 82 152 82 181 59.5 c 128,-1,36
 210 37 210 37 252 37 c 0,37,24
 311 37 311 37 353.5 81 c 128,-1,25
EndSplineSet
EndChar

StartChar: aogonek
Encoding: 261 261 367
Width: 560
GlyphClass: 2
Flags: W
AnchorPoint: "Anchor-18" 0 0 basechar 0
AnchorPoint: "Anchor-17" 0 0 basechar 0
AnchorPoint: "Anchor-16" 338 523 basechar 0
AnchorPoint: "Anchor-15" 463 -11 basechar 0
AnchorPoint: "Anchor-14" 271 0 basechar 0
LayerCount: 2
Fore
SplineSet
438 84 m 0,1,2
 438 63 438 63 445.5 50.5 c 128,-1,3
 453 38 453 38 471 30 c 1,4,-1
 454 -11 l 1,5,6
 378 -43 378 -43 346 -72 c 128,-1,7
 314 -101 314 -101 314 -135 c 0,8,9
 314 -180 314 -180 369 -180 c 0,10,11
 396 -180 396 -180 428 -173 c 1,12,-1
 418 -222 l 1,13,14
 388 -228 388 -228 361 -228 c 0,15,16
 312 -228 312 -228 286 -205.5 c 128,-1,17
 260 -183 260 -183 260 -147 c 0,18,19
 260 -98 260 -98 296 -61.5 c 128,-1,20
 332 -25 332 -25 415 5 c 1,21,22
 383 29 383 29 384 84 c 1,23,24
 354 40 354 40 312.5 14.5 c 128,-1,25
 271 -11 271 -11 223 -11 c 0,26,27
 145 -11 145 -11 101.5 43.5 c 128,-1,28
 58 98 58 98 58 192 c 0,29,30
 58 270 58 270 86 349 c 128,-1,31
 114 428 114 428 174.5 481 c 128,-1,32
 235 534 235 534 327 534 c 0,33,34
 376 534 376 534 415 523 c 128,-1,35
 454 512 454 512 495 491 c 1,36,-1
 440 114 l 2,37,0
 438 103 438 103 438 84 c 0,1,2
433 463 m 1,38,39
 385 487 385 487 329 487 c 0,40,41
 258 487 258 487 210.5 441 c 128,-1,42
 163 395 163 395 141.5 327 c 128,-1,43
 120 259 120 259 120 192 c 0,44,45
 120 116 120 116 149 77 c 128,-1,46
 178 38 178 38 232 38 c 0,47,48
 279 38 279 38 316.5 66 c 128,-1,49
 354 94 354 94 388 148 c 1,50,-1
 433 463 l 1,38,39
EndSplineSet
Substitution2: "'smcp' Lowercase to Small Capitals lookup 28 subtable" aogonek.sc
Substitution2: "'aalt' Access All Alternates lookup 0 subtable" aogonek.sc
EndChar

StartChar: uni2C65
Encoding: 11365 11365 370
Width: 560
GlyphClass: 2
Flags: W
AnchorPoint: "Anchor-18" 0 0 basechar 0
AnchorPoint: "Anchor-17" 0 0 basechar 0
AnchorPoint: "Anchor-16" 317 523 basechar 0
AnchorPoint: "Anchor-15" 0 0 basechar 0
AnchorPoint: "Anchor-14" 243 0 basechar 0
LayerCount: 2
Fore
SplineSet
438 84 m 0,1,2
 438 63 438 63 445.5 50.5 c 128,-1,3
 453 38 453 38 471 30 c 1,4,-1
 454 -11 l 1,5,6
 419 -4 419 -4 401.5 17.5 c 128,-1,7
 384 39 384 39 384 84 c 1,8,9
 354 40 354 40 312.5 14.5 c 128,-1,10
 271 -11 271 -11 223 -11 c 0,11,12
 199 -11 199 -11 178 -5 c 1,13,-1
 151 -70 l 1,14,-1
 121 -62 l 1,15,-1
 149 5 l 1,16,17
 105 27 105 27 81.5 75.5 c 128,-1,18
 58 124 58 124 58 192 c 0,19,20
 58 270 58 270 86 349 c 128,-1,21
 114 428 114 428 174.5 481 c 128,-1,22
 235 534 235 534 327 534 c 0,23,24
 341 534 341 534 367 532 c 1,25,-1
 392 592 l 1,26,-1
 422 583 l 1,27,-1
 399 527 l 1,28,29
 442 518 442 518 495 491 c 1,30,-1
 440 114 l 2,31,0
 438 103 438 103 438 84 c 0,1,2
170 56 m 1,33,-1
 348 486 l 1,34,35
 342 487 342 487 329 487 c 0,36,37
 258 487 258 487 210.5 441 c 128,-1,38
 163 395 163 395 141.5 327 c 128,-1,39
 120 259 120 259 120 192 c 0,40,32
 120 94 120 94 170 56 c 1,33,-1
433 463 m 1,41,42
 403 477 403 477 380 482 c 1,43,-1
 198 43 l 1,44,45
 215 38 215 38 232 38 c 0,46,47
 279 38 279 38 316.5 66 c 128,-1,48
 354 94 354 94 388 148 c 1,49,-1
 433 463 l 1,41,42
EndSplineSet
Substitution2: "'smcp' Lowercase to Small Capitals lookup 28 subtable" uni2C65.sc
Substitution2: "'aalt' Access All Alternates lookup 0 subtable" uni2C65.sc
EndChar

StartChar: uni0250
Encoding: 592 592 372
Width: 525
GlyphClass: 2
Flags: W
AnchorPoint: "Anchor-18" 0 0 basechar 0
AnchorPoint: "Anchor-17" 0 0 basechar 0
AnchorPoint: "Anchor-16" 302 523 basechar 0
AnchorPoint: "Anchor-15" 0 0 basechar 0
AnchorPoint: "Anchor-14" 228 0 basechar 0
LayerCount: 2
Fore
SplineSet
142 156 m 2,0,1
 140 134 140 134 140 125 c 0,2,3
 140 79 140 79 163.5 59 c 128,-1,4
 187 39 187 39 241 39 c 0,5,6
 306 39 306 39 387 69 c 1,7,-1
 401 24 l 1,8,9
 311 -11 311 -11 232 -11 c 0,10,11
 158 -11 158 -11 119.5 22 c 128,-1,12
 81 55 81 55 81 119 c 0,13,14
 81 137 81 137 84 156 c 2,15,-1
 119 410 l 2,16,17
 122 428 122 428 122 442 c 0,18,19
 122 461 122 461 114.5 473.5 c 128,-1,20
 107 486 107 486 89 493 c 1,21,-1
 105 535 l 1,22,23
 139 527 139 527 157 507 c 128,-1,24
 175 487 175 487 176 449 c 1,25,26
 245 534 245 534 345 534 c 0,27,28
 413 534 413 534 452 497.5 c 128,-1,29
 491 461 491 461 491 399 c 0,30,31
 491 308 491 308 424 258 c 128,-1,32
 357 208 357 208 250 208 c 2,33,-1
 149 208 l 1,34,-1
 142 156 l 2,0,1
175 389 m 1,36,-1
 155 251 l 1,37,-1
 246 251 l 2,38,39
 332 251 332 251 381 289 c 128,-1,40
 430 327 430 327 430 398 c 0,41,42
 430 442 430 442 405.5 464.5 c 128,-1,43
 381 487 381 487 336 487 c 0,44,35
 240 487 240 487 175 389 c 1,36,-1
EndSplineSet
EndChar

StartChar: ae
Encoding: 230 230 373
Width: 818
GlyphClass: 2
Flags: W
AnchorPoint: "Anchor-18" 0 0 basechar 0
AnchorPoint: "Anchor-17" 0 0 basechar 0
AnchorPoint: "Anchor-16" 449 523 basechar 0
AnchorPoint: "Anchor-15" 0 0 basechar 0
AnchorPoint: "Anchor-14" 373 0 basechar 0
LayerCount: 2
Fore
SplineSet
388 507 m 128,-1,1
 426 480 426 480 439 433 c 1,2,3
 463 473 463 473 514.5 503.5 c 128,-1,4
 566 534 566 534 629 534 c 0,5,6
 702 534 702 534 744 498.5 c 128,-1,7
 786 463 786 463 786 407 c 0,8,9
 786 312 786 312 691 266 c 128,-1,10
 596 220 596 220 422 207 c 1,11,12
 422 40 422 40 558 40 c 0,13,14
 599 40 599 40 633 52.5 c 128,-1,15
 667 65 667 65 705 92 c 1,16,-1
 732 51 l 1,17,18
 689 20 689 20 645.5 4.5 c 128,-1,19
 602 -11 602 -11 554 -11 c 0,20,21
 492 -11 492 -11 448 16 c 128,-1,22
 404 43 404 43 383 93 c 1,23,24
 338 37 338 37 289 13 c 128,-1,25
 240 -11 240 -11 184 -11 c 0,26,27
 115 -11 115 -11 74.5 26 c 128,-1,28
 34 63 34 63 34 125 c 0,29,30
 34 202 34 202 92 253 c 128,-1,31
 150 304 150 304 275 304 c 2,32,-1
 377 304 l 1,33,34
 386 347 386 347 401 382 c 1,35,36
 399 429 399 429 366 457 c 128,-1,37
 333 485 333 485 278 485 c 0,38,39
 244 485 244 485 211.5 478 c 128,-1,40
 179 471 179 471 135 456 c 1,41,-1
 122 501 l 1,42,43
 208 534 208 534 284 534 c 0,44,0
 350 534 350 534 388 507 c 128,-1,1
488.5 417 m 128,-1,46
 438 348 438 348 426 253 c 1,47,48
 577 265 577 265 651 300.5 c 128,-1,49
 725 336 725 336 725 405 c 0,50,51
 725 439 725 439 700.5 462.5 c 128,-1,52
 676 486 676 486 628 486 c 0,53,45
 539 486 539 486 488.5 417 c 128,-1,46
280 261 m 2,54,55
 185 261 185 261 141 225 c 128,-1,56
 97 189 97 189 97 125 c 0,57,58
 97 81 97 81 121.5 58.5 c 128,-1,59
 146 36 146 36 191 36 c 0,60,61
 241 36 241 36 284.5 61.5 c 128,-1,62
 328 87 328 87 369 142 c 1,63,64
 365 161 365 161 365 197 c 0,65,66
 365 238 365 238 369 261 c 1,67,-1
 280 261 l 2,54,55
EndSplineSet
Substitution2: "'smcp' Lowercase to Small Capitals lookup 28 subtable" ae.sc
Substitution2: "'aalt' Access All Alternates lookup 0 subtable" ae.sc
EndChar

StartChar: b
Encoding: 98 98 376
Width: 572
GlyphClass: 2
Flags: W
AnchorPoint: "Anchor-18" 0 0 basechar 0
AnchorPoint: "Anchor-17" 0 0 basechar 0
AnchorPoint: "Anchor-16" 363 736 basechar 0
AnchorPoint: "Anchor-15" 0 0 basechar 0
AnchorPoint: "Anchor-14" 249 0 basechar 0
LayerCount: 2
Fore
SplineSet
472.5 482.5 m 128,-1,1
 514 431 514 431 514 336 c 0,2,3
 514 256 514 256 487 176.5 c 128,-1,4
 460 97 460 97 399.5 43 c 128,-1,5
 339 -11 339 -11 244 -11 c 0,6,7
 201 -11 201 -11 162.5 -3.5 c 128,-1,8
 124 4 124 4 72 23 c 1,9,-1
 173 736 l 1,10,-1
 231 744 l 1,11,-1
 192 458 l 1,12,13
 268 534 268 534 356 534 c 0,14,0
 431 534 431 534 472.5 482.5 c 128,-1,1
260 462.5 m 128,-1,16
 223 440 223 440 183 398 c 1,17,-1
 136 59 l 1,18,19
 163 48 163 48 188 43 c 128,-1,20
 213 38 213 38 247 38 c 0,21,22
 320 38 320 38 366.5 85.5 c 128,-1,23
 413 133 413 133 433.5 202 c 128,-1,24
 454 271 454 271 454 339 c 0,25,26
 454 413 454 413 425.5 449 c 128,-1,27
 397 485 397 485 344 485 c 0,28,15
 297 485 297 485 260 462.5 c 128,-1,16
EndSplineSet
Substitution2: "'smcp' Lowercase to Small Capitals lookup 28 subtable" b.sc
Substitution2: "'aalt' Access All Alternates lookup 0 subtable" b.sc
EndChar

StartChar: uni0253
Encoding: 595 595 380
Width: 572
GlyphClass: 2
Flags: W
AnchorPoint: "Anchor-18" 0 0 basechar 0
AnchorPoint: "Anchor-17" 0 0 basechar 0
AnchorPoint: "Anchor-16" 350 736 basechar 0
AnchorPoint: "Anchor-15" 0 0 basechar 0
AnchorPoint: "Anchor-14" 250 0 basechar 0
LayerCount: 2
Fore
SplineSet
473 483 m 128,-1,1
 514 432 514 432 514 336 c 0,2,3
 514 256 514 256 487 176.5 c 128,-1,4
 460 97 460 97 399.5 43 c 128,-1,5
 339 -11 339 -11 244 -11 c 0,6,7
 201 -11 201 -11 162.5 -3.5 c 128,-1,8
 124 4 124 4 72 23 c 1,9,-1
 142 522 l 1,10,-1
 143 522 l 1,11,-1
 155 611 l 2,12,13
 164 673 164 673 207 708.5 c 128,-1,14
 250 744 250 744 316 744 c 0,15,16
 377 744 377 744 435 715 c 1,17,-1
 412 672 l 1,18,19
 368 694 368 694 318 694 c 0,20,21
 225 694 225 694 213 605 c 2,22,-1
 201 522 l 1,23,-1
 192 458 l 1,24,25
 268 534 268 534 356 534 c 0,26,0
 432 534 432 534 473 483 c 128,-1,1
366.5 85.5 m 128,-1,28
 413 133 413 133 433.5 202.5 c 128,-1,29
 454 272 454 272 454 340 c 0,30,31
 454 485 454 485 343 485 c 0,32,33
 297 485 297 485 260 462.5 c 128,-1,34
 223 440 223 440 183 398 c 1,35,-1
 136 59 l 1,36,37
 163 48 163 48 188 43 c 128,-1,38
 213 38 213 38 247 38 c 0,39,27
 320 38 320 38 366.5 85.5 c 128,-1,28
EndSplineSet
Substitution2: "'smcp' Lowercase to Small Capitals lookup 28 subtable" uni0253.sc
Substitution2: "'aalt' Access All Alternates lookup 0 subtable" uni0253.sc
EndChar

StartChar: uni02AD
Encoding: 685 685 381
Width: 325
GlyphClass: 2
Flags: W
AnchorPoint: "Anchor-18" 0 0 basechar 0
AnchorPoint: "Anchor-17" 0 0 basechar 0
AnchorPoint: "Anchor-16" 144 132 basechar 0
AnchorPoint: "Anchor-15" 0 0 basechar 0
AnchorPoint: "Anchor-14" 0 0 basechar 0
LayerCount: 2
Fore
SplineSet
314 400 m 1,0,-1
 269 400 l 1,1,-1
 282 490 l 1,2,-1
 108 490 l 1,3,-1
 95 400 l 1,4,-1
 50 400 l 1,5,-1
 69 532 l 1,6,-1
 333 532 l 1,7,-1
 314 400 l 1,0,-1
257 0 m 1,8,-1
 212 0 l 1,9,-1
 225 90 l 1,10,-1
 51 90 l 1,11,-1
 38 0 l 1,12,-1
 -7 0 l 1,13,-1
 12 132 l 1,14,-1
 276 132 l 1,15,-1
 257 0 l 1,8,-1
EndSplineSet
EndChar

StartChar: uni0298
Encoding: 664 664 382
Width: 788
GlyphClass: 2
Flags: W
AnchorPoint: "Anchor-18" 0 0 basechar 0
AnchorPoint: "Anchor-17" 0 0 basechar 0
AnchorPoint: "Anchor-16" 453 685 basechar 0
AnchorPoint: "Anchor-15" 0 0 basechar 0
AnchorPoint: "Anchor-14" 357 0 basechar 0
LayerCount: 2
Fore
SplineSet
661 621 m 128,-1,1
 738 546 738 546 738 410 c 0,2,3
 738 292 738 292 691 196 c 128,-1,4
 644 100 644 100 558 44.5 c 128,-1,5
 472 -11 472 -11 359 -11 c 0,6,7
 227 -11 227 -11 149.5 64 c 128,-1,8
 72 139 72 139 72 275 c 0,9,10
 72 392 72 392 119.5 488 c 128,-1,11
 167 584 167 584 253.5 640 c 128,-1,12
 340 696 340 696 452 696 c 0,13,0
 584 696 584 696 661 621 c 128,-1,1
278 597 m 128,-1,15
 205 547 205 547 167 462 c 128,-1,16
 129 377 129 377 129 275 c 0,17,18
 129 159 129 159 190.5 98.5 c 128,-1,19
 252 38 252 38 359 38 c 0,20,21
 460 38 460 38 533 87.5 c 128,-1,22
 606 137 606 137 644 221.5 c 128,-1,23
 682 306 682 306 682 410 c 0,24,25
 682 527 682 527 621 587 c 128,-1,26
 560 647 560 647 451 647 c 0,27,14
 351 647 351 647 278 597 c 128,-1,15
373 310.5 m 128,-1,29
 362 321 362 321 362 338 c 0,30,31
 362 358 362 358 375.5 371 c 128,-1,32
 389 384 389 384 409 384 c 0,33,34
 427 384 427 384 438 373.5 c 128,-1,35
 449 363 449 363 449 346 c 0,36,37
 449 326 449 326 435.5 313 c 128,-1,38
 422 300 422 300 402 300 c 0,39,28
 384 300 384 300 373 310.5 c 128,-1,29
EndSplineSet
EndChar

